%TF.GenerationSoftware,KiCad,Pcbnew,7.0.8-7.0.8~ubuntu20.04.1*%
%TF.CreationDate,2023-11-26T17:45:29+01:00*%
%TF.ProjectId,bouilloire_pcb,626f7569-6c6c-46f6-9972-655f7063622e,rev?*%
%TF.SameCoordinates,Original*%
%TF.FileFunction,Soldermask,Bot*%
%TF.FilePolarity,Negative*%
%FSLAX46Y46*%
G04 Gerber Fmt 4.6, Leading zero omitted, Abs format (unit mm)*
G04 Created by KiCad (PCBNEW 7.0.8-7.0.8~ubuntu20.04.1) date 2023-11-26 17:45:29*
%MOMM*%
%LPD*%
G01*
G04 APERTURE LIST*
G04 Aperture macros list*
%AMRoundRect*
0 Rectangle with rounded corners*
0 $1 Rounding radius*
0 $2 $3 $4 $5 $6 $7 $8 $9 X,Y pos of 4 corners*
0 Add a 4 corners polygon primitive as box body*
4,1,4,$2,$3,$4,$5,$6,$7,$8,$9,$2,$3,0*
0 Add four circle primitives for the rounded corners*
1,1,$1+$1,$2,$3*
1,1,$1+$1,$4,$5*
1,1,$1+$1,$6,$7*
1,1,$1+$1,$8,$9*
0 Add four rect primitives between the rounded corners*
20,1,$1+$1,$2,$3,$4,$5,0*
20,1,$1+$1,$4,$5,$6,$7,0*
20,1,$1+$1,$6,$7,$8,$9,0*
20,1,$1+$1,$8,$9,$2,$3,0*%
G04 Aperture macros list end*
%ADD10R,1.700000X1.700000*%
%ADD11O,1.700000X1.700000*%
%ADD12C,2.000000*%
%ADD13C,3.000000*%
%ADD14C,1.524000*%
%ADD15C,5.000000*%
%ADD16RoundRect,0.250000X-0.600000X-0.750000X0.600000X-0.750000X0.600000X0.750000X-0.600000X0.750000X0*%
%ADD17O,1.700000X2.000000*%
%ADD18R,1.700000X3.500000*%
G04 APERTURE END LIST*
D10*
%TO.C,J1*%
X59690000Y25400000D03*
D11*
X62230000Y25400000D03*
X64770000Y25400000D03*
X67310000Y25400000D03*
%TD*%
D12*
%TO.C,SW2*%
X35910000Y10750000D03*
X42410000Y10750000D03*
X35910000Y6250000D03*
X42410000Y6250000D03*
%TD*%
D13*
%TO.C,K2*%
X97105000Y55725000D03*
X97105000Y48225000D03*
X102145000Y55725000D03*
X102145000Y48225000D03*
D14*
X76945000Y55725000D03*
X76945000Y48225000D03*
%TD*%
D13*
%TO.C,K1*%
X97105000Y41755000D03*
X97105000Y34255000D03*
X102145000Y41755000D03*
X102145000Y34255000D03*
D14*
X76945000Y41755000D03*
X76945000Y34255000D03*
%TD*%
D15*
%TO.C,J5*%
X69850000Y38100000D03*
%TD*%
%TO.C,J6*%
X69850000Y52070000D03*
%TD*%
D13*
%TO.C,J4*%
X112628731Y55573639D03*
X110891269Y50800000D03*
%TD*%
D12*
%TO.C,SW1*%
X15000000Y21750000D03*
X21500000Y21750000D03*
X15000000Y17250000D03*
X21500000Y17250000D03*
%TD*%
D16*
%TO.C,J2*%
X114848000Y28956000D03*
D17*
X117348000Y28956000D03*
%TD*%
D12*
%TO.C,SW3*%
X85100000Y10750000D03*
X91600000Y10750000D03*
X85100000Y6250000D03*
X91600000Y6250000D03*
%TD*%
D13*
%TO.C,J3*%
X119781269Y50953180D03*
X121518731Y55726819D03*
%TD*%
D12*
%TO.C,SW4*%
X106000000Y21750000D03*
X112500000Y21750000D03*
X106000000Y17250000D03*
X112500000Y17250000D03*
%TD*%
D11*
%TO.C,U1*%
X87884000Y3048000D03*
D18*
X87884000Y2148000D03*
D11*
X85344000Y3048000D03*
D18*
X85344000Y2148000D03*
D10*
X82804000Y3048000D03*
D18*
X82804000Y2148000D03*
D11*
X80264000Y3048000D03*
D18*
X80264000Y2148000D03*
D11*
X77724000Y3048000D03*
D18*
X77724000Y2148000D03*
D11*
X75184000Y3048000D03*
D18*
X75184000Y2148000D03*
D11*
X72644000Y3048000D03*
D18*
X72644000Y2148000D03*
D10*
X70104000Y3048000D03*
D18*
X70104000Y2148000D03*
D11*
X67564000Y3048000D03*
D18*
X67564000Y2148000D03*
D11*
X65024000Y3048000D03*
D18*
X65024000Y2148000D03*
D11*
X62484000Y3048000D03*
D18*
X62484000Y2148000D03*
D11*
X59944000Y3048000D03*
D18*
X59944000Y2148000D03*
D10*
X57404000Y3048000D03*
D18*
X57404000Y2148000D03*
D11*
X54864000Y3048000D03*
D18*
X54864000Y2148000D03*
D11*
X52324000Y3048000D03*
D18*
X52324000Y2148000D03*
D11*
X49784000Y3048000D03*
D18*
X49784000Y2148000D03*
D11*
X47244000Y3048000D03*
D18*
X47244000Y2148000D03*
D10*
X44704000Y3048000D03*
D18*
X44704000Y2148000D03*
D11*
X42164000Y3048000D03*
D18*
X42164000Y2148000D03*
D11*
X39624000Y3048000D03*
D18*
X39624000Y2148000D03*
D11*
X39624000Y20828000D03*
D18*
X39624000Y21728000D03*
D11*
X42164000Y20828000D03*
D18*
X42164000Y21728000D03*
D10*
X44704000Y20828000D03*
D18*
X44704000Y21728000D03*
D11*
X47244000Y20828000D03*
D18*
X47244000Y21728000D03*
D11*
X49784000Y20828000D03*
D18*
X49784000Y21728000D03*
D11*
X52324000Y20828000D03*
D18*
X52324000Y21728000D03*
D11*
X54864000Y20828000D03*
D18*
X54864000Y21728000D03*
D10*
X57404000Y20828000D03*
D18*
X57404000Y21728000D03*
D11*
X59944000Y20828000D03*
D18*
X59944000Y21728000D03*
D11*
X62484000Y20828000D03*
D18*
X62484000Y21728000D03*
D11*
X65024000Y20828000D03*
D18*
X65024000Y21728000D03*
D11*
X67564000Y20828000D03*
D18*
X67564000Y21728000D03*
D10*
X70104000Y20828000D03*
D18*
X70104000Y21728000D03*
D11*
X72644000Y20828000D03*
D18*
X72644000Y21728000D03*
D11*
X75184000Y20828000D03*
D18*
X75184000Y21728000D03*
D11*
X77724000Y20828000D03*
D18*
X77724000Y21728000D03*
D11*
X80264000Y20828000D03*
D18*
X80264000Y21728000D03*
D10*
X82804000Y20828000D03*
D18*
X82804000Y21728000D03*
D11*
X85344000Y20828000D03*
D18*
X85344000Y21728000D03*
D11*
X87884000Y20828000D03*
D18*
X87884000Y21728000D03*
%TD*%
M02*
