%TF.GenerationSoftware,KiCad,Pcbnew,7.0.8-7.0.8~ubuntu20.04.1*%
%TF.CreationDate,2023-11-26T17:45:29+01:00*%
%TF.ProjectId,bouilloire_pcb,626f7569-6c6c-46f6-9972-655f7063622e,rev?*%
%TF.SameCoordinates,Original*%
%TF.FileFunction,Profile,NP*%
%FSLAX46Y46*%
G04 Gerber Fmt 4.6, Leading zero omitted, Abs format (unit mm)*
G04 Created by KiCad (PCBNEW 7.0.8-7.0.8~ubuntu20.04.1) date 2023-11-26 17:45:29*
%MOMM*%
%LPD*%
G01*
G04 APERTURE LIST*
%TA.AperFunction,Profile*%
%ADD10C,0.150000*%
%TD*%
G04 APERTURE END LIST*
D10*
X16552401Y8346990D02*
X10800000Y16500000D01*
X115650000Y43750000D02*
G75*
G03*
X115650000Y43750000I-1750000J0D01*
G01*
X2000000Y59500000D02*
G75*
G03*
X0Y57500000I-1J-1999999D01*
G01*
X26400000Y6450000D02*
G75*
G03*
X26400000Y6450000I-1750000J0D01*
G01*
X104600000Y6450000D02*
G75*
G03*
X104600000Y6450000I-1750000J0D01*
G01*
X25700000Y37750000D02*
G75*
G03*
X25700000Y37750000I-1750000J0D01*
G01*
X0Y57500000D02*
X0Y29939274D01*
X125500000Y59500000D02*
X2000000Y59500000D01*
X20750000Y2000000D02*
X20750000Y7500000D01*
X5463740Y17661881D02*
G75*
G03*
X7279665Y16500000I1815930J838139D01*
G01*
X18750000Y19500000D02*
G75*
G03*
X18750000Y19500000I-500000J0D01*
G01*
X39650000Y8500000D02*
G75*
G03*
X39650000Y8500000I-500000J0D01*
G01*
X127315934Y29101150D02*
G75*
G03*
X127500000Y29939274I-1816234J838150D01*
G01*
X116700000Y16500000D02*
X110947599Y8346990D01*
X16552409Y8346996D02*
G75*
G03*
X18186589Y7500000I1634191J1153004D01*
G01*
X120220335Y16500001D02*
G75*
G03*
X122036254Y17661884I65J1999899D01*
G01*
X127500000Y57500000D02*
G75*
G03*
X125500000Y59500000I-2000000J0D01*
G01*
X104750000Y0D02*
G75*
G03*
X106750000Y2000000I0J2000000D01*
G01*
X1Y29939274D02*
G75*
G03*
X184081Y29101157I2000039J6D01*
G01*
X10800000Y16500000D02*
X7279665Y16500000D01*
X109313411Y7500000D02*
X106750000Y7500000D01*
X22750000Y0D02*
X104750000Y0D01*
X127315919Y29101157D02*
X122036254Y17661884D01*
X127500000Y29939274D02*
X127500000Y57500000D01*
X88850000Y8500000D02*
G75*
G03*
X88850000Y8500000I-500000J0D01*
G01*
X5463746Y17661884D02*
X184081Y29101157D01*
X120220335Y16500000D02*
X116700000Y16500000D01*
X106750000Y7500000D02*
X106750000Y2000000D01*
X109750000Y19500000D02*
G75*
G03*
X109750000Y19500000I-500000J0D01*
G01*
X20750000Y7500000D02*
X18186589Y7500000D01*
X20750000Y2000000D02*
G75*
G03*
X22750000Y0I2000000J0D01*
G01*
X109313411Y7499991D02*
G75*
G03*
X110947599Y8346990I-11J2000009D01*
G01*
M02*
