M48
; DRILL file {KiCad 7.0.8-7.0.8~ubuntu20.04.1} date dim. 26 nov. 2023 17:45:25
; FORMAT={-:-/ absolute / inch / decimal}
; #@! TF.CreationDate,2023-11-26T17:45:25+01:00
; #@! TF.GenerationSoftware,Kicad,Pcbnew,7.0.8-7.0.8~ubuntu20.04.1
; #@! TF.FileFunction,Plated,1,2,PTH
FMAT,2
INCH
; #@! TA.AperFunction,Plated,PTH,ViaDrill
T1C0.0157
; #@! TA.AperFunction,Plated,PTH,ViaDrill
T2C0.0197
; #@! TA.AperFunction,Plated,PTH,ComponentDrill
T3C0.0300
; #@! TA.AperFunction,Plated,PTH,ComponentDrill
T4C0.0394
; #@! TA.AperFunction,Plated,PTH,ComponentDrill
T5C0.0402
; #@! TA.AperFunction,Plated,PTH,ComponentDrill
T6C0.0433
; #@! TA.AperFunction,Plated,PTH,ComponentDrill
T7C0.0787
%
G90
G05
T1
X0.475Y1.1
X0.62Y1.0
X1.18Y1.34
X1.25Y0.6
X1.3Y0.75
X1.7Y0.7
X1.8Y1.28
X1.95Y0.725
X1.95Y0.6
X2.075Y0.725
X2.1Y0.6
X2.3Y0.425
X2.34Y1.34
X2.35Y0.55
X2.7Y0.2
X2.74Y1.12
X2.925Y0.3
X2.96Y0.46
X3.05Y1.0
X3.06Y0.3
X3.1Y0.62
X3.18Y0.7
X3.225Y0.575
X3.325Y1.125
X3.45Y0.6285
X3.58Y1.0
X3.625Y0.875
X3.625Y0.725
X3.625Y0.6035
X3.75Y0.725
X3.8Y0.75
X3.8Y0.575
X3.95Y0.9
T2
X2.24Y2.02
X2.46Y2.02
T3
X3.0293Y2.1939
X3.0293Y1.8986
X3.0293Y1.6439
X3.0293Y1.3486
T4
X2.35Y1.0
X2.45Y1.0
X2.55Y1.0
X2.65Y1.0
X3.823Y2.1939
X3.823Y1.8986
X3.823Y1.6439
X3.823Y1.3486
X4.0215Y2.1939
X4.0215Y1.8986
X4.0215Y1.6439
X4.0215Y1.3486
X4.5216Y1.14
X4.62Y1.14
T5
X1.56Y0.82
X1.56Y0.12
X1.66Y0.82
X1.66Y0.12
X1.76Y0.82
X1.76Y0.12
X1.86Y0.82
X1.86Y0.12
X1.96Y0.82
X1.96Y0.12
X2.06Y0.82
X2.06Y0.12
X2.16Y0.82
X2.16Y0.12
X2.26Y0.82
X2.26Y0.12
X2.36Y0.82
X2.36Y0.12
X2.46Y0.82
X2.46Y0.12
X2.56Y0.82
X2.56Y0.12
X2.66Y0.82
X2.66Y0.12
X2.76Y0.82
X2.76Y0.12
X2.86Y0.82
X2.86Y0.12
X2.96Y0.82
X2.96Y0.12
X3.06Y0.82
X3.06Y0.12
X3.16Y0.82
X3.16Y0.12
X3.26Y0.82
X3.26Y0.12
X3.36Y0.82
X3.36Y0.12
X3.46Y0.82
X3.46Y0.12
T6
X0.5906Y0.8563
X0.5906Y0.6791
X0.8465Y0.8563
X0.8465Y0.6791
X1.4138Y0.4232
X1.4138Y0.2461
X1.6697Y0.4232
X1.6697Y0.2461
X3.3504Y0.4232
X3.3504Y0.2461
X3.6063Y0.4232
X3.6063Y0.2461
X4.1732Y0.8563
X4.1732Y0.6791
X4.3658Y2.0
X4.4291Y0.8563
X4.4291Y0.6791
X4.4342Y2.1879
X4.7158Y2.006
X4.7842Y2.194
T7
X2.75Y2.05
X2.75Y1.5
T0
M30
