<?xml version="1.0" encoding="UTF-8" standalone="no"?>
<!-- Created with Inkscape (http://www.inkscape.org/) -->

<svg
   xmlns:dc="http://purl.org/dc/elements/1.1/"
   xmlns:cc="http://creativecommons.org/ns#"
   xmlns:rdf="http://www.w3.org/1999/02/22-rdf-syntax-ns#"
   xmlns:svg="http://www.w3.org/2000/svg"
   xmlns="http://www.w3.org/2000/svg"
   xmlns:sodipodi="http://sodipodi.sourceforge.net/DTD/sodipodi-0.dtd"
   xmlns:inkscape="http://www.inkscape.org/namespaces/inkscape"
   width="180.10719mm"
   height="232.19171mm"
   viewBox="0 0 180.10719 232.19171"
   version="1.1"
   id="svg8"
   inkscape:version="0.92.5 (2060ec1f9f, 2020-04-08)"
   sodipodi:docname="kettle.svg"
   inkscape:export-filename="/home/nico/Documents/PlatformIO/Projects/bouilloire/bouilloire_fw/src/assets/kettle_icon.png"
   inkscape:export-xdpi="4.1639547"
   inkscape:export-ydpi="4.1639547">
  <defs
     id="defs2" />
  <sodipodi:namedview
     id="base"
     pagecolor="#ffffff"
     bordercolor="#666666"
     borderopacity="1.0"
     inkscape:pageopacity="0.0"
     inkscape:pageshadow="2"
     inkscape:zoom="0.49497475"
     inkscape:cx="153.9375"
     inkscape:cy="440.19734"
     inkscape:document-units="mm"
     inkscape:current-layer="layer1"
     showgrid="false"
     fit-margin-top="0"
     fit-margin-left="0"
     fit-margin-right="0"
     fit-margin-bottom="0"
     inkscape:window-width="1600"
     inkscape:window-height="836"
     inkscape:window-x="0"
     inkscape:window-y="33"
     inkscape:window-maximized="1" />
  <metadata
     id="metadata5">
    <rdf:RDF>
      <cc:Work
         rdf:about="">
        <dc:format>image/svg+xml</dc:format>
        <dc:type
           rdf:resource="http://purl.org/dc/dcmitype/StillImage" />
        <dc:title></dc:title>
      </cc:Work>
    </rdf:RDF>
  </metadata>
  <g
     inkscape:label="Calque 1"
     inkscape:groupmode="layer"
     id="layer1"
     transform="translate(222.5893,18.308658)">
    <rect
       style="fill:#000000;fill-opacity:1;stroke:#ffffff;stroke-width:0.22301;stroke-linecap:round;stroke-linejoin:round;stroke-miterlimit:4;stroke-dasharray:none;stroke-dashoffset:0;stroke-opacity:0.98039216;paint-order:markers fill stroke"
       id="rect828"
       width="211.16893"
       height="243.77579"
       x="-238.12016"
       y="-24.100697" />
    <path
       style="fill:#ffffff;stroke-width:0.26458332"
       d="m -219.51112,213.10964 c -0.57259,-0.57258 -0.7734,-1.02441 -0.7734,-1.74014 0,-0.71573 0.20081,-1.16756 0.7734,-1.74015 l 0.77339,-0.77339 h 11.66202 11.66202 v -6.90442 -6.90442 l -1.45571,-2.1878 c -3.33914,-5.01841 -5.23789,-10.68846 -6.3829,-19.06065 -0.59495,-4.3502 -0.68191,-19.77191 -0.14695,-26.06146 1.30998,-15.40146 4.64066,-32.94158 9.04276,-47.6212 2.14181,-7.142285 2.48099,-19.319286 0.77537,-27.836432 -1.41739,-7.077808 -3.84855,-11.390522 -8.34529,-14.804012 -1.89256,-1.436645 -2.20354,-2.186754 -1.50173,-3.622283 0.40991,-0.838467 0.71179,-1.04875 2.23795,-1.558925 4.49401,-1.502291 10.59368,-1.684906 19.93171,-0.596725 7.95421,0.926922 8.29276,0.868227 10.50466,-1.821215 9.51966,-11.574898 19.51153,-17.232963 30.43258,-17.232963 3.65885,0 5.37034,0.243594 8.67085,1.23411 9.50407,2.852266 18.849,10.822035 26.55178,22.644536 l 1.85315,2.84427 h 27.422916 c 31.07653,0 28.98765,-0.142234 31.25829,2.128404 2.23768,2.237679 2.07973,-0.996572 2.07973,42.586185 0,42.62205 0.10509,40.02173 -1.7137,42.40373 -0.58798,0.77004 -1.43903,1.4616 -2.34295,1.90384 l -1.41956,0.69453 -7.77908,-0.0776 c -8.64714,-0.0863 -8.86963,-0.12747 -10.7283,-1.98613 -2.30279,-2.3028 -2.49496,-4.00754 -1.35072,-11.98211 1.46597,-10.21669 2.04845,-17.89106 2.0499,-27.00769 0.002,-10.935555 -0.81707,-16.480705 -3.12255,-21.146485 -1.62396,-3.28655 -1.58951,-3.27079 -7.19512,-3.29131 -5.30848,-0.0194 -15.34584,0.39039 -15.34584,0.62656 0,0.0941 0.60027,1.95252 1.33393,4.12988 7.74481,22.985065 12.24794,50.483795 13.10496,80.026545 0.24049,8.29007 -0.2813,13.16482 -1.92583,17.99166 -1.273,3.73639 -3.60363,7.74369 -5.60696,9.64065 l -0.82068,0.7771 v 6.03592 6.03592 h 5.84119 5.84118 l 0.7734,0.77339 c 1.06741,1.06742 1.06741,2.41288 0,3.48029 l -0.7734,0.7734 h -72.536526 -72.53655 z m 129.075836,-10.20835 -0.0711,-5.95466 -49.543226,7.9e-4 c -27.24878,5.3e-4 -49.72183,0.001 -49.94011,0.002 -0.341,5.3e-4 -0.39687,0.83885 -0.39687,5.95382 v 5.95313 h 50.01122 50.011206 z m 3.58934,-12.10315 c 2.60423,-3.47367 4.11006,-8.19166 4.67768,-14.65593 0.30155,-3.4342 0.0283,-12.35721 -0.67948,-22.18729 -2.79613,-38.83492 -12.29072,-72.77514 -26.420906,-94.446528 -1.06947,-1.640234 -2.06461,-3.056483 -2.21143,-3.147219 -0.14681,-0.09074 -1.61951,0.134371 -3.27266,0.50024 -12.17419,2.694334 -27.9956,3.280243 -42.03178,1.556544 -2.72875,-0.3351 -9.56775,-1.566649 -11.79934,-2.12479 -0.46698,-0.116797 -0.84846,0.313307 -2.41606,2.724023 -10.01999,15.409114 -18.69583,38.875175 -23.76288,64.27287 -4.38769,21.99248 -5.24862,43.99177 -2.20959,56.46173 0.94536,3.87908 2.71085,7.92919 4.6621,10.69508 l 0.85445,1.21117 h 51.98261 51.982616 z m -19.042116,-7.387 c -0.31076,-0.15047 -0.72317,-0.56911 -0.91648,-0.93031 -0.39838,-0.74438 -0.39379,-1.01274 0.14545,-8.51178 1.33141,-18.51541 1.16543,-41.8578 -0.38851,-54.64147 -0.20939,-1.72249 -0.18136,-2.23515 0.16172,-2.95814 0.40315,-0.84956 1.43209,-1.44057 2.50804,-1.44057 0.64735,0 2.00831,1.1936 2.18631,1.91745 0.0806,0.32785 0.41788,3.57266 0.74945,7.21068 0.54981,6.03243 0.60349,8.08161 0.6099,23.28333 0.005,10.82612 -0.11099,18.38445 -0.32968,21.56354 -0.97179,14.12675 -0.91714,13.76838 -2.20095,14.43227 -0.85423,0.44174 -1.71507,0.4673 -2.52525,0.075 z m -3.36169,-81.72562 c -0.40013,-0.31474 -0.80906,-1.01049 -0.97194,-1.65364 -2.39357,-9.451465 -5.18105,-16.630985 -8.2294,-21.195941 l -1.05418,-1.578634 1.83119,-1.831183 1.83118,-1.831187 1.21943,1.708867 c 3.12368,4.377455 6.07311,11.320803 8.37489,19.715633 1.28872,4.70009 1.31968,5.400775 0.28441,6.436045 -0.9434,0.9434 -2.26138,1.03568 -3.28558,0.23004 z m 61.048316,41.46826 0.55754,-0.74697 0.0781,-37.7499 c 0.0527,-25.48269 -0.011,-38.058175 -0.196,-38.698522 -0.17638,-0.610393 -0.52097,-1.061082 -0.96648,-1.264076 -0.52966,-0.241326 -6.65043,-0.272534 -26.04434,-0.132786 l -25.351956,0.182679 1.614416,3.198061 c 0.88794,1.758937 2.35345,4.92447 3.25669,7.034522 l 1.64225,3.836458 3.13991,-0.02705 c 1.72695,-0.01487 6.77131,-0.07441 11.2097,-0.132291 9.72572,-0.126834 10.39723,-0.0076 12.56986,2.232644 3.39265,3.498186 5.28851,9.985896 5.97249,20.438181 0.59918,9.15652 -0.3612,24.01845 -2.42277,37.49229 -0.8191,5.35339 -0.97812,5.24826 7.79586,5.15428 l 6.58719,-0.0705 z M -185.62274,75.770538 c 1.91707,-4.487733 5.69722,-12.044405 7.79028,-15.573087 0.80782,-1.361916 1.46874,-2.552541 1.46871,-2.645833 -1.3e-4,-0.342384 -11.31513,-1.39745 -14.91502,-1.390745 -2.01865,0.0038 -3.73198,0.06853 -3.80739,0.143944 -0.0754,0.07541 0.35379,0.787299 0.95377,1.58197 3.29136,4.359383 5.38272,10.301097 6.25727,17.77746 0.21942,1.875686 0.39893,3.579741 0.39893,3.786788 0,0.610264 0.13519,0.341807 1.85345,-3.680497 z m 59.00072,-22.209389 c 4.88083,-0.569159 10.4443,-1.517317 11.1125,-1.893859 0.54789,-0.308742 -5.14881,-5.871188 -8.34283,-8.146213 -2.88928,-2.057964 -7.45444,-4.299887 -10.31029,-5.063318 -7.57133,-2.023983 -15.80312,-0.05353 -23.41563,5.605044 -2.97569,2.211903 -8.13086,7.370463 -7.63689,7.641897 1.01823,0.559504 11.96485,2.074764 17.82335,2.467157 4.06264,0.272111 16.27973,-0.08712 20.76979,-0.610708 z m -74.6125,-7.056012 c -6.51533,-1.140698 -11.50808,-5.61626 -13.10227,-11.745015 -0.60177,-2.313498 -0.41988,-6.624283 0.37304,-8.840808 0.30787,-0.860621 0.52969,-1.5854 0.49294,-1.61062 -0.0368,-0.02521 -0.58937,-0.249454 -1.22802,-0.4983 -2.69276,-1.04921 -5.42796,-3.686336 -6.68945,-6.449586 -3.8136,-8.3535808 1.88155,-17.84518276 11.0612,-18.4347348 1.72417,-0.110731 1.77408,-0.134535 2.07863,-0.991266 2.27769,-6.4074388 8.06766,-10.5351002 14.77786,-10.5351002 h 2.0965 l 1.65406,-1.695273 c 4.7403,-4.858392 12.08148,-5.362621 17.47653,-1.200375 1.24159,0.957879 3.55273,3.825713 3.55273,4.408487 0,0.764481 0.77601,1.126366 2.99593,1.3971255 10.14449,1.2373041 17.64157,9.70275174 17.64157,19.9202535 0,3.182384 -0.67918,5.911357 -2.28086,9.164557 -0.99219,2.015271 -1.63994,2.909205 -3.37605,4.659162 -3.05878,3.083174 -5.47537,4.403645 -10.68111,5.836348 -0.1819,0.05006 -0.33073,0.365043 -0.33073,0.699956 0,0.919106 -1.00135,4.343714 -1.63342,5.586293 -2.10692,4.141962 -6.13828,7.193677 -10.88909,8.242969 -2.36111,0.521488 -3.69209,0.400823 -4.55867,-0.413284 -0.81749,-0.767996 -0.9929,-1.657218 -0.54049,-2.739988 0.47618,-1.139682 1.12146,-1.485308 3.27059,-1.751838 3.57352,-0.443177 6.70331,-2.787521 8.31259,-6.226464 0.67091,-1.433705 0.82384,-2.13211 0.91096,-4.16013 0.15365,-3.576781 0.35231,-3.772067 4.46012,-4.384186 5.64938,-0.841833 10.69277,-5.684118 11.93027,-11.45454 1.39193,-6.4905648 -1.70766,-13.13880576 -7.55931,-16.2137568 -2.42521,-1.274415 -4.40506,-1.737817 -7.42467,-1.737817 -2.32332,0 -2.61263,-0.05655 -3.23358,-0.632029 -0.37509,-0.347616 -0.82161,-1.150618 -0.99229,-1.78445 -0.73535,-2.7309022 -2.63954,-4.8634502 -5.06073,-5.6676412 -1.83009,-0.607855 -4.45368,-0.432274 -6.12609,0.409983 -1.33379,0.671719 -2.91728,2.243975 -3.66117,3.6351856 -0.24073,0.4502057 -0.74733,1.0214376 -1.12577,1.2694043 -0.61853,0.4052753 -0.89818,0.4167293 -2.76657,0.1133083 -3.53317,-0.5737756 -6.69494,0.381133 -9.28563,2.804422 -1.59683,1.493645 -2.58045,3.320666 -3.0815,5.723675 -0.44935,2.155114 -0.67961,2.53034 -1.85397,3.02124 -0.62599,0.261673 -1.07113,0.276225 -1.85208,0.06055 -1.37883,-0.380796 -4.25487,-0.148717 -5.39578,0.435409 -1.7528,0.8974 -2.87272,1.999475 -3.68626,3.627517 -1.96857,3.9394598 -0.44273,8.5587968 3.4898,10.5650238 0.60652,0.309422 1.95162,0.62807 3.16955,0.75085 1.73449,0.174853 2.23448,0.331909 2.7739,0.871339 1.01063,1.010629 0.89165,2.27512 -0.38727,4.115755 -1.54427,2.222519 -2.05101,3.774355 -2.04642,6.266921 0.007,3.649244 1.49747,6.555033 4.4084,8.59292 1.86884,1.308341 2.81469,1.620353 5.59051,1.844162 1.98519,0.160059 2.42678,0.284742 2.98477,0.842732 0.36019,0.360183 0.72365,1.078619 0.80769,1.596522 0.12814,0.789663 0.0257,1.083911 -0.63477,1.823101 -0.72117,0.80712 -0.92999,0.886365 -2.47612,0.939649 -0.9287,0.03201 -1.9862,0.0061 -2.35,-0.05761 z"
       id="path826"
       inkscape:connector-curvature="0"
       sodipodi:nodetypes="cssccccccssscccsscssccssscccccccccsssccccccccsccccccccscccccscccsscssscccccccsccscccscccccccccsscccsccsccsccscssccccccccccscscssscssccscccccsccsssscscsssccscssccsccccccsccsccscscccsccccccc"
       inkscape:export-xdpi="4.371841"
       inkscape:export-ydpi="4.371841" />
  </g>
</svg>
