<?xml version="1.0" standalone="no"?>
 <!DOCTYPE svg PUBLIC "-//W3C//DTD SVG 1.1//EN" 
 "http://www.w3.org/Graphics/SVG/1.1/DTD/svg11.dtd"> 
<svg
  xmlns:svg="http://www.w3.org/2000/svg"
  xmlns="http://www.w3.org/2000/svg"
  xmlns:xlink="http://www.w3.org/1999/xlink"
  version="1.1"
  width="297.0022mm" height="210.0072mm" viewBox="0.0000 0.0000 297.0022 210.0072">
<title>SVG Image created as bouilloire_pcb-F_Paste.svg date 2023/11/26 16:44:29 </title>
  <desc>Image generated by PCBNEW </desc>
<g style="fill:#000000; fill-opacity:1.0000;stroke:#000000; stroke-opacity:1.0000;
stroke-linecap:round; stroke-linejoin:round;"
 transform="translate(0 0) scale(1 1)">
</g>
<g style="fill:#000000; fill-opacity:0.0; 
stroke:#000000; stroke-width:0.0000; stroke-opacity:1; 
stroke-linecap:round; stroke-linejoin:round;">
<g >
</g>
<g >
</g>
<g style="fill:#000000; fill-opacity:0.0; 
stroke:#000000; stroke-width:0.0000; stroke-opacity:1; 
stroke-linecap:round; stroke-linejoin:round;">
</g>
<g style="fill:#000000; fill-opacity:0.0; 
stroke:#000000; stroke-width:0.0000; stroke-opacity:1; 
stroke-linecap:round; stroke-linejoin:round;">
</g>
<g style="fill:#000000; fill-opacity:1.0000; 
stroke:#000000; stroke-width:0.0000; stroke-opacity:1; 
stroke-linecap:round; stroke-linejoin:round;">
<path style="fill:#000000; fill-opacity:1.0000; 
stroke:#000000; stroke-width:0.0000; stroke-opacity:1; 
stroke-linecap:round; stroke-linejoin:round;fill-rule:evenodd;"
d="M 122.2500,-21.1400
122.2310,-21.0443
122.1768,-20.9632
122.0957,-20.9090
122.0000,-20.8900
121.3000,-20.8900
121.2043,-20.9090
121.1232,-20.9632
121.0690,-21.0443
121.0500,-21.1400
121.0500,-22.0400
121.0690,-22.1357
121.1232,-22.2168
121.2043,-22.2710
121.3000,-22.2900
122.0000,-22.2900
122.0957,-22.2710
122.1768,-22.2168
122.2310,-22.1357
122.2500,-22.0400
Z" /> 
<path style="fill:#000000; fill-opacity:1.0000; 
stroke:#000000; stroke-width:0.0000; stroke-opacity:1; 
stroke-linecap:round; stroke-linejoin:round;fill-rule:evenodd;"
d="M 120.2500,-21.1400
120.2310,-21.0443
120.1768,-20.9632
120.0957,-20.9090
120.0000,-20.8900
119.3000,-20.8900
119.2043,-20.9090
119.1232,-20.9632
119.0690,-21.0443
119.0500,-21.1400
119.0500,-22.0400
119.0690,-22.1357
119.1232,-22.2168
119.2043,-22.2710
119.3000,-22.2900
120.0000,-22.2900
120.0957,-22.2710
120.1768,-22.2168
120.2310,-22.1357
120.2500,-22.0400
Z" /> 
</g>
<g >
</g>
<g style="fill:#000000; fill-opacity:1.0000; 
stroke:#000000; stroke-width:0.0000; stroke-opacity:1; 
stroke-linecap:round; stroke-linejoin:round;">
<path style="fill:#000000; fill-opacity:1.0000; 
stroke:#000000; stroke-width:0.0000; stroke-opacity:1; 
stroke-linecap:round; stroke-linejoin:round;fill-rule:evenodd;"
d="M 92.2600,-24.8000
92.1643,-24.8190
92.0832,-24.8732
92.0290,-24.9543
92.0100,-25.0500
92.0100,-25.7500
92.0290,-25.8457
92.0832,-25.9268
92.1643,-25.9810
92.2600,-26.0000
93.1600,-26.0000
93.2557,-25.9810
93.3368,-25.9268
93.3910,-25.8457
93.4100,-25.7500
93.4100,-25.0500
93.3910,-24.9543
93.3368,-24.8732
93.2557,-24.8190
93.1600,-24.8000
Z" /> 
<path style="fill:#000000; fill-opacity:1.0000; 
stroke:#000000; stroke-width:0.0000; stroke-opacity:1; 
stroke-linecap:round; stroke-linejoin:round;fill-rule:evenodd;"
d="M 92.2600,-26.8000
92.1643,-26.8190
92.0832,-26.8732
92.0290,-26.9543
92.0100,-27.0500
92.0100,-27.7500
92.0290,-27.8457
92.0832,-27.9268
92.1643,-27.9810
92.2600,-28.0000
93.1600,-28.0000
93.2557,-27.9810
93.3368,-27.9268
93.3910,-27.8457
93.4100,-27.7500
93.4100,-27.0500
93.3910,-26.9543
93.3368,-26.8732
93.2557,-26.8190
93.1600,-26.8000
Z" /> 
</g>
<g >
</g>
<g >
</g>
<g style="fill:#000000; fill-opacity:1.0000; 
stroke:#000000; stroke-width:0.0000; stroke-opacity:1; 
stroke-linecap:round; stroke-linejoin:round;">
<path style="fill:#000000; fill-opacity:1.0000; 
stroke:#000000; stroke-width:0.0000; stroke-opacity:1; 
stroke-linecap:round; stroke-linejoin:round;fill-rule:evenodd;"
d="M 79.8590,-25.1080
79.8704,-25.1654
79.9029,-25.2141
79.9516,-25.2466
80.0090,-25.2580
81.1840,-25.2580
81.2414,-25.2466
81.2901,-25.2141
81.3226,-25.1654
81.3340,-25.1080
81.3340,-24.8080
81.3226,-24.7506
81.2901,-24.7019
81.2414,-24.6694
81.1840,-24.6580
80.0090,-24.6580
79.9516,-24.6694
79.9029,-24.7019
79.8704,-24.7506
79.8590,-24.8080
Z" /> 
<path style="fill:#000000; fill-opacity:1.0000; 
stroke:#000000; stroke-width:0.0000; stroke-opacity:1; 
stroke-linecap:round; stroke-linejoin:round;fill-rule:evenodd;"
d="M 79.8590,-27.0080
79.8704,-27.0654
79.9029,-27.1141
79.9516,-27.1466
80.0090,-27.1580
81.1840,-27.1580
81.2414,-27.1466
81.2901,-27.1141
81.3226,-27.0654
81.3340,-27.0080
81.3340,-26.7080
81.3226,-26.6506
81.2901,-26.6019
81.2414,-26.5694
81.1840,-26.5580
80.0090,-26.5580
79.9516,-26.5694
79.9029,-26.6019
79.8704,-26.6506
79.8590,-26.7080
Z" /> 
<path style="fill:#000000; fill-opacity:1.0000; 
stroke:#000000; stroke-width:0.0000; stroke-opacity:1; 
stroke-linecap:round; stroke-linejoin:round;fill-rule:evenodd;"
d="M 81.7340,-26.0580
81.7454,-26.1154
81.7779,-26.1641
81.8266,-26.1966
81.8840,-26.2080
83.0590,-26.2080
83.1164,-26.1966
83.1651,-26.1641
83.1976,-26.1154
83.2090,-26.0580
83.2090,-25.7580
83.1976,-25.7006
83.1651,-25.6519
83.1164,-25.6194
83.0590,-25.6080
81.8840,-25.6080
81.8266,-25.6194
81.7779,-25.6519
81.7454,-25.7006
81.7340,-25.7580
Z" /> 
</g>
<g >
</g>
<g >
</g>
<g style="fill:#000000; fill-opacity:1.0000; 
stroke:#000000; stroke-width:0.0000; stroke-opacity:1; 
stroke-linecap:round; stroke-linejoin:round;">
<path style="fill:#000000; fill-opacity:1.0000; 
stroke:#000000; stroke-width:0.0000; stroke-opacity:1; 
stroke-linecap:round; stroke-linejoin:round;fill-rule:evenodd;"
d="M 104.7500,-13.9000
104.7500,-14.8000
106.2500,-14.8000
106.2500,-13.9000
Z" /> 
<path style="fill:#000000; fill-opacity:1.0000; 
stroke:#000000; stroke-width:0.0000; stroke-opacity:1; 
stroke-linecap:round; stroke-linejoin:round;fill-rule:evenodd;"
d="M 104.7500,-10.6000
104.7500,-11.5000
106.2500,-11.5000
106.2500,-10.6000
Z" /> 
<path style="fill:#000000; fill-opacity:1.0000; 
stroke:#000000; stroke-width:0.0000; stroke-opacity:1; 
stroke-linecap:round; stroke-linejoin:round;fill-rule:evenodd;"
d="M 109.6500,-10.6000
109.6500,-11.5000
111.1500,-11.5000
111.1500,-10.6000
Z" /> 
<path style="fill:#000000; fill-opacity:1.0000; 
stroke:#000000; stroke-width:0.0000; stroke-opacity:1; 
stroke-linecap:round; stroke-linejoin:round;fill-rule:evenodd;"
d="M 109.6500,-13.9000
109.6500,-14.8000
111.1500,-14.8000
111.1500,-13.9000
Z" /> 
</g>
<g >
</g>
<g >
</g>
<g >
</g>
<g >
</g>
<g style="fill:#000000; fill-opacity:1.0000; 
stroke:#000000; stroke-width:0.0000; stroke-opacity:1; 
stroke-linecap:round; stroke-linejoin:round;">
<path style="fill:#000000; fill-opacity:1.0000; 
stroke:#000000; stroke-width:0.0000; stroke-opacity:1; 
stroke-linecap:round; stroke-linejoin:round;fill-rule:evenodd;"
d="M 62.9800,-58.5450
62.9800,-56.5150
61.4800,-56.5150
61.4800,-58.5450
Z" /> 
<path style="fill:#000000; fill-opacity:1.0000; 
stroke:#000000; stroke-width:0.0000; stroke-opacity:1; 
stroke-linecap:round; stroke-linejoin:round;fill-rule:evenodd;"
d="M 57.9000,-58.5450
57.9000,-56.5150
56.4000,-56.5150
56.4000,-58.5450
Z" /> 
<path style="fill:#000000; fill-opacity:1.0000; 
stroke:#000000; stroke-width:0.0000; stroke-opacity:1; 
stroke-linecap:round; stroke-linejoin:round;fill-rule:evenodd;"
d="M 52.8200,-58.5450
52.8200,-56.5150
51.3200,-56.5150
51.3200,-58.5450
Z" /> 
<path style="fill:#000000; fill-opacity:1.0000; 
stroke:#000000; stroke-width:0.0000; stroke-opacity:1; 
stroke-linecap:round; stroke-linejoin:round;fill-rule:evenodd;"
d="M 40.1200,-58.5450
40.1200,-56.5150
38.6200,-56.5150
38.6200,-58.5450
Z" /> 
<path style="fill:#000000; fill-opacity:1.0000; 
stroke:#000000; stroke-width:0.0000; stroke-opacity:1; 
stroke-linecap:round; stroke-linejoin:round;fill-rule:evenodd;"
d="M 37.5800,-58.5450
37.5800,-56.5150
36.0800,-56.5150
36.0800,-58.5450
Z" /> 
<path style="fill:#000000; fill-opacity:1.0000; 
stroke:#000000; stroke-width:0.0000; stroke-opacity:1; 
stroke-linecap:round; stroke-linejoin:round;fill-rule:evenodd;"
d="M 35.0400,-58.5450
35.0400,-56.5150
33.5400,-56.5150
33.5400,-58.5450
Z" /> 
<path style="fill:#000000; fill-opacity:1.0000; 
stroke:#000000; stroke-width:0.0000; stroke-opacity:1; 
stroke-linecap:round; stroke-linejoin:round;fill-rule:evenodd;"
d="M 32.5000,-58.5450
32.5000,-56.5150
31.0000,-56.5150
31.0000,-58.5450
Z" /> 
<path style="fill:#000000; fill-opacity:1.0000; 
stroke:#000000; stroke-width:0.0000; stroke-opacity:1; 
stroke-linecap:round; stroke-linejoin:round;fill-rule:evenodd;"
d="M 32.5000,-29.8450
32.5000,-27.8150
31.0000,-27.8150
31.0000,-29.8450
Z" /> 
<path style="fill:#000000; fill-opacity:1.0000; 
stroke:#000000; stroke-width:0.0000; stroke-opacity:1; 
stroke-linecap:round; stroke-linejoin:round;fill-rule:evenodd;"
d="M 35.0400,-29.8450
35.0400,-27.8150
33.5400,-27.8150
33.5400,-29.8450
Z" /> 
<path style="fill:#000000; fill-opacity:1.0000; 
stroke:#000000; stroke-width:0.0000; stroke-opacity:1; 
stroke-linecap:round; stroke-linejoin:round;fill-rule:evenodd;"
d="M 37.5800,-29.8450
37.5800,-27.8150
36.0800,-27.8150
36.0800,-29.8450
Z" /> 
<path style="fill:#000000; fill-opacity:1.0000; 
stroke:#000000; stroke-width:0.0000; stroke-opacity:1; 
stroke-linecap:round; stroke-linejoin:round;fill-rule:evenodd;"
d="M 40.1200,-29.8450
40.1200,-27.8150
38.6200,-27.8150
38.6200,-29.8450
Z" /> 
<path style="fill:#000000; fill-opacity:1.0000; 
stroke:#000000; stroke-width:0.0000; stroke-opacity:1; 
stroke-linecap:round; stroke-linejoin:round;fill-rule:evenodd;"
d="M 52.8200,-29.8450
52.8200,-27.8150
51.3200,-27.8150
51.3200,-29.8450
Z" /> 
<path style="fill:#000000; fill-opacity:1.0000; 
stroke:#000000; stroke-width:0.0000; stroke-opacity:1; 
stroke-linecap:round; stroke-linejoin:round;fill-rule:evenodd;"
d="M 57.9000,-29.8450
57.9000,-27.8150
56.4000,-27.8150
56.4000,-29.8450
Z" /> 
<path style="fill:#000000; fill-opacity:1.0000; 
stroke:#000000; stroke-width:0.0000; stroke-opacity:1; 
stroke-linecap:round; stroke-linejoin:round;fill-rule:evenodd;"
d="M 62.9800,-29.8450
62.9800,-27.8150
61.4800,-27.8150
61.4800,-29.8450
Z" /> 
</g>
<g >
</g>
<g >
</g>
<g style="fill:#000000; fill-opacity:1.0000; 
stroke:#000000; stroke-width:0.0000; stroke-opacity:1; 
stroke-linecap:round; stroke-linejoin:round;">
<path style="fill:#000000; fill-opacity:1.0000; 
stroke:#000000; stroke-width:0.0000; stroke-opacity:1; 
stroke-linecap:round; stroke-linejoin:round;fill-rule:evenodd;"
d="M 94.4300,-23.1900
94.5257,-23.1710
94.6068,-23.1168
94.6610,-23.0357
94.6800,-22.9400
94.6800,-22.2400
94.6610,-22.1443
94.6068,-22.0632
94.5257,-22.0090
94.4300,-21.9900
93.5300,-21.9900
93.4343,-22.0090
93.3532,-22.0632
93.2990,-22.1443
93.2800,-22.2400
93.2800,-22.9400
93.2990,-23.0357
93.3532,-23.1168
93.4343,-23.1710
93.5300,-23.1900
Z" /> 
<path style="fill:#000000; fill-opacity:1.0000; 
stroke:#000000; stroke-width:0.0000; stroke-opacity:1; 
stroke-linecap:round; stroke-linejoin:round;fill-rule:evenodd;"
d="M 94.4300,-21.1900
94.5257,-21.1710
94.6068,-21.1168
94.6610,-21.0357
94.6800,-20.9400
94.6800,-20.2400
94.6610,-20.1443
94.6068,-20.0632
94.5257,-20.0090
94.4300,-19.9900
93.5300,-19.9900
93.4343,-20.0090
93.3532,-20.0632
93.2990,-20.1443
93.2800,-20.2400
93.2800,-20.9400
93.2990,-21.0357
93.3532,-21.1168
93.4343,-21.1710
93.5300,-21.1900
Z" /> 
</g>
<g >
</g>
<g style="fill:#000000; fill-opacity:1.0000; 
stroke:#000000; stroke-width:0.0000; stroke-opacity:1; 
stroke-linecap:round; stroke-linejoin:round;">
<path style="fill:#000000; fill-opacity:1.0000; 
stroke:#000000; stroke-width:0.0000; stroke-opacity:1; 
stroke-linecap:round; stroke-linejoin:round;fill-rule:evenodd;"
d="M 96.9700,-23.1900
97.0657,-23.1710
97.1468,-23.1168
97.2010,-23.0357
97.2200,-22.9400
97.2200,-22.2400
97.2010,-22.1443
97.1468,-22.0632
97.0657,-22.0090
96.9700,-21.9900
96.0700,-21.9900
95.9743,-22.0090
95.8932,-22.0632
95.8390,-22.1443
95.8200,-22.2400
95.8200,-22.9400
95.8390,-23.0357
95.8932,-23.1168
95.9743,-23.1710
96.0700,-23.1900
Z" /> 
<path style="fill:#000000; fill-opacity:1.0000; 
stroke:#000000; stroke-width:0.0000; stroke-opacity:1; 
stroke-linecap:round; stroke-linejoin:round;fill-rule:evenodd;"
d="M 96.9700,-21.1900
97.0657,-21.1710
97.1468,-21.1168
97.2010,-21.0357
97.2200,-20.9400
97.2200,-20.2400
97.2010,-20.1443
97.1468,-20.0632
97.0657,-20.0090
96.9700,-19.9900
96.0700,-19.9900
95.9743,-20.0090
95.8932,-20.0632
95.8390,-20.1443
95.8200,-20.2400
95.8200,-20.9400
95.8390,-21.0357
95.8932,-21.1168
95.9743,-21.1710
96.0700,-21.1900
Z" /> 
</g>
<g >
</g>
<g >
</g>
<g >
</g>
<g >
</g>
<g >
</g>
<g style="fill:#000000; fill-opacity:1.0000; 
stroke:#000000; stroke-width:0.0000; stroke-opacity:1; 
stroke-linecap:round; stroke-linejoin:round;">
<path style="fill:#000000; fill-opacity:1.0000; 
stroke:#000000; stroke-width:0.0000; stroke-opacity:1; 
stroke-linecap:round; stroke-linejoin:round;fill-rule:evenodd;"
d="M 4.8840,-34.2140
4.7883,-34.2330
4.7072,-34.2872
4.6530,-34.3683
4.6340,-34.4640
4.6340,-35.1640
4.6530,-35.2597
4.7072,-35.3408
4.7883,-35.3950
4.8840,-35.4140
5.7840,-35.4140
5.8797,-35.3950
5.9608,-35.3408
6.0150,-35.2597
6.0340,-35.1640
6.0340,-34.4640
6.0150,-34.3683
5.9608,-34.2872
5.8797,-34.2330
5.7840,-34.2140
Z" /> 
<path style="fill:#000000; fill-opacity:1.0000; 
stroke:#000000; stroke-width:0.0000; stroke-opacity:1; 
stroke-linecap:round; stroke-linejoin:round;fill-rule:evenodd;"
d="M 4.8840,-36.2140
4.7883,-36.2330
4.7072,-36.2872
4.6530,-36.3683
4.6340,-36.4640
4.6340,-37.1640
4.6530,-37.2597
4.7072,-37.3408
4.7883,-37.3950
4.8840,-37.4140
5.7840,-37.4140
5.8797,-37.3950
5.9608,-37.3408
6.0150,-37.2597
6.0340,-37.1640
6.0340,-36.4640
6.0150,-36.3683
5.9608,-36.2872
5.8797,-36.2330
5.7840,-36.2140
Z" /> 
</g>
<g >
</g>
<g >
</g>
<g style="fill:#000000; fill-opacity:1.0000; 
stroke:#000000; stroke-width:0.0000; stroke-opacity:1; 
stroke-linecap:round; stroke-linejoin:round;">
<path style="fill:#000000; fill-opacity:1.0000; 
stroke:#000000; stroke-width:0.0000; stroke-opacity:1; 
stroke-linecap:round; stroke-linejoin:round;fill-rule:evenodd;"
d="M 16.3580,-13.9000
16.3580,-14.8000
17.8580,-14.8000
17.8580,-13.9000
Z" /> 
<path style="fill:#000000; fill-opacity:1.0000; 
stroke:#000000; stroke-width:0.0000; stroke-opacity:1; 
stroke-linecap:round; stroke-linejoin:round;fill-rule:evenodd;"
d="M 16.3580,-10.6000
16.3580,-11.5000
17.8580,-11.5000
17.8580,-10.6000
Z" /> 
<path style="fill:#000000; fill-opacity:1.0000; 
stroke:#000000; stroke-width:0.0000; stroke-opacity:1; 
stroke-linecap:round; stroke-linejoin:round;fill-rule:evenodd;"
d="M 21.2580,-10.6000
21.2580,-11.5000
22.7580,-11.5000
22.7580,-10.6000
Z" /> 
<path style="fill:#000000; fill-opacity:1.0000; 
stroke:#000000; stroke-width:0.0000; stroke-opacity:1; 
stroke-linecap:round; stroke-linejoin:round;fill-rule:evenodd;"
d="M 21.2580,-13.9000
21.2580,-14.8000
22.7580,-14.8000
22.7580,-13.9000
Z" /> 
</g>
<g >
</g>
<g style="fill:#000000; fill-opacity:1.0000; 
stroke:#000000; stroke-width:0.0000; stroke-opacity:1; 
stroke-linecap:round; stroke-linejoin:round;">
<path style="fill:#000000; fill-opacity:1.0000; 
stroke:#000000; stroke-width:0.0000; stroke-opacity:1; 
stroke-linecap:round; stroke-linejoin:round;fill-rule:evenodd;"
d="M 19.3900,-43.1540
19.3900,-41.6540
17.3900,-41.6540
17.3900,-43.1540
Z" /> 
<path style="fill:#000000; fill-opacity:1.0000; 
stroke:#000000; stroke-width:0.0000; stroke-opacity:1; 
stroke-linecap:round; stroke-linejoin:round;fill-rule:evenodd;"
d="M 19.3900,-45.4540
19.3900,-43.9540
17.3900,-43.9540
17.3900,-45.4540
Z" /> 
<path style="fill:#000000; fill-opacity:1.0000; 
stroke:#000000; stroke-width:0.0000; stroke-opacity:1; 
stroke-linecap:round; stroke-linejoin:round;fill-rule:evenodd;"
d="M 13.0900,-46.6040
13.0900,-42.8040
11.0900,-42.8040
11.0900,-46.6040
Z" /> 
<path style="fill:#000000; fill-opacity:1.0000; 
stroke:#000000; stroke-width:0.0000; stroke-opacity:1; 
stroke-linecap:round; stroke-linejoin:round;fill-rule:evenodd;"
d="M 19.3900,-47.7540
19.3900,-46.2540
17.3900,-46.2540
17.3900,-47.7540
Z" /> 
</g>
<g >
</g>
<g style="fill:#000000; fill-opacity:1.0000; 
stroke:#000000; stroke-width:0.0000; stroke-opacity:1; 
stroke-linecap:round; stroke-linejoin:round;">
<path style="fill:#000000; fill-opacity:1.0000; 
stroke:#000000; stroke-width:0.0000; stroke-opacity:1; 
stroke-linecap:round; stroke-linejoin:round;fill-rule:evenodd;"
d="M 9.3255,-35.0140
9.3369,-35.0714
9.3694,-35.1201
9.4181,-35.1526
9.4755,-35.1640
10.6505,-35.1640
10.7079,-35.1526
10.7566,-35.1201
10.7891,-35.0714
10.8005,-35.0140
10.8005,-34.7140
10.7891,-34.6566
10.7566,-34.6079
10.7079,-34.5754
10.6505,-34.5640
9.4755,-34.5640
9.4181,-34.5754
9.3694,-34.6079
9.3369,-34.6566
9.3255,-34.7140
Z" /> 
<path style="fill:#000000; fill-opacity:1.0000; 
stroke:#000000; stroke-width:0.0000; stroke-opacity:1; 
stroke-linecap:round; stroke-linejoin:round;fill-rule:evenodd;"
d="M 9.3255,-36.9140
9.3369,-36.9714
9.3694,-37.0201
9.4181,-37.0526
9.4755,-37.0640
10.6505,-37.0640
10.7079,-37.0526
10.7566,-37.0201
10.7891,-36.9714
10.8005,-36.9140
10.8005,-36.6140
10.7891,-36.5566
10.7566,-36.5079
10.7079,-36.4754
10.6505,-36.4640
9.4755,-36.4640
9.4181,-36.4754
9.3694,-36.5079
9.3369,-36.5566
9.3255,-36.6140
Z" /> 
<path style="fill:#000000; fill-opacity:1.0000; 
stroke:#000000; stroke-width:0.0000; stroke-opacity:1; 
stroke-linecap:round; stroke-linejoin:round;fill-rule:evenodd;"
d="M 11.2005,-35.9640
11.2119,-36.0214
11.2444,-36.0701
11.2931,-36.1026
11.3505,-36.1140
12.5255,-36.1140
12.5829,-36.1026
12.6316,-36.0701
12.6641,-36.0214
12.6755,-35.9640
12.6755,-35.6640
12.6641,-35.6066
12.6316,-35.5579
12.5829,-35.5254
12.5255,-35.5140
11.3505,-35.5140
11.2931,-35.5254
11.2444,-35.5579
11.2119,-35.6066
11.2005,-35.6640
Z" /> 
</g>
<g >
</g>
<g >
</g>
<g >
</g>
<g >
</g>
</g> 
</svg>
