<?xml version="1.0" standalone="no"?>
 <!DOCTYPE svg PUBLIC "-//W3C//DTD SVG 1.1//EN" 
 "http://www.w3.org/Graphics/SVG/1.1/DTD/svg11.dtd"> 
<svg
  xmlns:svg="http://www.w3.org/2000/svg"
  xmlns="http://www.w3.org/2000/svg"
  xmlns:xlink="http://www.w3.org/1999/xlink"
  version="1.1"
  width="297.0022mm" height="210.0072mm" viewBox="0.0000 0.0000 297.0022 210.0072">
<title>SVG Image created as bouilloire_pcb-F_Silkscreen.svg date 2023/11/26 16:44:29 </title>
  <desc>Image generated by PCBNEW </desc>
<g style="fill:#000000; fill-opacity:1.0000;stroke:#000000; stroke-opacity:1.0000;
stroke-linecap:round; stroke-linejoin:round;"
 transform="translate(0 0) scale(1 1)">
</g>
<g style="fill:#000000; fill-opacity:0.0; 
stroke:#000000; stroke-width:0.0000; stroke-opacity:1; 
stroke-linecap:round; stroke-linejoin:round;">
</g>
<g style="fill:#000000; fill-opacity:0.0; 
stroke:#000000; stroke-width:0.1500; stroke-opacity:1; 
stroke-linecap:round; stroke-linejoin:round;">
<g transform="rotate(-270.000000 36.1950 -27.3050)">
<text x="36.1950" y="-27.3050"
textLength="4.2500" font-size="1.3333" lengthAdjust="spacingAndGlyphs"
text-anchor="start" opacity="0">+12V</text>
</g>
<g class="stroked-text"><desc>+12V</desc>
<path d="M36.7061 -26.9682
L36.7061 -26.2063
" />
<path d="M36.3252 -26.5873
L37.0871 -26.5873
" />
<path d="M36.3252 -25.2063
L36.3252 -25.7777
" />
<path d="M36.3252 -25.4920
L37.3252 -25.4920
" />
<path d="M37.3252 -25.4920
L37.1823 -25.5873
" />
<path d="M37.1823 -25.5873
L37.0871 -25.6825
" />
<path d="M37.0871 -25.6825
L37.0395 -25.7777
" />
<path d="M37.2299 -24.8254
L37.2776 -24.7777
" />
<path d="M37.2776 -24.7777
L37.3252 -24.6825
" />
<path d="M37.3252 -24.6825
L37.3252 -24.4444
" />
<path d="M37.3252 -24.4444
L37.2776 -24.3492
" />
<path d="M37.2776 -24.3492
L37.2299 -24.3016
" />
<path d="M37.2299 -24.3016
L37.1347 -24.2539
" />
<path d="M37.1347 -24.2539
L37.0395 -24.2539
" />
<path d="M37.0395 -24.2539
L36.8966 -24.3016
" />
<path d="M36.8966 -24.3016
L36.3252 -24.8730
" />
<path d="M36.3252 -24.8730
L36.3252 -24.2539
" />
<path d="M37.3252 -23.9682
L36.3252 -23.6349
" />
<path d="M36.3252 -23.6349
L37.3252 -23.3016
" />
</g><g transform="rotate(90.000000 31.1150 -27.3050)">
<text x="31.1150" y="-27.3050"
textLength="3.2976" font-size="1.3333" lengthAdjust="spacingAndGlyphs"
text-anchor="start" opacity="0">GND</text>
</g>
<g class="stroked-text"><desc>GND</desc>
<path d="M32.1976 -26.4444
L32.2452 -26.5396
" />
<path d="M32.2452 -26.5396
L32.2452 -26.6825
" />
<path d="M32.2452 -26.6825
L32.1976 -26.8254
" />
<path d="M32.1976 -26.8254
L32.1023 -26.9206
" />
<path d="M32.1023 -26.9206
L32.0071 -26.9682
" />
<path d="M32.0071 -26.9682
L31.8166 -27.0158
" />
<path d="M31.8166 -27.0158
L31.6738 -27.0158
" />
<path d="M31.6738 -27.0158
L31.4833 -26.9682
" />
<path d="M31.4833 -26.9682
L31.3880 -26.9206
" />
<path d="M31.3880 -26.9206
L31.2928 -26.8254
" />
<path d="M31.2928 -26.8254
L31.2452 -26.6825
" />
<path d="M31.2452 -26.6825
L31.2452 -26.5873
" />
<path d="M31.2452 -26.5873
L31.2928 -26.4444
" />
<path d="M31.2928 -26.4444
L31.3404 -26.3968
" />
<path d="M31.3404 -26.3968
L31.6738 -26.3968
" />
<path d="M31.6738 -26.3968
L31.6738 -26.5873
" />
<path d="M31.2452 -25.9682
L32.2452 -25.9682
" />
<path d="M32.2452 -25.9682
L31.2452 -25.3968
" />
<path d="M31.2452 -25.3968
L32.2452 -25.3968
" />
<path d="M31.2452 -24.9206
L32.2452 -24.9206
" />
<path d="M32.2452 -24.9206
L32.2452 -24.6825
" />
<path d="M32.2452 -24.6825
L32.1976 -24.5396
" />
<path d="M32.1976 -24.5396
L32.1023 -24.4444
" />
<path d="M32.1023 -24.4444
L32.0071 -24.3968
" />
<path d="M32.0071 -24.3968
L31.8166 -24.3492
" />
<path d="M31.8166 -24.3492
L31.6738 -24.3492
" />
<path d="M31.6738 -24.3492
L31.4833 -24.3968
" />
<path d="M31.4833 -24.3968
L31.3880 -24.4444
" />
<path d="M31.3880 -24.4444
L31.2928 -24.5396
" />
<path d="M31.2928 -24.5396
L31.2452 -24.6825
" />
<path d="M31.2452 -24.6825
L31.2452 -24.9206
" />
</g></g>
<g style="fill:#000000; fill-opacity:0.0; 
stroke:#000000; stroke-width:0.2000; stroke-opacity:1; 
stroke-linecap:round; stroke-linejoin:round;">
<path style="fill:#000000; fill-opacity:0.0; 
stroke:#000000; stroke-width:0.2000; stroke-opacity:1; 
stroke-linecap:round; stroke-linejoin:round;fill:none"
d="M 53.9750,-59.0550
65.4050,-59.0550
65.4050,-55.2450
53.9750,-55.2450
Z" /> 
</g>
<g style="fill:#000000; fill-opacity:0.0; 
stroke:#000000; stroke-width:0.3000; stroke-opacity:1; 
stroke-linecap:round; stroke-linejoin:round;">
<text x="53.9750" y="-56.5150"
textLength="2.1714" font-size="2.0000" lengthAdjust="spacingAndGlyphs"
text-anchor="start" opacity="0">N</text>
<g class="stroked-text"><desc>N</desc>
<path d="M54.5295 -56.7142
L54.5295 -58.2142
" />
<path d="M54.5295 -58.2142
L55.3867 -56.7142
" />
<path d="M55.3867 -56.7142
L55.3867 -58.2142
" />
</g><text x="63.5000" y="-56.5150"
textLength="1.8143" font-size="2.0000" lengthAdjust="spacingAndGlyphs"
text-anchor="start" opacity="0">L</text>
<g class="stroked-text"><desc>L</desc>
<path d="M64.7688 -56.7142
L64.0545 -56.7142
" />
<path d="M64.0545 -56.7142
L64.0545 -58.2142
" />
</g></g>
<g style="fill:#000000; fill-opacity:0.0; 
stroke:#000000; stroke-width:0.1500; stroke-opacity:1; 
stroke-linecap:round; stroke-linejoin:round;">
<g transform="rotate(-90.000000 56.9200 -25.4000)">
<text x="56.9200" y="-24.9000"
textLength="1.9643" font-size="1.3333" lengthAdjust="spacingAndGlyphs"
text-anchor="middle" opacity="0">J1</text>
</g>
<g class="stroked-text"><desc>J1</desc>
<path d="M56.3748 -25.0667
L57.0891 -25.0667
" />
<path d="M57.0891 -25.0667
L57.2320 -25.0190
" />
<path d="M57.2320 -25.0190
L57.3272 -24.9238
" />
<path d="M57.3272 -24.9238
L57.3748 -24.7810
" />
<path d="M57.3748 -24.7810
L57.3748 -24.6857
" />
<path d="M57.3748 -26.0667
L57.3748 -25.4952
" />
<path d="M57.3748 -25.7810
L56.3748 -25.7810
" />
<path d="M56.3748 -25.7810
L56.5177 -25.6857
" />
<path d="M56.5177 -25.6857
L56.6129 -25.5905
" />
<path d="M56.6129 -25.5905
L56.6605 -25.4952
" />
</g><text x="120.6500" y="-19.4400"
textLength="2.2024" font-size="1.3333" lengthAdjust="spacingAndGlyphs"
text-anchor="middle" opacity="0">R3</text>
<g class="stroked-text"><desc>R3</desc>
<path d="M120.4833 -19.4852
L120.1500 -19.9614
" />
<path d="M119.9119 -19.4852
L119.9119 -20.4852
" />
<path d="M119.9119 -20.4852
L120.2929 -20.4852
" />
<path d="M120.2929 -20.4852
L120.3881 -20.4376
" />
<path d="M120.3881 -20.4376
L120.4357 -20.3899
" />
<path d="M120.4357 -20.3899
L120.4833 -20.2947
" />
<path d="M120.4833 -20.2947
L120.4833 -20.1518
" />
<path d="M120.4833 -20.1518
L120.4357 -20.0566
" />
<path d="M120.4357 -20.0566
L120.3881 -20.0090
" />
<path d="M120.3881 -20.0090
L120.2929 -19.9614
" />
<path d="M120.2929 -19.9614
L119.9119 -19.9614
" />
<path d="M120.8167 -20.4852
L121.4357 -20.4852
" />
<path d="M121.4357 -20.4852
L121.1024 -20.1042
" />
<path d="M121.1024 -20.1042
L121.2452 -20.1042
" />
<path d="M121.2452 -20.1042
L121.3405 -20.0566
" />
<path d="M121.3405 -20.0566
L121.3881 -20.0090
" />
<path d="M121.3881 -20.0090
L121.4357 -19.9138
" />
<path d="M121.4357 -19.9138
L121.4357 -19.6757
" />
<path d="M121.4357 -19.6757
L121.3881 -19.5804
" />
<path d="M121.3881 -19.5804
L121.3405 -19.5328
" />
<path d="M121.3405 -19.5328
L121.2452 -19.4852
" />
<path d="M121.2452 -19.4852
L120.9595 -19.4852
" />
<path d="M120.9595 -19.4852
L120.8643 -19.5328
" />
<path d="M120.8643 -19.5328
L120.8167 -19.5804
" />
</g><text x="120.6500" y="-22.9950"
textLength="4.1071" font-size="1.3333" lengthAdjust="spacingAndGlyphs"
text-anchor="middle" opacity="0">100K</text>
<g class="stroked-text"><desc>100K</desc>
<path d="M119.4833 -23.0402
L118.9119 -23.0402
" />
<path d="M119.1976 -23.0402
L119.1976 -24.0402
" />
<path d="M119.1976 -24.0402
L119.1024 -23.8973
" />
<path d="M119.1024 -23.8973
L119.0071 -23.8021
" />
<path d="M119.0071 -23.8021
L118.9119 -23.7545
" />
<path d="M120.1024 -24.0402
L120.1976 -24.0402
" />
<path d="M120.1976 -24.0402
L120.2929 -23.9926
" />
<path d="M120.2929 -23.9926
L120.3405 -23.9449
" />
<path d="M120.3405 -23.9449
L120.3881 -23.8497
" />
<path d="M120.3881 -23.8497
L120.4357 -23.6592
" />
<path d="M120.4357 -23.6592
L120.4357 -23.4211
" />
<path d="M120.4357 -23.4211
L120.3881 -23.2307
" />
<path d="M120.3881 -23.2307
L120.3405 -23.1354
" />
<path d="M120.3405 -23.1354
L120.2929 -23.0878
" />
<path d="M120.2929 -23.0878
L120.1976 -23.0402
" />
<path d="M120.1976 -23.0402
L120.1024 -23.0402
" />
<path d="M120.1024 -23.0402
L120.0071 -23.0878
" />
<path d="M120.0071 -23.0878
L119.9595 -23.1354
" />
<path d="M119.9595 -23.1354
L119.9119 -23.2307
" />
<path d="M119.9119 -23.2307
L119.8643 -23.4211
" />
<path d="M119.8643 -23.4211
L119.8643 -23.6592
" />
<path d="M119.8643 -23.6592
L119.9119 -23.8497
" />
<path d="M119.9119 -23.8497
L119.9595 -23.9449
" />
<path d="M119.9595 -23.9449
L120.0071 -23.9926
" />
<path d="M120.0071 -23.9926
L120.1024 -24.0402
" />
<path d="M121.0548 -24.0402
L121.1500 -24.0402
" />
<path d="M121.1500 -24.0402
L121.2452 -23.9926
" />
<path d="M121.2452 -23.9926
L121.2929 -23.9449
" />
<path d="M121.2929 -23.9449
L121.3405 -23.8497
" />
<path d="M121.3405 -23.8497
L121.3881 -23.6592
" />
<path d="M121.3881 -23.6592
L121.3881 -23.4211
" />
<path d="M121.3881 -23.4211
L121.3405 -23.2307
" />
<path d="M121.3405 -23.2307
L121.2929 -23.1354
" />
<path d="M121.2929 -23.1354
L121.2452 -23.0878
" />
<path d="M121.2452 -23.0878
L121.1500 -23.0402
" />
<path d="M121.1500 -23.0402
L121.0548 -23.0402
" />
<path d="M121.0548 -23.0402
L120.9595 -23.0878
" />
<path d="M120.9595 -23.0878
L120.9119 -23.1354
" />
<path d="M120.9119 -23.1354
L120.8643 -23.2307
" />
<path d="M120.8643 -23.2307
L120.8167 -23.4211
" />
<path d="M120.8167 -23.4211
L120.8167 -23.6592
" />
<path d="M120.8167 -23.6592
L120.8643 -23.8497
" />
<path d="M120.8643 -23.8497
L120.9119 -23.9449
" />
<path d="M120.9119 -23.9449
L120.9595 -23.9926
" />
<path d="M120.9595 -23.9926
L121.0548 -24.0402
" />
<path d="M121.8167 -23.0402
L121.8167 -24.0402
" />
<path d="M122.3881 -23.0402
L121.9595 -23.6116
" />
<path d="M122.3881 -24.0402
L121.8167 -23.4688
" />
</g><g transform="rotate(-90.000000 91.0600 -26.4000)">
<text x="91.0600" y="-25.9000"
textLength="2.2024" font-size="1.3333" lengthAdjust="spacingAndGlyphs"
text-anchor="middle" opacity="0">R2</text>
</g>
<g class="stroked-text"><desc>R2</desc>
<path d="M91.5148 -26.2333
L91.0386 -25.9000
" />
<path d="M91.5148 -25.6619
L90.5148 -25.6619
" />
<path d="M90.5148 -25.6619
L90.5148 -26.0429
" />
<path d="M90.5148 -26.0429
L90.5624 -26.1381
" />
<path d="M90.5624 -26.1381
L90.6101 -26.1857
" />
<path d="M90.6101 -26.1857
L90.7053 -26.2333
" />
<path d="M90.7053 -26.2333
L90.8482 -26.2333
" />
<path d="M90.8482 -26.2333
L90.9434 -26.1857
" />
<path d="M90.9434 -26.1857
L90.9910 -26.1381
" />
<path d="M90.9910 -26.1381
L91.0386 -26.0429
" />
<path d="M91.0386 -26.0429
L91.0386 -25.6619
" />
<path d="M90.6101 -26.6143
L90.5624 -26.6619
" />
<path d="M90.5624 -26.6619
L90.5148 -26.7571
" />
<path d="M90.5148 -26.7571
L90.5148 -26.9952
" />
<path d="M90.5148 -26.9952
L90.5624 -27.0905
" />
<path d="M90.5624 -27.0905
L90.6101 -27.1381
" />
<path d="M90.6101 -27.1381
L90.7053 -27.1857
" />
<path d="M90.7053 -27.1857
L90.8005 -27.1857
" />
<path d="M90.8005 -27.1857
L90.9434 -27.1381
" />
<path d="M90.9434 -27.1381
L91.5148 -26.5667
" />
<path d="M91.5148 -26.5667
L91.5148 -27.1857
" />
</g><text x="39.1600" y="-12.2500"
textLength="3.2976" font-size="1.3333" lengthAdjust="spacingAndGlyphs"
text-anchor="middle" opacity="0">SW2</text>
<g class="stroked-text"><desc>SW2</desc>
<path d="M37.8267 -12.3428
L37.9695 -12.2952
" />
<path d="M37.9695 -12.2952
L38.2076 -12.2952
" />
<path d="M38.2076 -12.2952
L38.3029 -12.3428
" />
<path d="M38.3029 -12.3428
L38.3505 -12.3904
" />
<path d="M38.3505 -12.3904
L38.3981 -12.4857
" />
<path d="M38.3981 -12.4857
L38.3981 -12.5809
" />
<path d="M38.3981 -12.5809
L38.3505 -12.6761
" />
<path d="M38.3505 -12.6761
L38.3029 -12.7238
" />
<path d="M38.3029 -12.7238
L38.2076 -12.7714
" />
<path d="M38.2076 -12.7714
L38.0171 -12.8190
" />
<path d="M38.0171 -12.8190
L37.9219 -12.8666
" />
<path d="M37.9219 -12.8666
L37.8743 -12.9142
" />
<path d="M37.8743 -12.9142
L37.8267 -13.0095
" />
<path d="M37.8267 -13.0095
L37.8267 -13.1047
" />
<path d="M37.8267 -13.1047
L37.8743 -13.1999
" />
<path d="M37.8743 -13.1999
L37.9219 -13.2476
" />
<path d="M37.9219 -13.2476
L38.0171 -13.2952
" />
<path d="M38.0171 -13.2952
L38.2552 -13.2952
" />
<path d="M38.2552 -13.2952
L38.3981 -13.2476
" />
<path d="M38.7314 -13.2952
L38.9695 -12.2952
" />
<path d="M38.9695 -12.2952
L39.1600 -13.0095
" />
<path d="M39.1600 -13.0095
L39.3505 -12.2952
" />
<path d="M39.3505 -12.2952
L39.5886 -13.2952
" />
<path d="M39.9219 -13.1999
L39.9695 -13.2476
" />
<path d="M39.9695 -13.2476
L40.0648 -13.2952
" />
<path d="M40.0648 -13.2952
L40.3029 -13.2952
" />
<path d="M40.3029 -13.2952
L40.3981 -13.2476
" />
<path d="M40.3981 -13.2476
L40.4457 -13.1999
" />
<path d="M40.4457 -13.1999
L40.4933 -13.1047
" />
<path d="M40.4933 -13.1047
L40.4933 -13.0095
" />
<path d="M40.4933 -13.0095
L40.4457 -12.8666
" />
<path d="M40.4457 -12.8666
L39.8743 -12.2952
" />
<path d="M39.8743 -12.2952
L40.4933 -12.2952
" />
</g><text x="81.5340" y="-27.8080"
textLength="2.2500" font-size="1.3333" lengthAdjust="spacingAndGlyphs"
text-anchor="middle" opacity="0">Q2</text>
<g class="stroked-text"><desc>Q2</desc>
<path d="M81.4388 -27.7579
L81.3435 -27.8056
" />
<path d="M81.3435 -27.8056
L81.2483 -27.9008
" />
<path d="M81.2483 -27.9008
L81.1054 -28.0437
" />
<path d="M81.1054 -28.0437
L81.0102 -28.0913
" />
<path d="M81.0102 -28.0913
L80.9150 -28.0913
" />
<path d="M80.9626 -27.8532
L80.8673 -27.9008
" />
<path d="M80.8673 -27.9008
L80.7721 -27.9960
" />
<path d="M80.7721 -27.9960
L80.7245 -28.1865
" />
<path d="M80.7245 -28.1865
L80.7245 -28.5198
" />
<path d="M80.7245 -28.5198
L80.7721 -28.7103
" />
<path d="M80.7721 -28.7103
L80.8673 -28.8056
" />
<path d="M80.8673 -28.8056
L80.9626 -28.8532
" />
<path d="M80.9626 -28.8532
L81.1530 -28.8532
" />
<path d="M81.1530 -28.8532
L81.2483 -28.8056
" />
<path d="M81.2483 -28.8056
L81.3435 -28.7103
" />
<path d="M81.3435 -28.7103
L81.3911 -28.5198
" />
<path d="M81.3911 -28.5198
L81.3911 -28.1865
" />
<path d="M81.3911 -28.1865
L81.3435 -27.9960
" />
<path d="M81.3435 -27.9960
L81.2483 -27.9008
" />
<path d="M81.2483 -27.9008
L81.1530 -27.8532
" />
<path d="M81.1530 -27.8532
L80.9626 -27.8532
" />
<path d="M81.7721 -28.7579
L81.8197 -28.8056
" />
<path d="M81.8197 -28.8056
L81.9150 -28.8532
" />
<path d="M81.9150 -28.8532
L82.1530 -28.8532
" />
<path d="M82.1530 -28.8532
L82.2483 -28.8056
" />
<path d="M82.2483 -28.8056
L82.2959 -28.7579
" />
<path d="M82.2959 -28.7579
L82.3435 -28.6627
" />
<path d="M82.3435 -28.6627
L82.3435 -28.5675
" />
<path d="M82.3435 -28.5675
L82.2959 -28.4246
" />
<path d="M82.2959 -28.4246
L81.7245 -27.8532
" />
<path d="M81.7245 -27.8532
L82.3435 -27.8532
" />
</g><text x="89.6450" y="-55.2850"
textLength="2.2024" font-size="1.3333" lengthAdjust="spacingAndGlyphs"
text-anchor="middle" opacity="0">K2</text>
<g class="stroked-text"><desc>K2</desc>
<path d="M88.9069 -55.3302
L88.9069 -56.3302
" />
<path d="M89.4783 -55.3302
L89.0498 -55.9016
" />
<path d="M89.4783 -56.3302
L88.9069 -55.7588
" />
<path d="M89.8593 -56.2349
L89.9069 -56.2826
" />
<path d="M89.9069 -56.2826
L90.0021 -56.3302
" />
<path d="M90.0021 -56.3302
L90.2402 -56.3302
" />
<path d="M90.2402 -56.3302
L90.3355 -56.2826
" />
<path d="M90.3355 -56.2826
L90.3831 -56.2349
" />
<path d="M90.3831 -56.2349
L90.4307 -56.1397
" />
<path d="M90.4307 -56.1397
L90.4307 -56.0445
" />
<path d="M90.4307 -56.0445
L90.3831 -55.9016
" />
<path d="M90.3831 -55.9016
L89.8117 -55.3302
" />
<path d="M89.8117 -55.3302
L90.4307 -55.3302
" />
</g><text x="102.8700" y="-12.2000"
textLength="2.2024" font-size="1.3333" lengthAdjust="spacingAndGlyphs"
text-anchor="middle" opacity="0">D2</text>
<g class="stroked-text"><desc>D2</desc>
<path d="M102.1319 -12.2452
L102.1319 -13.2452
" />
<path d="M102.1319 -13.2452
L102.3700 -13.2452
" />
<path d="M102.3700 -13.2452
L102.5129 -13.1976
" />
<path d="M102.5129 -13.1976
L102.6081 -13.1023
" />
<path d="M102.6081 -13.1023
L102.6557 -13.0071
" />
<path d="M102.6557 -13.0071
L102.7033 -12.8166
" />
<path d="M102.7033 -12.8166
L102.7033 -12.6738
" />
<path d="M102.7033 -12.6738
L102.6557 -12.4833
" />
<path d="M102.6557 -12.4833
L102.6081 -12.3880
" />
<path d="M102.6081 -12.3880
L102.5129 -12.2928
" />
<path d="M102.5129 -12.2928
L102.3700 -12.2452
" />
<path d="M102.3700 -12.2452
L102.1319 -12.2452
" />
<path d="M103.0843 -13.1499
L103.1319 -13.1976
" />
<path d="M103.1319 -13.1976
L103.2271 -13.2452
" />
<path d="M103.2271 -13.2452
L103.4652 -13.2452
" />
<path d="M103.4652 -13.2452
L103.5605 -13.1976
" />
<path d="M103.5605 -13.1976
L103.6081 -13.1499
" />
<path d="M103.6081 -13.1499
L103.6557 -13.0547
" />
<path d="M103.6557 -13.0547
L103.6557 -12.9595
" />
<path d="M103.6557 -12.9595
L103.6081 -12.8166
" />
<path d="M103.6081 -12.8166
L103.0367 -12.2452
" />
<path d="M103.0367 -12.2452
L103.6557 -12.2452
" />
</g><text x="103.8000" y="-13.8000"
textLength="1.2024" font-size="1.3333" lengthAdjust="spacingAndGlyphs"
text-anchor="middle" opacity="0">1</text>
<g class="stroked-text"><desc>1</desc>
<path d="M104.0857 -13.8452
L103.5143 -13.8452
" />
<path d="M103.8000 -13.8452
L103.8000 -14.8452
" />
<path d="M103.8000 -14.8452
L103.7048 -14.7023
" />
<path d="M103.7048 -14.7023
L103.6095 -14.6071
" />
<path d="M103.6095 -14.6071
L103.5143 -14.5595
" />
</g><text x="89.6450" y="-41.3150"
textLength="2.2024" font-size="1.3333" lengthAdjust="spacingAndGlyphs"
text-anchor="middle" opacity="0">K1</text>
<g class="stroked-text"><desc>K1</desc>
<path d="M88.9069 -41.3602
L88.9069 -42.3602
" />
<path d="M89.4783 -41.3602
L89.0498 -41.9316
" />
<path d="M89.4783 -42.3602
L88.9069 -41.7888
" />
<path d="M90.4307 -41.3602
L89.8593 -41.3602
" />
<path d="M90.1450 -41.3602
L90.1450 -42.3602
" />
<path d="M90.1450 -42.3602
L90.0498 -42.2173
" />
<path d="M90.0498 -42.2173
L89.9545 -42.1221
" />
<path d="M89.9545 -42.1221
L89.8593 -42.0745
" />
</g><text x="69.8500" y="-33.1550"
textLength="1.9643" font-size="1.3333" lengthAdjust="spacingAndGlyphs"
text-anchor="middle" opacity="0">J5</text>
<g class="stroked-text"><desc>J5</desc>
<path d="M69.5167 -34.2002
L69.5167 -33.4859
" />
<path d="M69.5167 -33.4859
L69.4690 -33.3430
" />
<path d="M69.4690 -33.3430
L69.3738 -33.2478
" />
<path d="M69.3738 -33.2478
L69.2310 -33.2002
" />
<path d="M69.2310 -33.2002
L69.1357 -33.2002
" />
<path d="M70.4690 -34.2002
L69.9929 -34.2002
" />
<path d="M69.9929 -34.2002
L69.9452 -33.7240
" />
<path d="M69.9452 -33.7240
L69.9929 -33.7716
" />
<path d="M69.9929 -33.7716
L70.0881 -33.8192
" />
<path d="M70.0881 -33.8192
L70.3262 -33.8192
" />
<path d="M70.3262 -33.8192
L70.4214 -33.7716
" />
<path d="M70.4214 -33.7716
L70.4690 -33.7240
" />
<path d="M70.4690 -33.7240
L70.5167 -33.6288
" />
<path d="M70.5167 -33.6288
L70.5167 -33.3907
" />
<path d="M70.5167 -33.3907
L70.4690 -33.2954
" />
<path d="M70.4690 -33.2954
L70.4214 -33.2478
" />
<path d="M70.4214 -33.2478
L70.3262 -33.2002
" />
<path d="M70.3262 -33.2002
L70.0881 -33.2002
" />
<path d="M70.0881 -33.2002
L69.9929 -33.2478
" />
<path d="M69.9929 -33.2478
L69.9452 -33.2954
" />
</g><text x="69.8500" y="-41.5100"
textLength="7.2614" font-size="1.0667" lengthAdjust="spacingAndGlyphs"
text-anchor="middle" opacity="0">RESISTOR A</text>
<g class="stroked-text"><desc>RESISTOR A</desc>
<path d="M67.0119 -41.5477
L66.7452 -41.9287
" />
<path d="M66.5548 -41.5477
L66.5548 -42.3477
" />
<path d="M66.5548 -42.3477
L66.8595 -42.3477
" />
<path d="M66.8595 -42.3477
L66.9357 -42.3096
" />
<path d="M66.9357 -42.3096
L66.9738 -42.2715
" />
<path d="M66.9738 -42.2715
L67.0119 -42.1953
" />
<path d="M67.0119 -42.1953
L67.0119 -42.0810
" />
<path d="M67.0119 -42.0810
L66.9738 -42.0048
" />
<path d="M66.9738 -42.0048
L66.9357 -41.9668
" />
<path d="M66.9357 -41.9668
L66.8595 -41.9287
" />
<path d="M66.8595 -41.9287
L66.5548 -41.9287
" />
<path d="M67.3548 -41.9668
L67.6214 -41.9668
" />
<path d="M67.7357 -41.5477
L67.3548 -41.5477
" />
<path d="M67.3548 -41.5477
L67.3548 -42.3477
" />
<path d="M67.3548 -42.3477
L67.7357 -42.3477
" />
<path d="M68.0405 -41.5858
L68.1548 -41.5477
" />
<path d="M68.1548 -41.5477
L68.3452 -41.5477
" />
<path d="M68.3452 -41.5477
L68.4214 -41.5858
" />
<path d="M68.4214 -41.5858
L68.4595 -41.6239
" />
<path d="M68.4595 -41.6239
L68.4976 -41.7001
" />
<path d="M68.4976 -41.7001
L68.4976 -41.7763
" />
<path d="M68.4976 -41.7763
L68.4595 -41.8525
" />
<path d="M68.4595 -41.8525
L68.4214 -41.8906
" />
<path d="M68.4214 -41.8906
L68.3452 -41.9287
" />
<path d="M68.3452 -41.9287
L68.1929 -41.9668
" />
<path d="M68.1929 -41.9668
L68.1167 -42.0048
" />
<path d="M68.1167 -42.0048
L68.0786 -42.0429
" />
<path d="M68.0786 -42.0429
L68.0405 -42.1191
" />
<path d="M68.0405 -42.1191
L68.0405 -42.1953
" />
<path d="M68.0405 -42.1953
L68.0786 -42.2715
" />
<path d="M68.0786 -42.2715
L68.1167 -42.3096
" />
<path d="M68.1167 -42.3096
L68.1929 -42.3477
" />
<path d="M68.1929 -42.3477
L68.3833 -42.3477
" />
<path d="M68.3833 -42.3477
L68.4976 -42.3096
" />
<path d="M68.8405 -41.5477
L68.8405 -42.3477
" />
<path d="M69.1833 -41.5858
L69.2976 -41.5477
" />
<path d="M69.2976 -41.5477
L69.4881 -41.5477
" />
<path d="M69.4881 -41.5477
L69.5643 -41.5858
" />
<path d="M69.5643 -41.5858
L69.6024 -41.6239
" />
<path d="M69.6024 -41.6239
L69.6405 -41.7001
" />
<path d="M69.6405 -41.7001
L69.6405 -41.7763
" />
<path d="M69.6405 -41.7763
L69.6024 -41.8525
" />
<path d="M69.6024 -41.8525
L69.5643 -41.8906
" />
<path d="M69.5643 -41.8906
L69.4881 -41.9287
" />
<path d="M69.4881 -41.9287
L69.3357 -41.9668
" />
<path d="M69.3357 -41.9668
L69.2595 -42.0048
" />
<path d="M69.2595 -42.0048
L69.2214 -42.0429
" />
<path d="M69.2214 -42.0429
L69.1833 -42.1191
" />
<path d="M69.1833 -42.1191
L69.1833 -42.1953
" />
<path d="M69.1833 -42.1953
L69.2214 -42.2715
" />
<path d="M69.2214 -42.2715
L69.2595 -42.3096
" />
<path d="M69.2595 -42.3096
L69.3357 -42.3477
" />
<path d="M69.3357 -42.3477
L69.5262 -42.3477
" />
<path d="M69.5262 -42.3477
L69.6405 -42.3096
" />
<path d="M69.8690 -42.3477
L70.3262 -42.3477
" />
<path d="M70.0976 -41.5477
L70.0976 -42.3477
" />
<path d="M70.7452 -42.3477
L70.8976 -42.3477
" />
<path d="M70.8976 -42.3477
L70.9738 -42.3096
" />
<path d="M70.9738 -42.3096
L71.0500 -42.2334
" />
<path d="M71.0500 -42.2334
L71.0881 -42.0810
" />
<path d="M71.0881 -42.0810
L71.0881 -41.8144
" />
<path d="M71.0881 -41.8144
L71.0500 -41.6620
" />
<path d="M71.0500 -41.6620
L70.9738 -41.5858
" />
<path d="M70.9738 -41.5858
L70.8976 -41.5477
" />
<path d="M70.8976 -41.5477
L70.7452 -41.5477
" />
<path d="M70.7452 -41.5477
L70.6690 -41.5858
" />
<path d="M70.6690 -41.5858
L70.5929 -41.6620
" />
<path d="M70.5929 -41.6620
L70.5548 -41.8144
" />
<path d="M70.5548 -41.8144
L70.5548 -42.0810
" />
<path d="M70.5548 -42.0810
L70.5929 -42.2334
" />
<path d="M70.5929 -42.2334
L70.6690 -42.3096
" />
<path d="M70.6690 -42.3096
L70.7452 -42.3477
" />
<path d="M71.8881 -41.5477
L71.6214 -41.9287
" />
<path d="M71.4310 -41.5477
L71.4310 -42.3477
" />
<path d="M71.4310 -42.3477
L71.7357 -42.3477
" />
<path d="M71.7357 -42.3477
L71.8119 -42.3096
" />
<path d="M71.8119 -42.3096
L71.8500 -42.2715
" />
<path d="M71.8500 -42.2715
L71.8881 -42.1953
" />
<path d="M71.8881 -42.1953
L71.8881 -42.0810
" />
<path d="M71.8881 -42.0810
L71.8500 -42.0048
" />
<path d="M71.8500 -42.0048
L71.8119 -41.9668
" />
<path d="M71.8119 -41.9668
L71.7357 -41.9287
" />
<path d="M71.7357 -41.9287
L71.4310 -41.9287
" />
<path d="M72.8024 -41.7763
L73.1833 -41.7763
" />
<path d="M72.7262 -41.5477
L72.9929 -42.3477
" />
<path d="M72.9929 -42.3477
L73.2595 -41.5477
" />
</g><text x="69.8500" y="-56.0150"
textLength="1.9643" font-size="1.3333" lengthAdjust="spacingAndGlyphs"
text-anchor="middle" opacity="0">J6</text>
<g class="stroked-text"><desc>J6</desc>
<path d="M69.5167 -57.0602
L69.5167 -56.3459
" />
<path d="M69.5167 -56.3459
L69.4690 -56.2030
" />
<path d="M69.4690 -56.2030
L69.3738 -56.1078
" />
<path d="M69.3738 -56.1078
L69.2310 -56.0602
" />
<path d="M69.2310 -56.0602
L69.1357 -56.0602
" />
<path d="M70.4214 -57.0602
L70.2310 -57.0602
" />
<path d="M70.2310 -57.0602
L70.1357 -57.0126
" />
<path d="M70.1357 -57.0126
L70.0881 -56.9649
" />
<path d="M70.0881 -56.9649
L69.9929 -56.8221
" />
<path d="M69.9929 -56.8221
L69.9452 -56.6316
" />
<path d="M69.9452 -56.6316
L69.9452 -56.2507
" />
<path d="M69.9452 -56.2507
L69.9929 -56.1554
" />
<path d="M69.9929 -56.1554
L70.0405 -56.1078
" />
<path d="M70.0405 -56.1078
L70.1357 -56.0602
" />
<path d="M70.1357 -56.0602
L70.3262 -56.0602
" />
<path d="M70.3262 -56.0602
L70.4214 -56.1078
" />
<path d="M70.4214 -56.1078
L70.4690 -56.1554
" />
<path d="M70.4690 -56.1554
L70.5167 -56.2507
" />
<path d="M70.5167 -56.2507
L70.5167 -56.4888
" />
<path d="M70.5167 -56.4888
L70.4690 -56.5840
" />
<path d="M70.4690 -56.5840
L70.4214 -56.6316
" />
<path d="M70.4214 -56.6316
L70.3262 -56.6792
" />
<path d="M70.3262 -56.6792
L70.1357 -56.6792
" />
<path d="M70.1357 -56.6792
L70.0405 -56.6316
" />
<path d="M70.0405 -56.6316
L69.9929 -56.5840
" />
<path d="M69.9929 -56.5840
L69.9452 -56.4888
" />
</g><text x="69.8500" y="-47.8600"
textLength="7.3757" font-size="1.0667" lengthAdjust="spacingAndGlyphs"
text-anchor="middle" opacity="0">RESISTOR B</text>
<g class="stroked-text"><desc>RESISTOR B</desc>
<path d="M66.9548 -47.8977
L66.6881 -48.2787
" />
<path d="M66.4976 -47.8977
L66.4976 -48.6977
" />
<path d="M66.4976 -48.6977
L66.8024 -48.6977
" />
<path d="M66.8024 -48.6977
L66.8786 -48.6596
" />
<path d="M66.8786 -48.6596
L66.9167 -48.6215
" />
<path d="M66.9167 -48.6215
L66.9548 -48.5453
" />
<path d="M66.9548 -48.5453
L66.9548 -48.4310
" />
<path d="M66.9548 -48.4310
L66.9167 -48.3548
" />
<path d="M66.9167 -48.3548
L66.8786 -48.3168
" />
<path d="M66.8786 -48.3168
L66.8024 -48.2787
" />
<path d="M66.8024 -48.2787
L66.4976 -48.2787
" />
<path d="M67.2976 -48.3168
L67.5643 -48.3168
" />
<path d="M67.6786 -47.8977
L67.2976 -47.8977
" />
<path d="M67.2976 -47.8977
L67.2976 -48.6977
" />
<path d="M67.2976 -48.6977
L67.6786 -48.6977
" />
<path d="M67.9833 -47.9358
L68.0976 -47.8977
" />
<path d="M68.0976 -47.8977
L68.2881 -47.8977
" />
<path d="M68.2881 -47.8977
L68.3643 -47.9358
" />
<path d="M68.3643 -47.9358
L68.4024 -47.9739
" />
<path d="M68.4024 -47.9739
L68.4405 -48.0501
" />
<path d="M68.4405 -48.0501
L68.4405 -48.1263
" />
<path d="M68.4405 -48.1263
L68.4024 -48.2025
" />
<path d="M68.4024 -48.2025
L68.3643 -48.2406
" />
<path d="M68.3643 -48.2406
L68.2881 -48.2787
" />
<path d="M68.2881 -48.2787
L68.1357 -48.3168
" />
<path d="M68.1357 -48.3168
L68.0595 -48.3548
" />
<path d="M68.0595 -48.3548
L68.0214 -48.3929
" />
<path d="M68.0214 -48.3929
L67.9833 -48.4691
" />
<path d="M67.9833 -48.4691
L67.9833 -48.5453
" />
<path d="M67.9833 -48.5453
L68.0214 -48.6215
" />
<path d="M68.0214 -48.6215
L68.0595 -48.6596
" />
<path d="M68.0595 -48.6596
L68.1357 -48.6977
" />
<path d="M68.1357 -48.6977
L68.3262 -48.6977
" />
<path d="M68.3262 -48.6977
L68.4405 -48.6596
" />
<path d="M68.7833 -47.8977
L68.7833 -48.6977
" />
<path d="M69.1262 -47.9358
L69.2405 -47.8977
" />
<path d="M69.2405 -47.8977
L69.4310 -47.8977
" />
<path d="M69.4310 -47.8977
L69.5071 -47.9358
" />
<path d="M69.5071 -47.9358
L69.5452 -47.9739
" />
<path d="M69.5452 -47.9739
L69.5833 -48.0501
" />
<path d="M69.5833 -48.0501
L69.5833 -48.1263
" />
<path d="M69.5833 -48.1263
L69.5452 -48.2025
" />
<path d="M69.5452 -48.2025
L69.5071 -48.2406
" />
<path d="M69.5071 -48.2406
L69.4310 -48.2787
" />
<path d="M69.4310 -48.2787
L69.2786 -48.3168
" />
<path d="M69.2786 -48.3168
L69.2024 -48.3548
" />
<path d="M69.2024 -48.3548
L69.1643 -48.3929
" />
<path d="M69.1643 -48.3929
L69.1262 -48.4691
" />
<path d="M69.1262 -48.4691
L69.1262 -48.5453
" />
<path d="M69.1262 -48.5453
L69.1643 -48.6215
" />
<path d="M69.1643 -48.6215
L69.2024 -48.6596
" />
<path d="M69.2024 -48.6596
L69.2786 -48.6977
" />
<path d="M69.2786 -48.6977
L69.4690 -48.6977
" />
<path d="M69.4690 -48.6977
L69.5833 -48.6596
" />
<path d="M69.8119 -48.6977
L70.2690 -48.6977
" />
<path d="M70.0405 -47.8977
L70.0405 -48.6977
" />
<path d="M70.6881 -48.6977
L70.8405 -48.6977
" />
<path d="M70.8405 -48.6977
L70.9167 -48.6596
" />
<path d="M70.9167 -48.6596
L70.9929 -48.5834
" />
<path d="M70.9929 -48.5834
L71.0310 -48.4310
" />
<path d="M71.0310 -48.4310
L71.0310 -48.1644
" />
<path d="M71.0310 -48.1644
L70.9929 -48.0120
" />
<path d="M70.9929 -48.0120
L70.9167 -47.9358
" />
<path d="M70.9167 -47.9358
L70.8405 -47.8977
" />
<path d="M70.8405 -47.8977
L70.6881 -47.8977
" />
<path d="M70.6881 -47.8977
L70.6119 -47.9358
" />
<path d="M70.6119 -47.9358
L70.5357 -48.0120
" />
<path d="M70.5357 -48.0120
L70.4976 -48.1644
" />
<path d="M70.4976 -48.1644
L70.4976 -48.4310
" />
<path d="M70.4976 -48.4310
L70.5357 -48.5834
" />
<path d="M70.5357 -48.5834
L70.6119 -48.6596
" />
<path d="M70.6119 -48.6596
L70.6881 -48.6977
" />
<path d="M71.8310 -47.8977
L71.5643 -48.2787
" />
<path d="M71.3738 -47.8977
L71.3738 -48.6977
" />
<path d="M71.3738 -48.6977
L71.6786 -48.6977
" />
<path d="M71.6786 -48.6977
L71.7548 -48.6596
" />
<path d="M71.7548 -48.6596
L71.7929 -48.6215
" />
<path d="M71.7929 -48.6215
L71.8310 -48.5453
" />
<path d="M71.8310 -48.5453
L71.8310 -48.4310
" />
<path d="M71.8310 -48.4310
L71.7929 -48.3548
" />
<path d="M71.7929 -48.3548
L71.7548 -48.3168
" />
<path d="M71.7548 -48.3168
L71.6786 -48.2787
" />
<path d="M71.6786 -48.2787
L71.3738 -48.2787
" />
<path d="M73.0500 -48.3168
L73.1643 -48.2787
" />
<path d="M73.1643 -48.2787
L73.2024 -48.2406
" />
<path d="M73.2024 -48.2406
L73.2405 -48.1644
" />
<path d="M73.2405 -48.1644
L73.2405 -48.0501
" />
<path d="M73.2405 -48.0501
L73.2024 -47.9739
" />
<path d="M73.2024 -47.9739
L73.1643 -47.9358
" />
<path d="M73.1643 -47.9358
L73.0881 -47.8977
" />
<path d="M73.0881 -47.8977
L72.7833 -47.8977
" />
<path d="M72.7833 -47.8977
L72.7833 -48.6977
" />
<path d="M72.7833 -48.6977
L73.0500 -48.6977
" />
<path d="M73.0500 -48.6977
L73.1262 -48.6596
" />
<path d="M73.1262 -48.6596
L73.1643 -48.6215
" />
<path d="M73.1643 -48.6215
L73.2024 -48.5453
" />
<path d="M73.2024 -48.5453
L73.2024 -48.4691
" />
<path d="M73.2024 -48.4691
L73.1643 -48.3929
" />
<path d="M73.1643 -48.3929
L73.1262 -48.3548
" />
<path d="M73.1262 -48.3548
L73.0500 -48.3168
" />
<path d="M73.0500 -48.3168
L72.7833 -48.3168
" />
</g><text x="45.7200" y="-56.6500"
textLength="3.1548" font-size="1.3333" lengthAdjust="spacingAndGlyphs"
text-anchor="middle" opacity="0">PS1</text>
<g class="stroked-text"><desc>PS1</desc>
<path d="M44.5057 -56.6952
L44.5057 -57.6952
" />
<path d="M44.5057 -57.6952
L44.8867 -57.6952
" />
<path d="M44.8867 -57.6952
L44.9819 -57.6476
" />
<path d="M44.9819 -57.6476
L45.0295 -57.5999
" />
<path d="M45.0295 -57.5999
L45.0771 -57.5047
" />
<path d="M45.0771 -57.5047
L45.0771 -57.3618
" />
<path d="M45.0771 -57.3618
L45.0295 -57.2666
" />
<path d="M45.0295 -57.2666
L44.9819 -57.2190
" />
<path d="M44.9819 -57.2190
L44.8867 -57.1714
" />
<path d="M44.8867 -57.1714
L44.5057 -57.1714
" />
<path d="M45.4581 -56.7428
L45.6010 -56.6952
" />
<path d="M45.6010 -56.6952
L45.8390 -56.6952
" />
<path d="M45.8390 -56.6952
L45.9343 -56.7428
" />
<path d="M45.9343 -56.7428
L45.9819 -56.7904
" />
<path d="M45.9819 -56.7904
L46.0295 -56.8857
" />
<path d="M46.0295 -56.8857
L46.0295 -56.9809
" />
<path d="M46.0295 -56.9809
L45.9819 -57.0761
" />
<path d="M45.9819 -57.0761
L45.9343 -57.1238
" />
<path d="M45.9343 -57.1238
L45.8390 -57.1714
" />
<path d="M45.8390 -57.1714
L45.6486 -57.2190
" />
<path d="M45.6486 -57.2190
L45.5533 -57.2666
" />
<path d="M45.5533 -57.2666
L45.5057 -57.3142
" />
<path d="M45.5057 -57.3142
L45.4581 -57.4095
" />
<path d="M45.4581 -57.4095
L45.4581 -57.5047
" />
<path d="M45.4581 -57.5047
L45.5057 -57.5999
" />
<path d="M45.5057 -57.5999
L45.5533 -57.6476
" />
<path d="M45.5533 -57.6476
L45.6486 -57.6952
" />
<path d="M45.6486 -57.6952
L45.8867 -57.6952
" />
<path d="M45.8867 -57.6952
L46.0295 -57.6476
" />
<path d="M46.9819 -56.6952
L46.4105 -56.6952
" />
<path d="M46.6962 -56.6952
L46.6962 -57.6952
" />
<path d="M46.6962 -57.6952
L46.6010 -57.5523
" />
<path d="M46.6010 -57.5523
L46.5057 -57.4571
" />
<path d="M46.5057 -57.4571
L46.4105 -57.4095
" />
</g><g transform="rotate(-340.000000 111.0623 -51.2698)">
<text x="111.0623" y="-50.7698"
textLength="1.9643" font-size="1.3333" lengthAdjust="spacingAndGlyphs"
text-anchor="middle" opacity="0">J4</text>
</g>
<g class="stroked-text"><desc>J4</desc>
<path d="M110.9355 -51.8962
L110.6912 -51.2249
" />
<path d="M110.6912 -51.2249
L110.5976 -51.1070
" />
<path d="M110.5976 -51.1070
L110.4755 -51.0501
" />
<path d="M110.4755 -51.0501
L110.3250 -51.0542
" />
<path d="M110.3250 -51.0542
L110.2355 -51.0868
" />
<path d="M111.6717 -51.2735
L111.4437 -50.6470
" />
<path d="M111.5783 -51.7129
L111.1102 -51.1231
" />
<path d="M111.1102 -51.1231
L111.6919 -50.9114
" />
</g><g transform="rotate(-70.000000 107.9500 -53.9750)">
<text x="107.9500" y="-53.4750"
textLength="8.7262" font-size="1.3333" lengthAdjust="spacingAndGlyphs"
text-anchor="middle" opacity="0">MAINS LINE</text>
</g>
<g class="stroked-text"><desc>MAINS LINE</desc>
<path d="M107.0093 -50.0607
L106.0696 -50.4027
" />
<path d="M106.0696 -50.4027
L106.8548 -50.4716
" />
<path d="M106.8548 -50.4716
L106.2976 -51.0292
" />
<path d="M106.2976 -51.0292
L107.2373 -50.6871
" />
<path d="M107.1154 -51.1876
L107.2783 -51.6351
" />
<path d="M107.3513 -51.0004
L106.5256 -51.6556
" />
<path d="M106.5256 -51.6556
L107.5793 -51.6268
" />
<path d="M107.6933 -51.9401
L106.7537 -52.2821
" />
<path d="M107.8562 -52.3875
L106.9165 -52.7295
" />
<path d="M106.9165 -52.7295
L108.0517 -52.9245
" />
<path d="M108.0517 -52.9245
L107.1120 -53.2665
" />
<path d="M108.1535 -53.3435
L108.2471 -53.4615
" />
<path d="M108.2471 -53.4615
L108.3285 -53.6852
" />
<path d="M108.3285 -53.6852
L108.3164 -53.7910
" />
<path d="M108.3164 -53.7910
L108.2879 -53.8520
" />
<path d="M108.2879 -53.8520
L108.2147 -53.9293
" />
<path d="M108.2147 -53.9293
L108.1252 -53.9619
" />
<path d="M108.1252 -53.9619
L108.0194 -53.9497
" />
<path d="M108.0194 -53.9497
L107.9584 -53.9213
" />
<path d="M107.9584 -53.9213
L107.8811 -53.8481
" />
<path d="M107.8811 -53.8481
L107.7712 -53.6854
" />
<path d="M107.7712 -53.6854
L107.6938 -53.6122
" />
<path d="M107.6938 -53.6122
L107.6328 -53.5837
" />
<path d="M107.6328 -53.5837
L107.5270 -53.5715
" />
<path d="M107.5270 -53.5715
L107.4375 -53.6041
" />
<path d="M107.4375 -53.6041
L107.3643 -53.6814
" />
<path d="M107.3643 -53.6814
L107.3359 -53.7424
" />
<path d="M107.3359 -53.7424
L107.3237 -53.8482
" />
<path d="M107.3237 -53.8482
L107.4051 -54.0720
" />
<path d="M107.4051 -54.0720
L107.4987 -54.1899
" />
<path d="M108.9637 -55.4303
L108.8008 -54.9829
" />
<path d="M108.8008 -54.9829
L107.8611 -55.3249
" />
<path d="M109.0777 -55.7436
L108.1380 -56.0856
" />
<path d="M109.2406 -56.1910
L108.3009 -56.5331
" />
<path d="M108.3009 -56.5331
L109.4360 -56.7280
" />
<path d="M109.4360 -56.7280
L108.4963 -57.0700
" />
<path d="M109.1067 -57.3546
L109.2207 -57.6679
" />
<path d="M109.7618 -57.6230
L109.5989 -57.1755
" />
<path d="M109.5989 -57.1755
L108.6592 -57.5175
" />
<path d="M108.6592 -57.5175
L108.8221 -57.9650
" />
</g><g transform="rotate(-90.000000 93.9800 -18.4150)">
<text x="93.9800" y="-17.9150"
textLength="2.2024" font-size="1.3333" lengthAdjust="spacingAndGlyphs"
text-anchor="middle" opacity="0">R5</text>
</g>
<g class="stroked-text"><desc>R5</desc>
<path d="M94.4348 -18.2483
L93.9586 -17.9150
" />
<path d="M94.4348 -17.6769
L93.4348 -17.6769
" />
<path d="M93.4348 -17.6769
L93.4348 -18.0579
" />
<path d="M93.4348 -18.0579
L93.4824 -18.1531
" />
<path d="M93.4824 -18.1531
L93.5301 -18.2007
" />
<path d="M93.5301 -18.2007
L93.6253 -18.2483
" />
<path d="M93.6253 -18.2483
L93.7682 -18.2483
" />
<path d="M93.7682 -18.2483
L93.8634 -18.2007
" />
<path d="M93.8634 -18.2007
L93.9110 -18.1531
" />
<path d="M93.9110 -18.1531
L93.9586 -18.0579
" />
<path d="M93.9586 -18.0579
L93.9586 -17.6769
" />
<path d="M93.4348 -19.1531
L93.4348 -18.6769
" />
<path d="M93.4348 -18.6769
L93.9110 -18.6293
" />
<path d="M93.9110 -18.6293
L93.8634 -18.6769
" />
<path d="M93.8634 -18.6769
L93.8158 -18.7721
" />
<path d="M93.8158 -18.7721
L93.8158 -19.0102
" />
<path d="M93.8158 -19.0102
L93.8634 -19.1055
" />
<path d="M93.8634 -19.1055
L93.9110 -19.1531
" />
<path d="M93.9110 -19.1531
L94.0062 -19.2007
" />
<path d="M94.0062 -19.2007
L94.2443 -19.2007
" />
<path d="M94.2443 -19.2007
L94.3396 -19.1531
" />
<path d="M94.3396 -19.1531
L94.3872 -19.1055
" />
<path d="M94.3872 -19.1055
L94.4348 -19.0102
" />
<path d="M94.4348 -19.0102
L94.4348 -18.7721
" />
<path d="M94.4348 -18.7721
L94.3872 -18.6769
" />
<path d="M94.3872 -18.6769
L94.3396 -18.6293
" />
</g><g transform="rotate(-90.000000 96.5200 -24.1300)">
<text x="96.5200" y="-23.6300"
textLength="2.2024" font-size="1.3333" lengthAdjust="spacingAndGlyphs"
text-anchor="middle" opacity="0">R4</text>
</g>
<g class="stroked-text"><desc>R4</desc>
<path d="M96.9748 -23.9633
L96.4986 -23.6300
" />
<path d="M96.9748 -23.3919
L95.9748 -23.3919
" />
<path d="M95.9748 -23.3919
L95.9748 -23.7729
" />
<path d="M95.9748 -23.7729
L96.0224 -23.8681
" />
<path d="M96.0224 -23.8681
L96.0701 -23.9157
" />
<path d="M96.0701 -23.9157
L96.1653 -23.9633
" />
<path d="M96.1653 -23.9633
L96.3082 -23.9633
" />
<path d="M96.3082 -23.9633
L96.4034 -23.9157
" />
<path d="M96.4034 -23.9157
L96.4510 -23.8681
" />
<path d="M96.4510 -23.8681
L96.4986 -23.7729
" />
<path d="M96.4986 -23.7729
L96.4986 -23.3919
" />
<path d="M96.3082 -24.8205
L96.9748 -24.8205
" />
<path d="M95.9272 -24.5824
L96.6415 -24.3443
" />
<path d="M96.6415 -24.3443
L96.6415 -24.9633
" />
</g><text x="18.2500" y="-23.2500"
textLength="3.2976" font-size="1.3333" lengthAdjust="spacingAndGlyphs"
text-anchor="middle" opacity="0">SW1</text>
<g class="stroked-text"><desc>SW1</desc>
<path d="M16.9167 -23.3428
L17.0595 -23.2952
" />
<path d="M17.0595 -23.2952
L17.2976 -23.2952
" />
<path d="M17.2976 -23.2952
L17.3929 -23.3428
" />
<path d="M17.3929 -23.3428
L17.4405 -23.3904
" />
<path d="M17.4405 -23.3904
L17.4881 -23.4857
" />
<path d="M17.4881 -23.4857
L17.4881 -23.5809
" />
<path d="M17.4881 -23.5809
L17.4405 -23.6761
" />
<path d="M17.4405 -23.6761
L17.3929 -23.7238
" />
<path d="M17.3929 -23.7238
L17.2976 -23.7714
" />
<path d="M17.2976 -23.7714
L17.1071 -23.8190
" />
<path d="M17.1071 -23.8190
L17.0119 -23.8666
" />
<path d="M17.0119 -23.8666
L16.9643 -23.9142
" />
<path d="M16.9643 -23.9142
L16.9167 -24.0095
" />
<path d="M16.9167 -24.0095
L16.9167 -24.1047
" />
<path d="M16.9167 -24.1047
L16.9643 -24.1999
" />
<path d="M16.9643 -24.1999
L17.0119 -24.2476
" />
<path d="M17.0119 -24.2476
L17.1071 -24.2952
" />
<path d="M17.1071 -24.2952
L17.3452 -24.2952
" />
<path d="M17.3452 -24.2952
L17.4881 -24.2476
" />
<path d="M17.8214 -24.2952
L18.0595 -23.2952
" />
<path d="M18.0595 -23.2952
L18.2500 -24.0095
" />
<path d="M18.2500 -24.0095
L18.4405 -23.2952
" />
<path d="M18.4405 -23.2952
L18.6786 -24.2952
" />
<path d="M19.5833 -23.2952
L19.0119 -23.2952
" />
<path d="M19.2976 -23.2952
L19.2976 -24.2952
" />
<path d="M19.2976 -24.2952
L19.2024 -24.1523
" />
<path d="M19.2024 -24.1523
L19.1071 -24.0571
" />
<path d="M19.1071 -24.0571
L19.0119 -24.0095
" />
</g><text x="116.0980" y="-32.0060"
textLength="1.9643" font-size="1.3333" lengthAdjust="spacingAndGlyphs"
text-anchor="middle" opacity="0">J2</text>
<g class="stroked-text"><desc>J2</desc>
<path d="M115.7647 -33.0512
L115.7647 -32.3369
" />
<path d="M115.7647 -32.3369
L115.7170 -32.1940
" />
<path d="M115.7170 -32.1940
L115.6218 -32.0988
" />
<path d="M115.6218 -32.0988
L115.4790 -32.0512
" />
<path d="M115.4790 -32.0512
L115.3837 -32.0512
" />
<path d="M116.1932 -32.9559
L116.2409 -33.0036
" />
<path d="M116.2409 -33.0036
L116.3361 -33.0512
" />
<path d="M116.3361 -33.0512
L116.5742 -33.0512
" />
<path d="M116.5742 -33.0512
L116.6694 -33.0036
" />
<path d="M116.6694 -33.0036
L116.7170 -32.9559
" />
<path d="M116.7170 -32.9559
L116.7647 -32.8607
" />
<path d="M116.7647 -32.8607
L116.7647 -32.7655
" />
<path d="M116.7647 -32.7655
L116.7170 -32.6226
" />
<path d="M116.7170 -32.6226
L116.1456 -32.0512
" />
<path d="M116.1456 -32.0512
L116.7647 -32.0512
" />
</g><text x="88.3500" y="-12.2500"
textLength="3.2976" font-size="1.3333" lengthAdjust="spacingAndGlyphs"
text-anchor="middle" opacity="0">SW3</text>
<g class="stroked-text"><desc>SW3</desc>
<path d="M87.0167 -12.3428
L87.1595 -12.2952
" />
<path d="M87.1595 -12.2952
L87.3976 -12.2952
" />
<path d="M87.3976 -12.2952
L87.4929 -12.3428
" />
<path d="M87.4929 -12.3428
L87.5405 -12.3904
" />
<path d="M87.5405 -12.3904
L87.5881 -12.4857
" />
<path d="M87.5881 -12.4857
L87.5881 -12.5809
" />
<path d="M87.5881 -12.5809
L87.5405 -12.6761
" />
<path d="M87.5405 -12.6761
L87.4929 -12.7238
" />
<path d="M87.4929 -12.7238
L87.3976 -12.7714
" />
<path d="M87.3976 -12.7714
L87.2071 -12.8190
" />
<path d="M87.2071 -12.8190
L87.1119 -12.8666
" />
<path d="M87.1119 -12.8666
L87.0643 -12.9142
" />
<path d="M87.0643 -12.9142
L87.0167 -13.0095
" />
<path d="M87.0167 -13.0095
L87.0167 -13.1047
" />
<path d="M87.0167 -13.1047
L87.0643 -13.1999
" />
<path d="M87.0643 -13.1999
L87.1119 -13.2476
" />
<path d="M87.1119 -13.2476
L87.2071 -13.2952
" />
<path d="M87.2071 -13.2952
L87.4452 -13.2952
" />
<path d="M87.4452 -13.2952
L87.5881 -13.2476
" />
<path d="M87.9214 -13.2952
L88.1595 -12.2952
" />
<path d="M88.1595 -12.2952
L88.3500 -13.0095
" />
<path d="M88.3500 -13.0095
L88.5405 -12.2952
" />
<path d="M88.5405 -12.2952
L88.7786 -13.2952
" />
<path d="M89.0643 -13.2952
L89.6833 -13.2952
" />
<path d="M89.6833 -13.2952
L89.3500 -12.9142
" />
<path d="M89.3500 -12.9142
L89.4929 -12.9142
" />
<path d="M89.4929 -12.9142
L89.5881 -12.8666
" />
<path d="M89.5881 -12.8666
L89.6357 -12.8190
" />
<path d="M89.6357 -12.8190
L89.6833 -12.7238
" />
<path d="M89.6833 -12.7238
L89.6833 -12.4857
" />
<path d="M89.6833 -12.4857
L89.6357 -12.3904
" />
<path d="M89.6357 -12.3904
L89.5881 -12.3428
" />
<path d="M89.5881 -12.3428
L89.4929 -12.2952
" />
<path d="M89.4929 -12.2952
L89.2071 -12.2952
" />
<path d="M89.2071 -12.2952
L89.1119 -12.3428
" />
<path d="M89.1119 -12.3428
L89.0643 -12.3904
" />
</g><g transform="rotate(-340.000000 119.9523 -51.4230)">
<text x="119.9523" y="-50.9230"
textLength="1.9643" font-size="1.3333" lengthAdjust="spacingAndGlyphs"
text-anchor="middle" opacity="0">J3</text>
</g>
<g class="stroked-text"><desc>J3</desc>
<path d="M119.8255 -52.0493
L119.5812 -51.3781
" />
<path d="M119.5812 -51.3781
L119.4876 -51.2602
" />
<path d="M119.4876 -51.2602
L119.3655 -51.2032
" />
<path d="M119.3655 -51.2032
L119.2150 -51.2074
" />
<path d="M119.2150 -51.2074
L119.1255 -51.2399
" />
<path d="M120.1835 -51.9190
L120.7652 -51.7073
" />
<path d="M120.7652 -51.7073
L120.3217 -51.4633
" />
<path d="M120.3217 -51.4633
L120.4559 -51.4145
" />
<path d="M120.4559 -51.4145
L120.5291 -51.3372
" />
<path d="M120.5291 -51.3372
L120.5576 -51.2761
" />
<path d="M120.5576 -51.2761
L120.5698 -51.1703
" />
<path d="M120.5698 -51.1703
L120.4883 -50.9466
" />
<path d="M120.4883 -50.9466
L120.4110 -50.8734
" />
<path d="M120.4110 -50.8734
L120.3500 -50.8449
" />
<path d="M120.3500 -50.8449
L120.2442 -50.8328
" />
<path d="M120.2442 -50.8328
L119.9757 -50.9305
" />
<path d="M119.9757 -50.9305
L119.9025 -51.0078
" />
<path d="M119.9025 -51.0078
L119.8740 -51.0688
" />
</g><g transform="rotate(-70.000000 124.4600 -51.4350)">
<text x="124.4600" y="-50.9350"
textLength="11.9167" font-size="1.3333" lengthAdjust="spacingAndGlyphs"
text-anchor="middle" opacity="0">MAINS NEUTRAL</text>
</g>
<g class="stroked-text"><desc>MAINS NEUTRAL</desc>
<path d="M122.9737 -46.0216
L122.0340 -46.3637
" />
<path d="M122.0340 -46.3637
L122.8192 -46.4326
" />
<path d="M122.8192 -46.4326
L122.2620 -46.9901
" />
<path d="M122.2620 -46.9901
L123.2017 -46.6481
" />
<path d="M123.0798 -47.1485
L123.2427 -47.5960
" />
<path d="M123.3157 -46.9613
L122.4900 -47.6166
" />
<path d="M122.4900 -47.6166
L123.5437 -47.5878
" />
<path d="M123.6577 -47.9010
L122.7181 -48.2430
" />
<path d="M123.8206 -48.3485
L122.8809 -48.6905
" />
<path d="M122.8809 -48.6905
L124.0161 -48.8855
" />
<path d="M124.0161 -48.8855
L123.0764 -49.2275
" />
<path d="M124.1179 -49.3045
L124.2115 -49.4224
" />
<path d="M124.2115 -49.4224
L124.2929 -49.6462
" />
<path d="M124.2929 -49.6462
L124.2808 -49.7519
" />
<path d="M124.2808 -49.7519
L124.2523 -49.8130
" />
<path d="M124.2523 -49.8130
L124.1791 -49.8903
" />
<path d="M124.1791 -49.8903
L124.0896 -49.9229
" />
<path d="M124.0896 -49.9229
L123.9838 -49.9107
" />
<path d="M123.9838 -49.9107
L123.9228 -49.8822
" />
<path d="M123.9228 -49.8822
L123.8455 -49.8090
" />
<path d="M123.8455 -49.8090
L123.7356 -49.6463
" />
<path d="M123.7356 -49.6463
L123.6582 -49.5731
" />
<path d="M123.6582 -49.5731
L123.5972 -49.5447
" />
<path d="M123.5972 -49.5447
L123.4914 -49.5325
" />
<path d="M123.4914 -49.5325
L123.4019 -49.5651
" />
<path d="M123.4019 -49.5651
L123.3287 -49.6424
" />
<path d="M123.3287 -49.6424
L123.3003 -49.7034
" />
<path d="M123.3003 -49.7034
L123.2881 -49.8092
" />
<path d="M123.2881 -49.8092
L123.3695 -50.0329
" />
<path d="M123.3695 -50.0329
L123.4631 -50.1509
" />
<path d="M124.7652 -50.9438
L123.8255 -51.2859
" />
<path d="M123.8255 -51.2859
L124.9607 -51.4808
" />
<path d="M124.9607 -51.4808
L124.0210 -51.8228
" />
<path d="M124.6313 -52.1074
L124.7453 -52.4207
" />
<path d="M125.2864 -52.3757
L125.1235 -51.9283
" />
<path d="M125.1235 -51.9283
L124.1839 -52.2703
" />
<path d="M124.1839 -52.2703
L124.3467 -52.7178
" />
<path d="M124.4933 -53.1205
L125.2540 -52.8436
" />
<path d="M125.2540 -52.8436
L125.3598 -52.8558
" />
<path d="M125.3598 -52.8558
L125.4208 -52.8843
" />
<path d="M125.4208 -52.8843
L125.4981 -52.9575
" />
<path d="M125.4981 -52.9575
L125.5633 -53.1365
" />
<path d="M125.5633 -53.1365
L125.5511 -53.2422
" />
<path d="M125.5511 -53.2422
L125.5227 -53.3033
" />
<path d="M125.5227 -53.3033
L125.4494 -53.3806
" />
<path d="M125.4494 -53.3806
L124.6887 -53.6575
" />
<path d="M124.8027 -53.9707
L124.9982 -54.5077
" />
<path d="M125.8402 -53.8972
L124.9005 -54.2392
" />
<path d="M126.2473 -55.0158
L125.6858 -54.8655
" />
<path d="M126.0519 -54.4789
L125.1122 -54.8209
" />
<path d="M125.1122 -54.8209
L125.2425 -55.1789
" />
<path d="M125.2425 -55.1789
L125.3198 -55.2521
" />
<path d="M125.3198 -55.2521
L125.3808 -55.2805
" />
<path d="M125.3808 -55.2805
L125.4866 -55.2927
" />
<path d="M125.4866 -55.2927
L125.6209 -55.2439
" />
<path d="M125.6209 -55.2439
L125.6941 -55.1665
" />
<path d="M125.6941 -55.1665
L125.7225 -55.1055
" />
<path d="M125.7225 -55.1055
L125.7347 -54.9997
" />
<path d="M125.7347 -54.9997
L125.6044 -54.6417
" />
<path d="M126.1091 -55.4715
L126.2720 -55.9190
" />
<path d="M126.3450 -55.2843
L125.5194 -55.9396
" />
<path d="M125.5194 -55.9396
L126.5731 -55.9108
" />
<path d="M126.8499 -56.6715
L126.6871 -56.2240
" />
<path d="M126.6871 -56.2240
L125.7474 -56.5660
" />
</g><g transform="rotate(-90.000000 3.6840 -35.8140)">
<text x="3.6840" y="-35.3140"
textLength="2.2024" font-size="1.3333" lengthAdjust="spacingAndGlyphs"
text-anchor="middle" opacity="0">R1</text>
</g>
<g class="stroked-text"><desc>R1</desc>
<path d="M4.1388 -35.6473
L3.6626 -35.3140
" />
<path d="M4.1388 -35.0759
L3.1388 -35.0759
" />
<path d="M3.1388 -35.0759
L3.1388 -35.4569
" />
<path d="M3.1388 -35.4569
L3.1864 -35.5521
" />
<path d="M3.1864 -35.5521
L3.2341 -35.5997
" />
<path d="M3.2341 -35.5997
L3.3293 -35.6473
" />
<path d="M3.3293 -35.6473
L3.4722 -35.6473
" />
<path d="M3.4722 -35.6473
L3.5674 -35.5997
" />
<path d="M3.5674 -35.5997
L3.6150 -35.5521
" />
<path d="M3.6150 -35.5521
L3.6626 -35.4569
" />
<path d="M3.6626 -35.4569
L3.6626 -35.0759
" />
<path d="M4.1388 -36.5997
L4.1388 -36.0283
" />
<path d="M4.1388 -36.3140
L3.1388 -36.3140
" />
<path d="M3.1388 -36.3140
L3.2817 -36.2188
" />
<path d="M3.2817 -36.2188
L3.3769 -36.1235
" />
<path d="M3.3769 -36.1235
L3.4245 -36.0283
" />
</g><text x="109.2500" y="-23.2500"
textLength="3.2976" font-size="1.3333" lengthAdjust="spacingAndGlyphs"
text-anchor="middle" opacity="0">SW4</text>
<g class="stroked-text"><desc>SW4</desc>
<path d="M107.9167 -23.3428
L108.0595 -23.2952
" />
<path d="M108.0595 -23.2952
L108.2976 -23.2952
" />
<path d="M108.2976 -23.2952
L108.3929 -23.3428
" />
<path d="M108.3929 -23.3428
L108.4405 -23.3904
" />
<path d="M108.4405 -23.3904
L108.4881 -23.4857
" />
<path d="M108.4881 -23.4857
L108.4881 -23.5809
" />
<path d="M108.4881 -23.5809
L108.4405 -23.6761
" />
<path d="M108.4405 -23.6761
L108.3929 -23.7238
" />
<path d="M108.3929 -23.7238
L108.2976 -23.7714
" />
<path d="M108.2976 -23.7714
L108.1071 -23.8190
" />
<path d="M108.1071 -23.8190
L108.0119 -23.8666
" />
<path d="M108.0119 -23.8666
L107.9643 -23.9142
" />
<path d="M107.9643 -23.9142
L107.9167 -24.0095
" />
<path d="M107.9167 -24.0095
L107.9167 -24.1047
" />
<path d="M107.9167 -24.1047
L107.9643 -24.1999
" />
<path d="M107.9643 -24.1999
L108.0119 -24.2476
" />
<path d="M108.0119 -24.2476
L108.1071 -24.2952
" />
<path d="M108.1071 -24.2952
L108.3452 -24.2952
" />
<path d="M108.3452 -24.2952
L108.4881 -24.2476
" />
<path d="M108.8214 -24.2952
L109.0595 -23.2952
" />
<path d="M109.0595 -23.2952
L109.2500 -24.0095
" />
<path d="M109.2500 -24.0095
L109.4405 -23.2952
" />
<path d="M109.4405 -23.2952
L109.6786 -24.2952
" />
<path d="M110.4881 -23.9618
L110.4881 -23.2952
" />
<path d="M110.2500 -24.3428
L110.0119 -23.6285
" />
<path d="M110.0119 -23.6285
L110.6310 -23.6285
" />
</g><text x="24.6380" y="-12.2000"
textLength="2.2024" font-size="1.3333" lengthAdjust="spacingAndGlyphs"
text-anchor="middle" opacity="0">D1</text>
<g class="stroked-text"><desc>D1</desc>
<path d="M23.8999 -12.2452
L23.8999 -13.2452
" />
<path d="M23.8999 -13.2452
L24.1380 -13.2452
" />
<path d="M24.1380 -13.2452
L24.2809 -13.1976
" />
<path d="M24.2809 -13.1976
L24.3761 -13.1023
" />
<path d="M24.3761 -13.1023
L24.4237 -13.0071
" />
<path d="M24.4237 -13.0071
L24.4713 -12.8166
" />
<path d="M24.4713 -12.8166
L24.4713 -12.6738
" />
<path d="M24.4713 -12.6738
L24.4237 -12.4833
" />
<path d="M24.4237 -12.4833
L24.3761 -12.3880
" />
<path d="M24.3761 -12.3880
L24.2809 -12.2928
" />
<path d="M24.2809 -12.2928
L24.1380 -12.2452
" />
<path d="M24.1380 -12.2452
L23.8999 -12.2452
" />
<path d="M25.4237 -12.2452
L24.8523 -12.2452
" />
<path d="M25.1380 -12.2452
L25.1380 -13.2452
" />
<path d="M25.1380 -13.2452
L25.0428 -13.1023
" />
<path d="M25.0428 -13.1023
L24.9475 -13.0071
" />
<path d="M24.9475 -13.0071
L24.8523 -12.9595
" />
</g><text x="15.4080" y="-13.8000"
textLength="1.2024" font-size="1.3333" lengthAdjust="spacingAndGlyphs"
text-anchor="middle" opacity="0">1</text>
<g class="stroked-text"><desc>1</desc>
<path d="M15.6937 -13.8452
L15.1223 -13.8452
" />
<path d="M15.4080 -13.8452
L15.4080 -14.8452
" />
<path d="M15.4080 -14.8452
L15.3128 -14.7023
" />
<path d="M15.3128 -14.7023
L15.2175 -14.6071
" />
<path d="M15.2175 -14.6071
L15.1223 -14.5595
" />
</g><text x="15.2400" y="-39.7040"
textLength="2.2500" font-size="1.3333" lengthAdjust="spacingAndGlyphs"
text-anchor="middle" opacity="0">U2</text>
<g class="stroked-text"><desc>U2</desc>
<path d="M14.4781 -40.7492
L14.4781 -39.9397
" />
<path d="M14.4781 -39.9397
L14.5257 -39.8444
" />
<path d="M14.5257 -39.8444
L14.5733 -39.7968
" />
<path d="M14.5733 -39.7968
L14.6686 -39.7492
" />
<path d="M14.6686 -39.7492
L14.8590 -39.7492
" />
<path d="M14.8590 -39.7492
L14.9543 -39.7968
" />
<path d="M14.9543 -39.7968
L15.0019 -39.8444
" />
<path d="M15.0019 -39.8444
L15.0495 -39.9397
" />
<path d="M15.0495 -39.9397
L15.0495 -40.7492
" />
<path d="M15.4781 -40.6539
L15.5257 -40.7016
" />
<path d="M15.5257 -40.7016
L15.6210 -40.7492
" />
<path d="M15.6210 -40.7492
L15.8590 -40.7492
" />
<path d="M15.8590 -40.7492
L15.9543 -40.7016
" />
<path d="M15.9543 -40.7016
L16.0019 -40.6539
" />
<path d="M16.0019 -40.6539
L16.0495 -40.5587
" />
<path d="M16.0495 -40.5587
L16.0495 -40.4635
" />
<path d="M16.0495 -40.4635
L16.0019 -40.3206
" />
<path d="M16.0019 -40.3206
L15.4305 -39.7492
" />
<path d="M15.4305 -39.7492
L16.0495 -39.7492
" />
</g><text x="11.0005" y="-37.7140"
textLength="2.2500" font-size="1.3333" lengthAdjust="spacingAndGlyphs"
text-anchor="middle" opacity="0">Q1</text>
<g class="stroked-text"><desc>Q1</desc>
<path d="M10.9053 -37.6639
L10.8100 -37.7116
" />
<path d="M10.8100 -37.7116
L10.7148 -37.8068
" />
<path d="M10.7148 -37.8068
L10.5719 -37.9497
" />
<path d="M10.5719 -37.9497
L10.4767 -37.9973
" />
<path d="M10.4767 -37.9973
L10.3815 -37.9973
" />
<path d="M10.4291 -37.7592
L10.3338 -37.8068
" />
<path d="M10.3338 -37.8068
L10.2386 -37.9020
" />
<path d="M10.2386 -37.9020
L10.1910 -38.0925
" />
<path d="M10.1910 -38.0925
L10.1910 -38.4258
" />
<path d="M10.1910 -38.4258
L10.2386 -38.6163
" />
<path d="M10.2386 -38.6163
L10.3338 -38.7116
" />
<path d="M10.3338 -38.7116
L10.4291 -38.7592
" />
<path d="M10.4291 -38.7592
L10.6195 -38.7592
" />
<path d="M10.6195 -38.7592
L10.7148 -38.7116
" />
<path d="M10.7148 -38.7116
L10.8100 -38.6163
" />
<path d="M10.8100 -38.6163
L10.8576 -38.4258
" />
<path d="M10.8576 -38.4258
L10.8576 -38.0925
" />
<path d="M10.8576 -38.0925
L10.8100 -37.9020
" />
<path d="M10.8100 -37.9020
L10.7148 -37.8068
" />
<path d="M10.7148 -37.8068
L10.6195 -37.7592
" />
<path d="M10.6195 -37.7592
L10.4291 -37.7592
" />
<path d="M11.8100 -37.7592
L11.2386 -37.7592
" />
<path d="M11.5243 -37.7592
L11.5243 -38.7592
" />
<path d="M11.5243 -38.7592
L11.4291 -38.6163
" />
<path d="M11.4291 -38.6163
L11.3338 -38.5211
" />
<path d="M11.3338 -38.5211
L11.2386 -38.4735
" />
</g></g>
<g style="fill:#000000; fill-opacity:0.0; 
stroke:#000000; stroke-width:0.1200; stroke-opacity:1; 
stroke-linecap:round; stroke-linejoin:round;">
<path d="M60.9600 -24.0700
L68.6400 -24.0700
" />
<path d="M60.9600 -24.0700
L60.9600 -26.7300
" />
<path d="M68.6400 -24.0700
L68.6400 -26.7300
" />
<path d="M58.3600 -25.4000
L58.3600 -26.7300
" />
<path d="M58.3600 -26.7300
L59.6900 -26.7300
" />
<path d="M60.9600 -26.7300
L68.6400 -26.7300
" />
<path d="M50.5000 -0.6700
L76.5000 -0.6700
" />
<path d="M76.5000 -0.6700
L76.5000 -26.6700
" />
<path d="M76.5000 -26.6700
L50.5000 -26.6700
" />
<path d="M50.5000 -26.6700
L50.5000 -0.6700
" />
<path d="M120.8771 -20.8550
L120.4229 -20.8550
" />
<path d="M120.8771 -22.3250
L120.4229 -22.3250
" />
<path d="M91.9750 -26.1729
L91.9750 -26.6271
" />
<path d="M93.4450 -26.1729
L93.4450 -26.6271
" />
<path d="M35.6600 -9.2500
L35.6600 -7.7500
" />
<path d="M36.9100 -5.2500
L41.4100 -5.2500
" />
<path d="M41.4100 -11.7500
L36.9100 -11.7500
" />
<path d="M42.6600 -7.7500
L42.6600 -9.2500
" />
<path d="M81.5340 -27.4680
L79.8590 -27.4680
" />
<path d="M81.5340 -27.4680
L82.1840 -27.4680
" />
<path d="M81.5340 -24.3480
L80.8840 -24.3480
" />
<path d="M81.5340 -24.3480
L82.1840 -24.3480
" />
<path d="M78.2150 -55.7850
L80.7550 -55.7850
" />
<path d="M78.2150 -48.1650
L80.7550 -48.1650
" />
<path d="M80.7550 -55.7850
L80.7550 -54.5150
" />
<path d="M80.7550 -48.1650
L80.7550 -49.4350
" />
<path d="M97.0110 -56.5470
L97.0110 -57.0550
" />
<path d="M97.0110 -53.2450
L97.0110 -50.7050
" />
<path d="M102.0910 -57.3090
L97.0110 -58.0710
" />
<path d="M102.0910 -53.2450
L102.0910 -50.7050
" />
<path d="M74.4050 -58.3250
L103.4050 -58.3250
" />
<path d="M103.4050 -58.3250
L103.4050 -45.6250
" />
<path d="M103.4050 -45.6250
L74.4050 -45.6250
" />
<path d="M74.4050 -45.6250
L74.4050 -58.3250
" />
<path d="M79.8025 -54.5150
L81.7075 -54.5150
" />
<path d="M81.7075 -54.5150
L81.7075 -49.4350
" />
<path d="M81.7075 -49.4350
L79.8025 -49.4350
" />
<path d="M79.8025 -49.4350
L79.8025 -54.5150
" />
<path d="M104.3000 -15.4500
L111.6000 -15.4500
" />
<path d="M104.3000 -9.9500
L111.6000 -9.9500
" />
<path d="M111.6000 -9.9500
L111.6000 -11.1000
" />
<path d="M78.2150 -41.8150
L80.7550 -41.8150
" />
<path d="M78.2150 -34.1950
L80.7550 -34.1950
" />
<path d="M80.7550 -41.8150
L80.7550 -40.5450
" />
<path d="M80.7550 -34.1950
L80.7550 -35.4650
" />
<path d="M97.0110 -42.5770
L97.0110 -43.0850
" />
<path d="M97.0110 -39.2750
L97.0110 -36.7350
" />
<path d="M102.0910 -43.3390
L97.0110 -44.1010
" />
<path d="M102.0910 -39.2750
L102.0910 -36.7350
" />
<path d="M74.4050 -44.3550
L103.4050 -44.3550
" />
<path d="M103.4050 -44.3550
L103.4050 -31.6550
" />
<path d="M103.4050 -31.6550
L74.4050 -31.6550
" />
<path d="M74.4050 -31.6550
L74.4050 -44.3550
" />
<path d="M79.8025 -40.5450
L81.7075 -40.5450
" />
<path d="M81.7075 -40.5450
L81.7075 -35.4650
" />
<path d="M81.7075 -35.4650
L79.8025 -35.4650
" />
<path d="M79.8025 -35.4650
L79.8025 -40.5450
" />
<path d="M68.5200 -36.8900
L68.5200 -36.7700
" />
<path d="M68.5200 -36.7700
L71.1800 -36.7700
" />
<path d="M69.8500 -39.4300
L71.1800 -39.4300
" />
<path d="M71.1800 -39.4300
L71.1800 -38.1000
" />
<path d="M71.1800 -36.8900
L71.1800 -36.7700
" />
<path d="M68.5200 -50.8600
L68.5200 -50.7400
" />
<path d="M68.5200 -50.7400
L71.1800 -50.7400
" />
<path d="M69.8500 -53.4000
L71.1800 -53.4000
" />
<path d="M71.1800 -53.4000
L71.1800 -52.0700
" />
<path d="M71.1800 -50.8600
L71.1800 -50.7400
" />
<path d="M65.6100 -55.3000
L65.6100 -31.0600
" />
<path d="M28.3700 -55.3000
L65.6100 -55.3000
" />
<path d="M65.6100 -31.0600
L28.3700 -31.0600
" />
<path d="M28.3700 -31.0600
L28.3700 -55.3000
" />
<path d="M94.7150 -21.8171
L94.7150 -21.3629
" />
<path d="M93.2450 -21.8171
L93.2450 -21.3629
" />
<path d="M97.2550 -21.8171
L97.2550 -21.3629
" />
<path d="M95.7850 -21.8171
L95.7850 -21.3629
" />
<path d="M14.7500 -20.2500
L14.7500 -18.7500
" />
<path d="M16.0000 -16.2500
L20.5000 -16.2500
" />
<path d="M20.5000 -22.7500
L16.0000 -22.7500
" />
<path d="M21.7500 -18.7500
L21.7500 -20.2500
" />
<path d="M111.9980 -31.7060
L111.9980 -30.4560
" />
<path d="M112.2880 -31.4160
L112.2880 -25.4460
" />
<path d="M112.2880 -25.4460
L119.9080 -25.4460
" />
<path d="M112.2980 -31.4060
L112.2980 -30.6560
" />
<path d="M112.2980 -30.6560
L114.0980 -30.6560
" />
<path d="M112.2980 -29.1560
L113.0480 -29.1560
" />
<path d="M113.0480 -29.1560
L113.0480 -26.2060
" />
<path d="M113.0480 -26.2060
L116.0980 -26.2060
" />
<path d="M113.2480 -31.7060
L111.9980 -31.7060
" />
<path d="M114.0980 -31.4060
L112.2980 -31.4060
" />
<path d="M114.0980 -30.6560
L114.0980 -31.4060
" />
<path d="M115.5980 -31.4060
L115.5980 -30.6560
" />
<path d="M115.5980 -30.6560
L116.5980 -30.6560
" />
<path d="M116.5980 -31.4060
L115.5980 -31.4060
" />
<path d="M116.5980 -30.6560
L116.5980 -31.4060
" />
<path d="M118.0980 -31.4060
L118.0980 -30.6560
" />
<path d="M118.0980 -30.6560
L119.8980 -30.6560
" />
<path d="M119.1480 -29.1560
L119.1480 -26.2060
" />
<path d="M119.1480 -26.2060
L116.0980 -26.2060
" />
<path d="M119.8980 -31.4060
L118.0980 -31.4060
" />
<path d="M119.8980 -30.6560
L119.8980 -31.4060
" />
<path d="M119.8980 -29.1560
L119.1480 -29.1560
" />
<path d="M119.9080 -31.4160
L112.2880 -31.4160
" />
<path d="M119.9080 -25.4460
L119.9080 -31.4160
" />
<path d="M84.8500 -9.2500
L84.8500 -7.7500
" />
<path d="M86.1000 -5.2500
L90.6000 -5.2500
" />
<path d="M90.6000 -11.7500
L86.1000 -11.7500
" />
<path d="M91.8500 -7.7500
L91.8500 -9.2500
" />
<path d="M4.5990 -35.5869
L4.5990 -36.0411
" />
<path d="M6.0690 -35.5869
L6.0690 -36.0411
" />
<path d="M105.7500 -20.2500
L105.7500 -18.7500
" />
<path d="M107.0000 -16.2500
L111.5000 -16.2500
" />
<path d="M111.5000 -22.7500
L107.0000 -22.7500
" />
<path d="M112.7500 -18.7500
L112.7500 -20.2500
" />
<path d="M15.9080 -15.4500
L23.2080 -15.4500
" />
<path d="M15.9080 -9.9500
L23.2080 -9.9500
" />
<path d="M23.2080 -9.9500
L23.2080 -11.1000
" />
<path d="M19.3400 -41.2940
L13.3300 -41.2940
" />
<path d="M17.0900 -48.1140
L13.3300 -48.1140
" />
<path d="M13.3300 -41.2940
L13.3300 -42.5540
" />
<path d="M13.3300 -48.1140
L13.3300 -46.8540
" />
<path d="M11.0005 -37.3740
L9.3255 -37.3740
" />
<path d="M11.0005 -37.3740
L11.6505 -37.3740
" />
<path d="M11.0005 -34.2540
L10.3505 -34.2540
" />
<path d="M11.0005 -34.2540
L11.6505 -34.2540
" />
<g >
</g>
<g >
</g>
<g >
</g>
<g >
</g>
<g >
</g>
<g >
</g>
<g >
</g>
<g >
</g>
<g >
</g>
<g >
</g>
<g >
</g>
<g >
</g>
<g >
</g>
<g >
</g>
<g >
</g>
<g >
</g>
<g >
</g>
<g >
</g>
<g >
</g>
<g >
</g>
<g >
</g>
<g >
</g>
<g >
</g>
<g >
</g>
<g >
</g>
<g >
</g>
<g >
</g>
</g> 
</svg>
