<?xml version="1.0" standalone="no"?>
 <!DOCTYPE svg PUBLIC "-//W3C//DTD SVG 1.1//EN" 
 "http://www.w3.org/Graphics/SVG/1.1/DTD/svg11.dtd"> 
<svg
  xmlns:svg="http://www.w3.org/2000/svg"
  xmlns="http://www.w3.org/2000/svg"
  xmlns:xlink="http://www.w3.org/1999/xlink"
  version="1.1"
  width="297.0022mm" height="210.0072mm" viewBox="0.0000 0.0000 297.0022 210.0072">
<title>SVG Image created as bouilloire_pcb-B_Silkscreen.svg date 2023/11/26 16:44:29 </title>
  <desc>Image generated by PCBNEW </desc>
<g style="fill:#000000; fill-opacity:1.0000;stroke:#000000; stroke-opacity:1.0000;
stroke-linecap:round; stroke-linejoin:round;"
 transform="translate(0 0) scale(1 1)">
</g>
<g style="fill:#000000; fill-opacity:0.0; 
stroke:#000000; stroke-width:0.0000; stroke-opacity:1; 
stroke-linecap:round; stroke-linejoin:round;">
</g>
<g style="fill:#000000; fill-opacity:0.0; 
stroke:#000000; stroke-width:0.1500; stroke-opacity:1; 
stroke-linecap:round; stroke-linejoin:round;">
<g transform="rotate(-90.000000 63.7540 -11.9380)">
<text x="63.7540" y="-11.4380"
transform="scale(-1 1) translate(-127.508000 0)"
textLength="2.2500" font-size="1.3333" lengthAdjust="spacingAndGlyphs"
text-anchor="middle" opacity="0">U1</text>
</g>
<g class="stroked-text"><desc>U1</desc>
<path d="M63.2088 -12.6999
L64.0183 -12.6999
" />
<path d="M64.0183 -12.6999
L64.1136 -12.6523
" />
<path d="M64.1136 -12.6523
L64.1612 -12.6047
" />
<path d="M64.1612 -12.6047
L64.2088 -12.5094
" />
<path d="M64.2088 -12.5094
L64.2088 -12.3190
" />
<path d="M64.2088 -12.3190
L64.1612 -12.2237
" />
<path d="M64.1612 -12.2237
L64.1136 -12.1761
" />
<path d="M64.1136 -12.1761
L64.0183 -12.1285
" />
<path d="M64.0183 -12.1285
L63.2088 -12.1285
" />
<path d="M64.2088 -11.1285
L64.2088 -11.6999
" />
<path d="M64.2088 -11.4142
L63.2088 -11.4142
" />
<path d="M63.2088 -11.4142
L63.3517 -11.5094
" />
<path d="M63.3517 -11.5094
L63.4469 -11.6047
" />
<path d="M63.4469 -11.6047
L63.4945 -11.6999
" />
</g><g transform="rotate(-45.000000 57.4040 -18.0340)">
<text x="57.4040" y="-17.6340"
transform="scale(-1 1) translate(-114.808000 0)"
textLength="2.7281" font-size="1.0667" lengthAdjust="spacingAndGlyphs"
text-anchor="middle" opacity="0">GND</text>
</g>
<g class="stroked-text"><desc>GND</desc>
<path d="M57.5524 -18.7476
L57.5794 -18.8284
" />
<path d="M57.5794 -18.8284
L57.6602 -18.9092
" />
<path d="M57.6602 -18.9092
L57.7679 -18.9631
" />
<path d="M57.7679 -18.9631
L57.8757 -18.9631
" />
<path d="M57.8757 -18.9631
L57.9565 -18.9361
" />
<path d="M57.9565 -18.9361
L58.0912 -18.8553
" />
<path d="M58.0912 -18.8553
L58.1720 -18.7745
" />
<path d="M58.1720 -18.7745
L58.2528 -18.6398
" />
<path d="M58.2528 -18.6398
L58.2797 -18.5590
" />
<path d="M58.2797 -18.5590
L58.2797 -18.4513
" />
<path d="M58.2797 -18.4513
L58.2259 -18.3435
" />
<path d="M58.2259 -18.3435
L58.1720 -18.2896
" />
<path d="M58.1720 -18.2896
L58.0642 -18.2358
" />
<path d="M58.0642 -18.2358
L58.0104 -18.2358
" />
<path d="M58.0104 -18.2358
L57.8218 -18.4243
" />
<path d="M57.8218 -18.4243
L57.9296 -18.5321
" />
<path d="M57.8218 -17.9394
L57.2561 -18.5051
" />
<path d="M57.2561 -18.5051
L57.4986 -17.6162
" />
<path d="M57.4986 -17.6162
L56.9329 -18.1819
" />
<path d="M57.2292 -17.3468
L56.6635 -17.9125
" />
<path d="M56.6635 -17.9125
L56.5288 -17.7778
" />
<path d="M56.5288 -17.7778
L56.4749 -17.6701
" />
<path d="M56.4749 -17.6701
L56.4749 -17.5623
" />
<path d="M56.4749 -17.5623
L56.5019 -17.4815
" />
<path d="M56.5019 -17.4815
L56.5827 -17.3468
" />
<path d="M56.5827 -17.3468
L56.6635 -17.2660
" />
<path d="M56.6635 -17.2660
L56.7982 -17.1852
" />
<path d="M56.7982 -17.1852
L56.8790 -17.1583
" />
<path d="M56.8790 -17.1583
L56.9867 -17.1583
" />
<path d="M56.9867 -17.1583
L57.0945 -17.2121
" />
<path d="M57.0945 -17.2121
L57.2292 -17.3468
" />
</g><g transform="rotate(-45.000000 49.7840 -18.2880)">
<text x="49.7840" y="-17.8880"
transform="scale(-1 1) translate(-99.568000 0)"
textLength="3.4138" font-size="1.0667" lengthAdjust="spacingAndGlyphs"
text-anchor="middle" opacity="0">GP19</text>
</g>
<g class="stroked-text"><desc>GP19</desc>
<path d="M50.1749 -19.2440
L50.2018 -19.3248
" />
<path d="M50.2018 -19.3248
L50.2826 -19.4056
" />
<path d="M50.2826 -19.4056
L50.3904 -19.4595
" />
<path d="M50.3904 -19.4595
L50.4981 -19.4595
" />
<path d="M50.4981 -19.4595
L50.5789 -19.4326
" />
<path d="M50.5789 -19.4326
L50.7136 -19.3518
" />
<path d="M50.7136 -19.3518
L50.7944 -19.2709
" />
<path d="M50.7944 -19.2709
L50.8752 -19.1363
" />
<path d="M50.8752 -19.1363
L50.9022 -19.0554
" />
<path d="M50.9022 -19.0554
L50.9022 -18.9477
" />
<path d="M50.9022 -18.9477
L50.8483 -18.8399
" />
<path d="M50.8483 -18.8399
L50.7944 -18.7861
" />
<path d="M50.7944 -18.7861
L50.6867 -18.7322
" />
<path d="M50.6867 -18.7322
L50.6328 -18.7322
" />
<path d="M50.6328 -18.7322
L50.4442 -18.9208
" />
<path d="M50.4442 -18.9208
L50.5520 -19.0285
" />
<path d="M50.4442 -18.4359
L49.8786 -19.0016
" />
<path d="M49.8786 -19.0016
L49.6631 -18.7861
" />
<path d="M49.6631 -18.7861
L49.6361 -18.7053
" />
<path d="M49.6361 -18.7053
L49.6361 -18.6514
" />
<path d="M49.6361 -18.6514
L49.6631 -18.5706
" />
<path d="M49.6631 -18.5706
L49.7439 -18.4898
" />
<path d="M49.7439 -18.4898
L49.8247 -18.4628
" />
<path d="M49.8247 -18.4628
L49.8786 -18.4628
" />
<path d="M49.8786 -18.4628
L49.9594 -18.4898
" />
<path d="M49.9594 -18.4898
L50.1749 -18.7053
" />
<path d="M49.5822 -17.5739
L49.9055 -17.8971
" />
<path d="M49.7439 -17.7355
L49.1782 -18.3012
" />
<path d="M49.1782 -18.3012
L49.3129 -18.2743
" />
<path d="M49.3129 -18.2743
L49.4206 -18.2743
" />
<path d="M49.4206 -18.2743
L49.5014 -18.3012
" />
<path d="M49.3129 -17.3045
L49.2051 -17.1968
" />
<path d="M49.2051 -17.1968
L49.1243 -17.1698
" />
<path d="M49.1243 -17.1698
L49.0704 -17.1698
" />
<path d="M49.0704 -17.1698
L48.9357 -17.1968
" />
<path d="M48.9357 -17.1968
L48.8011 -17.2776
" />
<path d="M48.8011 -17.2776
L48.5856 -17.4931
" />
<path d="M48.5856 -17.4931
L48.5586 -17.5739
" />
<path d="M48.5586 -17.5739
L48.5586 -17.6278
" />
<path d="M48.5586 -17.6278
L48.5856 -17.7086
" />
<path d="M48.5856 -17.7086
L48.6933 -17.8163
" />
<path d="M48.6933 -17.8163
L48.7741 -17.8433
" />
<path d="M48.7741 -17.8433
L48.8280 -17.8433
" />
<path d="M48.8280 -17.8433
L48.9088 -17.8163
" />
<path d="M48.9088 -17.8163
L49.0435 -17.6816
" />
<path d="M49.0435 -17.6816
L49.0704 -17.6008
" />
<path d="M49.0704 -17.6008
L49.0704 -17.5469
" />
<path d="M49.0704 -17.5469
L49.0435 -17.4661
" />
<path d="M49.0435 -17.4661
L48.9357 -17.3584
" />
<path d="M48.9357 -17.3584
L48.8549 -17.3314
" />
<path d="M48.8549 -17.3314
L48.8011 -17.3314
" />
<path d="M48.8011 -17.3314
L48.7202 -17.3584
" />
</g><g transform="rotate(-45.000000 67.5640 -5.8420)">
<text x="67.5640" y="-5.4420"
transform="scale(-1 1) translate(-135.128000 0)"
textLength="2.6519" font-size="1.0667" lengthAdjust="spacingAndGlyphs"
text-anchor="middle" opacity="0">GP6</text>
</g>
<g class="stroked-text"><desc>GP6</desc>
<path d="M67.6855 -6.5286
L67.7124 -6.6094
" />
<path d="M67.7124 -6.6094
L67.7932 -6.6903
" />
<path d="M67.7932 -6.6903
L67.9010 -6.7441
" />
<path d="M67.9010 -6.7441
L68.0087 -6.7441
" />
<path d="M68.0087 -6.7441
L68.0896 -6.7172
" />
<path d="M68.0896 -6.7172
L68.2242 -6.6364
" />
<path d="M68.2242 -6.6364
L68.3051 -6.5556
" />
<path d="M68.3051 -6.5556
L68.3859 -6.4209
" />
<path d="M68.3859 -6.4209
L68.4128 -6.3401
" />
<path d="M68.4128 -6.3401
L68.4128 -6.2323
" />
<path d="M68.4128 -6.2323
L68.3589 -6.1246
" />
<path d="M68.3589 -6.1246
L68.3051 -6.0707
" />
<path d="M68.3051 -6.0707
L68.1973 -6.0168
" />
<path d="M68.1973 -6.0168
L68.1434 -6.0168
" />
<path d="M68.1434 -6.0168
L67.9549 -6.2054
" />
<path d="M67.9549 -6.2054
L68.0626 -6.3131
" />
<path d="M67.9549 -5.7205
L67.3892 -6.2862
" />
<path d="M67.3892 -6.2862
L67.1737 -6.0707
" />
<path d="M67.1737 -6.0707
L67.1467 -5.9899
" />
<path d="M67.1467 -5.9899
L67.1467 -5.9360
" />
<path d="M67.1467 -5.9360
L67.1737 -5.8552
" />
<path d="M67.1737 -5.8552
L67.2545 -5.7744
" />
<path d="M67.2545 -5.7744
L67.3353 -5.7474
" />
<path d="M67.3353 -5.7474
L67.3892 -5.7474
" />
<path d="M67.3892 -5.7474
L67.4700 -5.7744
" />
<path d="M67.4700 -5.7744
L67.6855 -5.9899
" />
<path d="M66.5811 -5.4781
L66.6888 -5.5858
" />
<path d="M66.6888 -5.5858
L66.7696 -5.6128
" />
<path d="M66.7696 -5.6128
L66.8235 -5.6128
" />
<path d="M66.8235 -5.6128
L66.9582 -5.5858
" />
<path d="M66.9582 -5.5858
L67.0929 -5.5050
" />
<path d="M67.0929 -5.5050
L67.3084 -5.2895
" />
<path d="M67.3084 -5.2895
L67.3353 -5.2087
" />
<path d="M67.3353 -5.2087
L67.3353 -5.1548
" />
<path d="M67.3353 -5.1548
L67.3084 -5.0740
" />
<path d="M67.3084 -5.0740
L67.2006 -4.9663
" />
<path d="M67.2006 -4.9663
L67.1198 -4.9393
" />
<path d="M67.1198 -4.9393
L67.0659 -4.9393
" />
<path d="M67.0659 -4.9393
L66.9851 -4.9663
" />
<path d="M66.9851 -4.9663
L66.8504 -5.1009
" />
<path d="M66.8504 -5.1009
L66.8235 -5.1818
" />
<path d="M66.8235 -5.1818
L66.8235 -5.2356
" />
<path d="M66.8235 -5.2356
L66.8504 -5.3164
" />
<path d="M66.8504 -5.3164
L66.9582 -5.4242
" />
<path d="M66.9582 -5.4242
L67.0390 -5.4511
" />
<path d="M67.0390 -5.4511
L67.0929 -5.4511
" />
<path d="M67.0929 -5.4511
L67.1737 -5.4242
" />
</g><g transform="rotate(-45.000000 62.4840 -5.8420)">
<text x="62.4840" y="-5.4420"
transform="scale(-1 1) translate(-124.968000 0)"
textLength="2.6519" font-size="1.0667" lengthAdjust="spacingAndGlyphs"
text-anchor="middle" opacity="0">GP8</text>
</g>
<g class="stroked-text"><desc>GP8</desc>
<path d="M62.6055 -6.5286
L62.6324 -6.6094
" />
<path d="M62.6324 -6.6094
L62.7132 -6.6903
" />
<path d="M62.7132 -6.6903
L62.8210 -6.7441
" />
<path d="M62.8210 -6.7441
L62.9287 -6.7441
" />
<path d="M62.9287 -6.7441
L63.0096 -6.7172
" />
<path d="M63.0096 -6.7172
L63.1442 -6.6364
" />
<path d="M63.1442 -6.6364
L63.2251 -6.5556
" />
<path d="M63.2251 -6.5556
L63.3059 -6.4209
" />
<path d="M63.3059 -6.4209
L63.3328 -6.3401
" />
<path d="M63.3328 -6.3401
L63.3328 -6.2323
" />
<path d="M63.3328 -6.2323
L63.2789 -6.1246
" />
<path d="M63.2789 -6.1246
L63.2251 -6.0707
" />
<path d="M63.2251 -6.0707
L63.1173 -6.0168
" />
<path d="M63.1173 -6.0168
L63.0634 -6.0168
" />
<path d="M63.0634 -6.0168
L62.8749 -6.2054
" />
<path d="M62.8749 -6.2054
L62.9826 -6.3131
" />
<path d="M62.8749 -5.7205
L62.3092 -6.2862
" />
<path d="M62.3092 -6.2862
L62.0937 -6.0707
" />
<path d="M62.0937 -6.0707
L62.0667 -5.9899
" />
<path d="M62.0667 -5.9899
L62.0667 -5.9360
" />
<path d="M62.0667 -5.9360
L62.0937 -5.8552
" />
<path d="M62.0937 -5.8552
L62.1745 -5.7744
" />
<path d="M62.1745 -5.7744
L62.2553 -5.7474
" />
<path d="M62.2553 -5.7474
L62.3092 -5.7474
" />
<path d="M62.3092 -5.7474
L62.3900 -5.7744
" />
<path d="M62.3900 -5.7744
L62.6055 -5.9899
" />
<path d="M61.9051 -5.3973
L61.9321 -5.4781
" />
<path d="M61.9321 -5.4781
L61.9321 -5.5319
" />
<path d="M61.9321 -5.5319
L61.9051 -5.6128
" />
<path d="M61.9051 -5.6128
L61.8782 -5.6397
" />
<path d="M61.8782 -5.6397
L61.7974 -5.6666
" />
<path d="M61.7974 -5.6666
L61.7435 -5.6666
" />
<path d="M61.7435 -5.6666
L61.6627 -5.6397
" />
<path d="M61.6627 -5.6397
L61.5549 -5.5319
" />
<path d="M61.5549 -5.5319
L61.5280 -5.4511
" />
<path d="M61.5280 -5.4511
L61.5280 -5.3973
" />
<path d="M61.5280 -5.3973
L61.5549 -5.3164
" />
<path d="M61.5549 -5.3164
L61.5819 -5.2895
" />
<path d="M61.5819 -5.2895
L61.6627 -5.2626
" />
<path d="M61.6627 -5.2626
L61.7166 -5.2626
" />
<path d="M61.7166 -5.2626
L61.7974 -5.2895
" />
<path d="M61.7974 -5.2895
L61.9051 -5.3973
" />
<path d="M61.9051 -5.3973
L61.9859 -5.4242
" />
<path d="M61.9859 -5.4242
L62.0398 -5.4242
" />
<path d="M62.0398 -5.4242
L62.1206 -5.3973
" />
<path d="M62.1206 -5.3973
L62.2284 -5.2895
" />
<path d="M62.2284 -5.2895
L62.2553 -5.2087
" />
<path d="M62.2553 -5.2087
L62.2553 -5.1548
" />
<path d="M62.2553 -5.1548
L62.2284 -5.0740
" />
<path d="M62.2284 -5.0740
L62.1206 -4.9663
" />
<path d="M62.1206 -4.9663
L62.0398 -4.9393
" />
<path d="M62.0398 -4.9393
L61.9859 -4.9393
" />
<path d="M61.9859 -4.9393
L61.9051 -4.9663
" />
<path d="M61.9051 -4.9663
L61.7974 -5.0740
" />
<path d="M61.7974 -5.0740
L61.7704 -5.1548
" />
<path d="M61.7704 -5.1548
L61.7704 -5.2087
" />
<path d="M61.7704 -5.2087
L61.7974 -5.2895
" />
</g><g transform="rotate(-45.000000 52.3240 -5.4420)">
<text x="52.3240" y="-5.0420"
transform="scale(-1 1) translate(-104.648000 0)"
textLength="3.4138" font-size="1.0667" lengthAdjust="spacingAndGlyphs"
text-anchor="middle" opacity="0">GP11</text>
</g>
<g class="stroked-text"><desc>GP11</desc>
<path d="M52.7149 -6.3980
L52.7418 -6.4788
" />
<path d="M52.7418 -6.4788
L52.8226 -6.5596
" />
<path d="M52.8226 -6.5596
L52.9304 -6.6135
" />
<path d="M52.9304 -6.6135
L53.0381 -6.6135
" />
<path d="M53.0381 -6.6135
L53.1189 -6.5866
" />
<path d="M53.1189 -6.5866
L53.2536 -6.5058
" />
<path d="M53.2536 -6.5058
L53.3344 -6.4249
" />
<path d="M53.3344 -6.4249
L53.4152 -6.2903
" />
<path d="M53.4152 -6.2903
L53.4422 -6.2094
" />
<path d="M53.4422 -6.2094
L53.4422 -6.1017
" />
<path d="M53.4422 -6.1017
L53.3883 -5.9939
" />
<path d="M53.3883 -5.9939
L53.3344 -5.9401
" />
<path d="M53.3344 -5.9401
L53.2267 -5.8862
" />
<path d="M53.2267 -5.8862
L53.1728 -5.8862
" />
<path d="M53.1728 -5.8862
L52.9842 -6.0748
" />
<path d="M52.9842 -6.0748
L53.0920 -6.1825
" />
<path d="M52.9842 -5.5899
L52.4186 -6.1556
" />
<path d="M52.4186 -6.1556
L52.2031 -5.9401
" />
<path d="M52.2031 -5.9401
L52.1761 -5.8593
" />
<path d="M52.1761 -5.8593
L52.1761 -5.8054
" />
<path d="M52.1761 -5.8054
L52.2031 -5.7246
" />
<path d="M52.2031 -5.7246
L52.2839 -5.6438
" />
<path d="M52.2839 -5.6438
L52.3647 -5.6168
" />
<path d="M52.3647 -5.6168
L52.4186 -5.6168
" />
<path d="M52.4186 -5.6168
L52.4994 -5.6438
" />
<path d="M52.4994 -5.6438
L52.7149 -5.8593
" />
<path d="M52.1222 -4.7279
L52.4455 -5.0511
" />
<path d="M52.2839 -4.8895
L51.7182 -5.4552
" />
<path d="M51.7182 -5.4552
L51.8529 -5.4283
" />
<path d="M51.8529 -5.4283
L51.9606 -5.4283
" />
<path d="M51.9606 -5.4283
L52.0414 -5.4552
" />
<path d="M51.5835 -4.1891
L51.9067 -4.5124
" />
<path d="M51.7451 -4.3508
L51.1794 -4.9164
" />
<path d="M51.1794 -4.9164
L51.3141 -4.8895
" />
<path d="M51.3141 -4.8895
L51.4219 -4.8895
" />
<path d="M51.4219 -4.8895
L51.5027 -4.9164
" />
</g><g transform="rotate(-45.000000 77.7240 -5.8420)">
<text x="77.7240" y="-5.4420"
transform="scale(-1 1) translate(-155.448000 0)"
textLength="2.6519" font-size="1.0667" lengthAdjust="spacingAndGlyphs"
text-anchor="middle" opacity="0">GP3</text>
</g>
<g class="stroked-text"><desc>GP3</desc>
<path d="M77.8455 -6.5286
L77.8724 -6.6094
" />
<path d="M77.8724 -6.6094
L77.9532 -6.6903
" />
<path d="M77.9532 -6.6903
L78.0610 -6.7441
" />
<path d="M78.0610 -6.7441
L78.1687 -6.7441
" />
<path d="M78.1687 -6.7441
L78.2496 -6.7172
" />
<path d="M78.2496 -6.7172
L78.3842 -6.6364
" />
<path d="M78.3842 -6.6364
L78.4651 -6.5556
" />
<path d="M78.4651 -6.5556
L78.5459 -6.4209
" />
<path d="M78.5459 -6.4209
L78.5728 -6.3401
" />
<path d="M78.5728 -6.3401
L78.5728 -6.2323
" />
<path d="M78.5728 -6.2323
L78.5189 -6.1246
" />
<path d="M78.5189 -6.1246
L78.4651 -6.0707
" />
<path d="M78.4651 -6.0707
L78.3573 -6.0168
" />
<path d="M78.3573 -6.0168
L78.3034 -6.0168
" />
<path d="M78.3034 -6.0168
L78.1149 -6.2054
" />
<path d="M78.1149 -6.2054
L78.2226 -6.3131
" />
<path d="M78.1149 -5.7205
L77.5492 -6.2862
" />
<path d="M77.5492 -6.2862
L77.3337 -6.0707
" />
<path d="M77.3337 -6.0707
L77.3067 -5.9899
" />
<path d="M77.3067 -5.9899
L77.3067 -5.9360
" />
<path d="M77.3067 -5.9360
L77.3337 -5.8552
" />
<path d="M77.3337 -5.8552
L77.4145 -5.7744
" />
<path d="M77.4145 -5.7744
L77.4953 -5.7474
" />
<path d="M77.4953 -5.7474
L77.5492 -5.7474
" />
<path d="M77.5492 -5.7474
L77.6300 -5.7744
" />
<path d="M77.6300 -5.7744
L77.8455 -5.9899
" />
<path d="M77.0374 -5.7744
L76.6872 -5.4242
" />
<path d="M76.6872 -5.4242
L77.0912 -5.3973
" />
<path d="M77.0912 -5.3973
L77.0104 -5.3164
" />
<path d="M77.0104 -5.3164
L76.9835 -5.2356
" />
<path d="M76.9835 -5.2356
L76.9835 -5.1818
" />
<path d="M76.9835 -5.1818
L77.0104 -5.1009
" />
<path d="M77.0104 -5.1009
L77.1451 -4.9663
" />
<path d="M77.1451 -4.9663
L77.2259 -4.9393
" />
<path d="M77.2259 -4.9393
L77.2798 -4.9393
" />
<path d="M77.2798 -4.9393
L77.3606 -4.9663
" />
<path d="M77.3606 -4.9663
L77.5222 -5.1279
" />
<path d="M77.5222 -5.1279
L77.5492 -5.2087
" />
<path d="M77.5492 -5.2087
L77.5492 -5.2626
" />
</g><g transform="rotate(-45.000000 85.3440 -18.4340)">
<text x="85.3440" y="-18.0340"
transform="scale(-1 1) translate(-170.688000 0)"
textLength="3.1852" font-size="1.0667" lengthAdjust="spacingAndGlyphs"
text-anchor="middle" opacity="0">VSYS</text>
</g>
<g class="stroked-text"><desc>VSYS</desc>
<path d="M86.0042 -19.7132
L86.3814 -18.9590
" />
<path d="M86.3814 -18.9590
L85.6271 -19.3361
" />
<path d="M86.0042 -18.6358
L85.9504 -18.5280
" />
<path d="M85.9504 -18.5280
L85.8157 -18.3933
" />
<path d="M85.8157 -18.3933
L85.7349 -18.3664
" />
<path d="M85.7349 -18.3664
L85.6810 -18.3664
" />
<path d="M85.6810 -18.3664
L85.6002 -18.3933
" />
<path d="M85.6002 -18.3933
L85.5463 -18.4472
" />
<path d="M85.5463 -18.4472
L85.5194 -18.5280
" />
<path d="M85.5194 -18.5280
L85.5194 -18.5819
" />
<path d="M85.5194 -18.5819
L85.5463 -18.6627
" />
<path d="M85.5463 -18.6627
L85.6271 -18.7974
" />
<path d="M85.6271 -18.7974
L85.6541 -18.8782
" />
<path d="M85.6541 -18.8782
L85.6541 -18.9321
" />
<path d="M85.6541 -18.9321
L85.6271 -19.0129
" />
<path d="M85.6271 -19.0129
L85.5732 -19.0668
" />
<path d="M85.5732 -19.0668
L85.4924 -19.0937
" />
<path d="M85.4924 -19.0937
L85.4386 -19.0937
" />
<path d="M85.4386 -19.0937
L85.3577 -19.0668
" />
<path d="M85.3577 -19.0668
L85.2231 -18.9321
" />
<path d="M85.2231 -18.9321
L85.1692 -18.8243
" />
<path d="M85.0884 -18.2048
L85.3577 -17.9354
" />
<path d="M84.9806 -18.6896
L85.0884 -18.2048
" />
<path d="M85.0884 -18.2048
L84.6035 -18.3125
" />
<path d="M84.9806 -17.6121
L84.9267 -17.5044
" />
<path d="M84.9267 -17.5044
L84.7921 -17.3697
" />
<path d="M84.7921 -17.3697
L84.7112 -17.3428
" />
<path d="M84.7112 -17.3428
L84.6574 -17.3428
" />
<path d="M84.6574 -17.3428
L84.5766 -17.3697
" />
<path d="M84.5766 -17.3697
L84.5227 -17.4236
" />
<path d="M84.5227 -17.4236
L84.4957 -17.5044
" />
<path d="M84.4957 -17.5044
L84.4957 -17.5583
" />
<path d="M84.4957 -17.5583
L84.5227 -17.6391
" />
<path d="M84.5227 -17.6391
L84.6035 -17.7738
" />
<path d="M84.6035 -17.7738
L84.6304 -17.8546
" />
<path d="M84.6304 -17.8546
L84.6304 -17.9084
" />
<path d="M84.6304 -17.9084
L84.6035 -17.9893
" />
<path d="M84.6035 -17.9893
L84.5496 -18.0431
" />
<path d="M84.5496 -18.0431
L84.4688 -18.0701
" />
<path d="M84.4688 -18.0701
L84.4149 -18.0701
" />
<path d="M84.4149 -18.0701
L84.3341 -18.0431
" />
<path d="M84.3341 -18.0431
L84.1994 -17.9084
" />
<path d="M84.1994 -17.9084
L84.1456 -17.8007
" />
</g><g transform="rotate(-45.000000 54.8640 -5.5880)">
<text x="54.8640" y="-5.1880"
transform="scale(-1 1) translate(-109.728000 0)"
textLength="3.4138" font-size="1.0667" lengthAdjust="spacingAndGlyphs"
text-anchor="middle" opacity="0">GP10</text>
</g>
<g class="stroked-text"><desc>GP10</desc>
<path d="M55.2549 -6.5440
L55.2818 -6.6248
" />
<path d="M55.2818 -6.6248
L55.3626 -6.7056
" />
<path d="M55.3626 -6.7056
L55.4704 -6.7595
" />
<path d="M55.4704 -6.7595
L55.5781 -6.7595
" />
<path d="M55.5781 -6.7595
L55.6589 -6.7326
" />
<path d="M55.6589 -6.7326
L55.7936 -6.6518
" />
<path d="M55.7936 -6.6518
L55.8744 -6.5709
" />
<path d="M55.8744 -6.5709
L55.9552 -6.4363
" />
<path d="M55.9552 -6.4363
L55.9822 -6.3554
" />
<path d="M55.9822 -6.3554
L55.9822 -6.2477
" />
<path d="M55.9822 -6.2477
L55.9283 -6.1399
" />
<path d="M55.9283 -6.1399
L55.8744 -6.0861
" />
<path d="M55.8744 -6.0861
L55.7667 -6.0322
" />
<path d="M55.7667 -6.0322
L55.7128 -6.0322
" />
<path d="M55.7128 -6.0322
L55.5242 -6.2208
" />
<path d="M55.5242 -6.2208
L55.6320 -6.3285
" />
<path d="M55.5242 -5.7359
L54.9586 -6.3016
" />
<path d="M54.9586 -6.3016
L54.7431 -6.0861
" />
<path d="M54.7431 -6.0861
L54.7161 -6.0053
" />
<path d="M54.7161 -6.0053
L54.7161 -5.9514
" />
<path d="M54.7161 -5.9514
L54.7431 -5.8706
" />
<path d="M54.7431 -5.8706
L54.8239 -5.7898
" />
<path d="M54.8239 -5.7898
L54.9047 -5.7628
" />
<path d="M54.9047 -5.7628
L54.9586 -5.7628
" />
<path d="M54.9586 -5.7628
L55.0394 -5.7898
" />
<path d="M55.0394 -5.7898
L55.2549 -6.0053
" />
<path d="M54.6622 -4.8739
L54.9855 -5.1971
" />
<path d="M54.8239 -5.0355
L54.2582 -5.6012
" />
<path d="M54.2582 -5.6012
L54.3929 -5.5743
" />
<path d="M54.3929 -5.5743
L54.5006 -5.5743
" />
<path d="M54.5006 -5.5743
L54.5814 -5.6012
" />
<path d="M53.7464 -5.0894
L53.6925 -5.0355
" />
<path d="M53.6925 -5.0355
L53.6656 -4.9547
" />
<path d="M53.6656 -4.9547
L53.6656 -4.9008
" />
<path d="M53.6656 -4.9008
L53.6925 -4.8200
" />
<path d="M53.6925 -4.8200
L53.7733 -4.6853
" />
<path d="M53.7733 -4.6853
L53.9080 -4.5506
" />
<path d="M53.9080 -4.5506
L54.0427 -4.4698
" />
<path d="M54.0427 -4.4698
L54.1235 -4.4429
" />
<path d="M54.1235 -4.4429
L54.1774 -4.4429
" />
<path d="M54.1774 -4.4429
L54.2582 -4.4698
" />
<path d="M54.2582 -4.4698
L54.3121 -4.5237
" />
<path d="M54.3121 -4.5237
L54.3390 -4.6045
" />
<path d="M54.3390 -4.6045
L54.3390 -4.6584
" />
<path d="M54.3390 -4.6584
L54.3121 -4.7392
" />
<path d="M54.3121 -4.7392
L54.2312 -4.8739
" />
<path d="M54.2312 -4.8739
L54.0966 -5.0086
" />
<path d="M54.0966 -5.0086
L53.9619 -5.0894
" />
<path d="M53.9619 -5.0894
L53.8811 -5.1163
" />
<path d="M53.8811 -5.1163
L53.8272 -5.1163
" />
<path d="M53.8272 -5.1163
L53.7464 -5.0894
" />
</g><g transform="rotate(-45.000000 70.1040 -18.2880)">
<text x="70.1040" y="-17.8880"
transform="scale(-1 1) translate(-140.208000 0)"
textLength="3.4138" font-size="1.0667" lengthAdjust="spacingAndGlyphs"
text-anchor="middle" opacity="0">AGND</text>
</g>
<g class="stroked-text"><desc>AGND</desc>
<path d="M71.1952 -19.1901
L70.9259 -18.9208
" />
<path d="M71.4107 -19.0824
L70.6565 -19.4595
" />
<path d="M70.6565 -19.4595
L71.0336 -18.7053
" />
<path d="M70.0100 -18.7591
L70.0369 -18.8399
" />
<path d="M70.0369 -18.8399
L70.1177 -18.9208
" />
<path d="M70.1177 -18.9208
L70.2255 -18.9746
" />
<path d="M70.2255 -18.9746
L70.3332 -18.9746
" />
<path d="M70.3332 -18.9746
L70.4141 -18.9477
" />
<path d="M70.4141 -18.9477
L70.5487 -18.8669
" />
<path d="M70.5487 -18.8669
L70.6296 -18.7861
" />
<path d="M70.6296 -18.7861
L70.7104 -18.6514
" />
<path d="M70.7104 -18.6514
L70.7373 -18.5706
" />
<path d="M70.7373 -18.5706
L70.7373 -18.4628
" />
<path d="M70.7373 -18.4628
L70.6834 -18.3551
" />
<path d="M70.6834 -18.3551
L70.6296 -18.3012
" />
<path d="M70.6296 -18.3012
L70.5218 -18.2473
" />
<path d="M70.5218 -18.2473
L70.4679 -18.2473
" />
<path d="M70.4679 -18.2473
L70.2794 -18.4359
" />
<path d="M70.2794 -18.4359
L70.3871 -18.5436
" />
<path d="M70.2794 -17.9510
L69.7137 -18.5167
" />
<path d="M69.7137 -18.5167
L69.9561 -17.6278
" />
<path d="M69.9561 -17.6278
L69.3904 -18.1934
" />
<path d="M69.6867 -17.3584
L69.1211 -17.9241
" />
<path d="M69.1211 -17.9241
L68.9864 -17.7894
" />
<path d="M68.9864 -17.7894
L68.9325 -17.6816
" />
<path d="M68.9325 -17.6816
L68.9325 -17.5739
" />
<path d="M68.9325 -17.5739
L68.9594 -17.4931
" />
<path d="M68.9594 -17.4931
L69.0402 -17.3584
" />
<path d="M69.0402 -17.3584
L69.1211 -17.2776
" />
<path d="M69.1211 -17.2776
L69.2557 -17.1968
" />
<path d="M69.2557 -17.1968
L69.3366 -17.1698
" />
<path d="M69.3366 -17.1698
L69.4443 -17.1698
" />
<path d="M69.4443 -17.1698
L69.5521 -17.2237
" />
<path d="M69.5521 -17.2237
L69.6867 -17.3584
" />
</g><g transform="rotate(-45.000000 77.6540 -18.1340)">
<text x="77.6540" y="-17.7340"
transform="scale(-1 1) translate(-155.308000 0)"
textLength="2.4995" font-size="1.0667" lengthAdjust="spacingAndGlyphs"
text-anchor="middle" opacity="0">3V3</text>
</g>
<g class="stroked-text"><desc>3V3</desc>
<path d="M78.0449 -19.1439
L77.6947 -18.7937
" />
<path d="M77.6947 -18.7937
L78.0987 -18.7668
" />
<path d="M78.0987 -18.7668
L78.0179 -18.6859
" />
<path d="M78.0179 -18.6859
L77.9910 -18.6051
" />
<path d="M77.9910 -18.6051
L77.9910 -18.5513
" />
<path d="M77.9910 -18.5513
L78.0179 -18.4704
" />
<path d="M78.0179 -18.4704
L78.1526 -18.3358
" />
<path d="M78.1526 -18.3358
L78.2334 -18.3088
" />
<path d="M78.2334 -18.3088
L78.2873 -18.3088
" />
<path d="M78.2873 -18.3088
L78.3681 -18.3358
" />
<path d="M78.3681 -18.3358
L78.5297 -18.4974
" />
<path d="M78.5297 -18.4974
L78.5567 -18.5782
" />
<path d="M78.5567 -18.5782
L78.5567 -18.6321
" />
<path d="M77.5331 -18.6321
L77.9102 -17.8778
" />
<path d="M77.9102 -17.8778
L77.1559 -18.2549
" />
<path d="M77.0212 -18.1203
L76.6711 -17.7701
" />
<path d="M76.6711 -17.7701
L77.0751 -17.7431
" />
<path d="M77.0751 -17.7431
L76.9943 -17.6623
" />
<path d="M76.9943 -17.6623
L76.9674 -17.5815
" />
<path d="M76.9674 -17.5815
L76.9674 -17.5276
" />
<path d="M76.9674 -17.5276
L76.9943 -17.4468
" />
<path d="M76.9943 -17.4468
L77.1290 -17.3121
" />
<path d="M77.1290 -17.3121
L77.2098 -17.2852
" />
<path d="M77.2098 -17.2852
L77.2637 -17.2852
" />
<path d="M77.2637 -17.2852
L77.3445 -17.3121
" />
<path d="M77.3445 -17.3121
L77.5061 -17.4738
" />
<path d="M77.5061 -17.4738
L77.5331 -17.5546
" />
<path d="M77.5331 -17.5546
L77.5331 -17.6084
" />
</g><g transform="rotate(-45.000000 82.8040 -5.8420)">
<text x="82.8040" y="-5.4420"
transform="scale(-1 1) translate(-165.608000 0)"
textLength="2.7281" font-size="1.0667" lengthAdjust="spacingAndGlyphs"
text-anchor="middle" opacity="0">GND</text>
</g>
<g class="stroked-text"><desc>GND</desc>
<path d="M82.9524 -6.5556
L82.9794 -6.6364
" />
<path d="M82.9794 -6.6364
L83.0602 -6.7172
" />
<path d="M83.0602 -6.7172
L83.1679 -6.7711
" />
<path d="M83.1679 -6.7711
L83.2757 -6.7711
" />
<path d="M83.2757 -6.7711
L83.3565 -6.7441
" />
<path d="M83.3565 -6.7441
L83.4912 -6.6633
" />
<path d="M83.4912 -6.6633
L83.5720 -6.5825
" />
<path d="M83.5720 -6.5825
L83.6528 -6.4478
" />
<path d="M83.6528 -6.4478
L83.6797 -6.3670
" />
<path d="M83.6797 -6.3670
L83.6797 -6.2593
" />
<path d="M83.6797 -6.2593
L83.6259 -6.1515
" />
<path d="M83.6259 -6.1515
L83.5720 -6.0976
" />
<path d="M83.5720 -6.0976
L83.4642 -6.0438
" />
<path d="M83.4642 -6.0438
L83.4104 -6.0438
" />
<path d="M83.4104 -6.0438
L83.2218 -6.2323
" />
<path d="M83.2218 -6.2323
L83.3296 -6.3401
" />
<path d="M83.2218 -5.7474
L82.6561 -6.3131
" />
<path d="M82.6561 -6.3131
L82.8986 -5.4242
" />
<path d="M82.8986 -5.4242
L82.3329 -5.9899
" />
<path d="M82.6292 -5.1548
L82.0635 -5.7205
" />
<path d="M82.0635 -5.7205
L81.9288 -5.5858
" />
<path d="M81.9288 -5.5858
L81.8749 -5.4781
" />
<path d="M81.8749 -5.4781
L81.8749 -5.3703
" />
<path d="M81.8749 -5.3703
L81.9019 -5.2895
" />
<path d="M81.9019 -5.2895
L81.9827 -5.1548
" />
<path d="M81.9827 -5.1548
L82.0635 -5.0740
" />
<path d="M82.0635 -5.0740
L82.1982 -4.9932
" />
<path d="M82.1982 -4.9932
L82.2790 -4.9663
" />
<path d="M82.2790 -4.9663
L82.3867 -4.9663
" />
<path d="M82.3867 -4.9663
L82.4945 -5.0201
" />
<path d="M82.4945 -5.0201
L82.6292 -5.1548
" />
</g><g transform="rotate(-45.000000 54.8540 -18.2880)">
<text x="54.8540" y="-17.8880"
transform="scale(-1 1) translate(-109.708000 0)"
textLength="3.4138" font-size="1.0667" lengthAdjust="spacingAndGlyphs"
text-anchor="middle" opacity="0">GP21</text>
</g>
<g class="stroked-text"><desc>GP21</desc>
<path d="M55.2449 -19.2440
L55.2718 -19.3248
" />
<path d="M55.2718 -19.3248
L55.3526 -19.4056
" />
<path d="M55.3526 -19.4056
L55.4604 -19.4595
" />
<path d="M55.4604 -19.4595
L55.5681 -19.4595
" />
<path d="M55.5681 -19.4595
L55.6489 -19.4326
" />
<path d="M55.6489 -19.4326
L55.7836 -19.3518
" />
<path d="M55.7836 -19.3518
L55.8644 -19.2709
" />
<path d="M55.8644 -19.2709
L55.9452 -19.1363
" />
<path d="M55.9452 -19.1363
L55.9722 -19.0554
" />
<path d="M55.9722 -19.0554
L55.9722 -18.9477
" />
<path d="M55.9722 -18.9477
L55.9183 -18.8399
" />
<path d="M55.9183 -18.8399
L55.8644 -18.7861
" />
<path d="M55.8644 -18.7861
L55.7567 -18.7322
" />
<path d="M55.7567 -18.7322
L55.7028 -18.7322
" />
<path d="M55.7028 -18.7322
L55.5142 -18.9208
" />
<path d="M55.5142 -18.9208
L55.6220 -19.0285
" />
<path d="M55.5142 -18.4359
L54.9486 -19.0016
" />
<path d="M54.9486 -19.0016
L54.7331 -18.7861
" />
<path d="M54.7331 -18.7861
L54.7061 -18.7053
" />
<path d="M54.7061 -18.7053
L54.7061 -18.6514
" />
<path d="M54.7061 -18.6514
L54.7331 -18.5706
" />
<path d="M54.7331 -18.5706
L54.8139 -18.4898
" />
<path d="M54.8139 -18.4898
L54.8947 -18.4628
" />
<path d="M54.8947 -18.4628
L54.9486 -18.4628
" />
<path d="M54.9486 -18.4628
L55.0294 -18.4898
" />
<path d="M55.0294 -18.4898
L55.2449 -18.7053
" />
<path d="M54.4637 -18.4089
L54.4098 -18.4089
" />
<path d="M54.4098 -18.4089
L54.3290 -18.3820
" />
<path d="M54.3290 -18.3820
L54.1943 -18.2473
" />
<path d="M54.1943 -18.2473
L54.1674 -18.1665
" />
<path d="M54.1674 -18.1665
L54.1674 -18.1126
" />
<path d="M54.1674 -18.1126
L54.1943 -18.0318
" />
<path d="M54.1943 -18.0318
L54.2482 -17.9779
" />
<path d="M54.2482 -17.9779
L54.3559 -17.9241
" />
<path d="M54.3559 -17.9241
L55.0024 -17.9241
" />
<path d="M55.0024 -17.9241
L54.6522 -17.5739
" />
<path d="M54.1135 -17.0351
L54.4367 -17.3584
" />
<path d="M54.2751 -17.1968
L53.7094 -17.7624
" />
<path d="M53.7094 -17.7624
L53.8441 -17.7355
" />
<path d="M53.8441 -17.7355
L53.9519 -17.7355
" />
<path d="M53.9519 -17.7355
L54.0327 -17.7624
" />
</g><g transform="rotate(-45.000000 59.9440 -5.8420)">
<text x="59.9440" y="-5.4420"
transform="scale(-1 1) translate(-119.888000 0)"
textLength="2.6519" font-size="1.0667" lengthAdjust="spacingAndGlyphs"
text-anchor="middle" opacity="0">GP9</text>
</g>
<g class="stroked-text"><desc>GP9</desc>
<path d="M60.0655 -6.5286
L60.0924 -6.6094
" />
<path d="M60.0924 -6.6094
L60.1732 -6.6903
" />
<path d="M60.1732 -6.6903
L60.2810 -6.7441
" />
<path d="M60.2810 -6.7441
L60.3887 -6.7441
" />
<path d="M60.3887 -6.7441
L60.4696 -6.7172
" />
<path d="M60.4696 -6.7172
L60.6042 -6.6364
" />
<path d="M60.6042 -6.6364
L60.6851 -6.5556
" />
<path d="M60.6851 -6.5556
L60.7659 -6.4209
" />
<path d="M60.7659 -6.4209
L60.7928 -6.3401
" />
<path d="M60.7928 -6.3401
L60.7928 -6.2323
" />
<path d="M60.7928 -6.2323
L60.7389 -6.1246
" />
<path d="M60.7389 -6.1246
L60.6851 -6.0707
" />
<path d="M60.6851 -6.0707
L60.5773 -6.0168
" />
<path d="M60.5773 -6.0168
L60.5234 -6.0168
" />
<path d="M60.5234 -6.0168
L60.3349 -6.2054
" />
<path d="M60.3349 -6.2054
L60.4426 -6.3131
" />
<path d="M60.3349 -5.7205
L59.7692 -6.2862
" />
<path d="M59.7692 -6.2862
L59.5537 -6.0707
" />
<path d="M59.5537 -6.0707
L59.5267 -5.9899
" />
<path d="M59.5267 -5.9899
L59.5267 -5.9360
" />
<path d="M59.5267 -5.9360
L59.5537 -5.8552
" />
<path d="M59.5537 -5.8552
L59.6345 -5.7744
" />
<path d="M59.6345 -5.7744
L59.7153 -5.7474
" />
<path d="M59.7153 -5.7474
L59.7692 -5.7474
" />
<path d="M59.7692 -5.7474
L59.8500 -5.7744
" />
<path d="M59.8500 -5.7744
L60.0655 -5.9899
" />
<path d="M59.7422 -5.1279
L59.6345 -5.0201
" />
<path d="M59.6345 -5.0201
L59.5537 -4.9932
" />
<path d="M59.5537 -4.9932
L59.4998 -4.9932
" />
<path d="M59.4998 -4.9932
L59.3651 -5.0201
" />
<path d="M59.3651 -5.0201
L59.2304 -5.1009
" />
<path d="M59.2304 -5.1009
L59.0149 -5.3164
" />
<path d="M59.0149 -5.3164
L58.9880 -5.3973
" />
<path d="M58.9880 -5.3973
L58.9880 -5.4511
" />
<path d="M58.9880 -5.4511
L59.0149 -5.5319
" />
<path d="M59.0149 -5.5319
L59.1227 -5.6397
" />
<path d="M59.1227 -5.6397
L59.2035 -5.6666
" />
<path d="M59.2035 -5.6666
L59.2574 -5.6666
" />
<path d="M59.2574 -5.6666
L59.3382 -5.6397
" />
<path d="M59.3382 -5.6397
L59.4729 -5.5050
" />
<path d="M59.4729 -5.5050
L59.4998 -5.4242
" />
<path d="M59.4998 -5.4242
L59.4998 -5.3703
" />
<path d="M59.4998 -5.3703
L59.4729 -5.2895
" />
<path d="M59.4729 -5.2895
L59.3651 -5.1818
" />
<path d="M59.3651 -5.1818
L59.2843 -5.1548
" />
<path d="M59.2843 -5.1548
L59.2304 -5.1548
" />
<path d="M59.2304 -5.1548
L59.1496 -5.1818
" />
</g><g transform="rotate(-45.000000 44.7040 -18.0340)">
<text x="44.7040" y="-17.6340"
transform="scale(-1 1) translate(-89.408000 0)"
textLength="2.7281" font-size="1.0667" lengthAdjust="spacingAndGlyphs"
text-anchor="middle" opacity="0">GND</text>
</g>
<g class="stroked-text"><desc>GND</desc>
<path d="M44.8524 -18.7476
L44.8794 -18.8284
" />
<path d="M44.8794 -18.8284
L44.9602 -18.9092
" />
<path d="M44.9602 -18.9092
L45.0679 -18.9631
" />
<path d="M45.0679 -18.9631
L45.1757 -18.9631
" />
<path d="M45.1757 -18.9631
L45.2565 -18.9361
" />
<path d="M45.2565 -18.9361
L45.3912 -18.8553
" />
<path d="M45.3912 -18.8553
L45.4720 -18.7745
" />
<path d="M45.4720 -18.7745
L45.5528 -18.6398
" />
<path d="M45.5528 -18.6398
L45.5797 -18.5590
" />
<path d="M45.5797 -18.5590
L45.5797 -18.4513
" />
<path d="M45.5797 -18.4513
L45.5259 -18.3435
" />
<path d="M45.5259 -18.3435
L45.4720 -18.2896
" />
<path d="M45.4720 -18.2896
L45.3642 -18.2358
" />
<path d="M45.3642 -18.2358
L45.3104 -18.2358
" />
<path d="M45.3104 -18.2358
L45.1218 -18.4243
" />
<path d="M45.1218 -18.4243
L45.2296 -18.5321
" />
<path d="M45.1218 -17.9394
L44.5561 -18.5051
" />
<path d="M44.5561 -18.5051
L44.7986 -17.6162
" />
<path d="M44.7986 -17.6162
L44.2329 -18.1819
" />
<path d="M44.5292 -17.3468
L43.9635 -17.9125
" />
<path d="M43.9635 -17.9125
L43.8288 -17.7778
" />
<path d="M43.8288 -17.7778
L43.7749 -17.6701
" />
<path d="M43.7749 -17.6701
L43.7749 -17.5623
" />
<path d="M43.7749 -17.5623
L43.8019 -17.4815
" />
<path d="M43.8019 -17.4815
L43.8827 -17.3468
" />
<path d="M43.8827 -17.3468
L43.9635 -17.2660
" />
<path d="M43.9635 -17.2660
L44.0982 -17.1852
" />
<path d="M44.0982 -17.1852
L44.1790 -17.1583
" />
<path d="M44.1790 -17.1583
L44.2867 -17.1583
" />
<path d="M44.2867 -17.1583
L44.3945 -17.2121
" />
<path d="M44.3945 -17.2121
L44.5292 -17.3468
" />
</g><g transform="rotate(-45.000000 72.6440 -5.8420)">
<text x="72.6440" y="-5.4420"
transform="scale(-1 1) translate(-145.288000 0)"
textLength="2.6519" font-size="1.0667" lengthAdjust="spacingAndGlyphs"
text-anchor="middle" opacity="0">GP5</text>
</g>
<g class="stroked-text"><desc>GP5</desc>
<path d="M72.7655 -6.5286
L72.7924 -6.6094
" />
<path d="M72.7924 -6.6094
L72.8732 -6.6903
" />
<path d="M72.8732 -6.6903
L72.9810 -6.7441
" />
<path d="M72.9810 -6.7441
L73.0887 -6.7441
" />
<path d="M73.0887 -6.7441
L73.1696 -6.7172
" />
<path d="M73.1696 -6.7172
L73.3042 -6.6364
" />
<path d="M73.3042 -6.6364
L73.3851 -6.5556
" />
<path d="M73.3851 -6.5556
L73.4659 -6.4209
" />
<path d="M73.4659 -6.4209
L73.4928 -6.3401
" />
<path d="M73.4928 -6.3401
L73.4928 -6.2323
" />
<path d="M73.4928 -6.2323
L73.4389 -6.1246
" />
<path d="M73.4389 -6.1246
L73.3851 -6.0707
" />
<path d="M73.3851 -6.0707
L73.2773 -6.0168
" />
<path d="M73.2773 -6.0168
L73.2234 -6.0168
" />
<path d="M73.2234 -6.0168
L73.0349 -6.2054
" />
<path d="M73.0349 -6.2054
L73.1426 -6.3131
" />
<path d="M73.0349 -5.7205
L72.4692 -6.2862
" />
<path d="M72.4692 -6.2862
L72.2537 -6.0707
" />
<path d="M72.2537 -6.0707
L72.2267 -5.9899
" />
<path d="M72.2267 -5.9899
L72.2267 -5.9360
" />
<path d="M72.2267 -5.9360
L72.2537 -5.8552
" />
<path d="M72.2537 -5.8552
L72.3345 -5.7744
" />
<path d="M72.3345 -5.7744
L72.4153 -5.7474
" />
<path d="M72.4153 -5.7474
L72.4692 -5.7474
" />
<path d="M72.4692 -5.7474
L72.5500 -5.7744
" />
<path d="M72.5500 -5.7744
L72.7655 -5.9899
" />
<path d="M71.6341 -5.4511
L71.9035 -5.7205
" />
<path d="M71.9035 -5.7205
L72.1998 -5.4781
" />
<path d="M72.1998 -5.4781
L72.1459 -5.4781
" />
<path d="M72.1459 -5.4781
L72.0651 -5.4511
" />
<path d="M72.0651 -5.4511
L71.9304 -5.3164
" />
<path d="M71.9304 -5.3164
L71.9035 -5.2356
" />
<path d="M71.9035 -5.2356
L71.9035 -5.1818
" />
<path d="M71.9035 -5.1818
L71.9304 -5.1009
" />
<path d="M71.9304 -5.1009
L72.0651 -4.9663
" />
<path d="M72.0651 -4.9663
L72.1459 -4.9393
" />
<path d="M72.1459 -4.9393
L72.1998 -4.9393
" />
<path d="M72.1998 -4.9393
L72.2806 -4.9663
" />
<path d="M72.2806 -4.9663
L72.4153 -5.1009
" />
<path d="M72.4153 -5.1009
L72.4422 -5.1818
" />
<path d="M72.4422 -5.1818
L72.4422 -5.2356
" />
</g><g transform="rotate(-45.000000 72.8980 -18.2880)">
<text x="72.8980" y="-17.8880"
transform="scale(-1 1) translate(-145.796000 0)"
textLength="3.4138" font-size="1.0667" lengthAdjust="spacingAndGlyphs"
text-anchor="middle" opacity="0">GP28</text>
</g>
<g class="stroked-text"><desc>GP28</desc>
<path d="M73.2889 -19.2440
L73.3158 -19.3248
" />
<path d="M73.3158 -19.3248
L73.3966 -19.4056
" />
<path d="M73.3966 -19.4056
L73.5044 -19.4595
" />
<path d="M73.5044 -19.4595
L73.6121 -19.4595
" />
<path d="M73.6121 -19.4595
L73.6929 -19.4326
" />
<path d="M73.6929 -19.4326
L73.8276 -19.3518
" />
<path d="M73.8276 -19.3518
L73.9084 -19.2709
" />
<path d="M73.9084 -19.2709
L73.9892 -19.1363
" />
<path d="M73.9892 -19.1363
L74.0162 -19.0554
" />
<path d="M74.0162 -19.0554
L74.0162 -18.9477
" />
<path d="M74.0162 -18.9477
L73.9623 -18.8399
" />
<path d="M73.9623 -18.8399
L73.9084 -18.7861
" />
<path d="M73.9084 -18.7861
L73.8007 -18.7322
" />
<path d="M73.8007 -18.7322
L73.7468 -18.7322
" />
<path d="M73.7468 -18.7322
L73.5582 -18.9208
" />
<path d="M73.5582 -18.9208
L73.6660 -19.0285
" />
<path d="M73.5582 -18.4359
L72.9926 -19.0016
" />
<path d="M72.9926 -19.0016
L72.7771 -18.7861
" />
<path d="M72.7771 -18.7861
L72.7501 -18.7053
" />
<path d="M72.7501 -18.7053
L72.7501 -18.6514
" />
<path d="M72.7501 -18.6514
L72.7771 -18.5706
" />
<path d="M72.7771 -18.5706
L72.8579 -18.4898
" />
<path d="M72.8579 -18.4898
L72.9387 -18.4628
" />
<path d="M72.9387 -18.4628
L72.9926 -18.4628
" />
<path d="M72.9926 -18.4628
L73.0734 -18.4898
" />
<path d="M73.0734 -18.4898
L73.2889 -18.7053
" />
<path d="M72.5077 -18.4089
L72.4538 -18.4089
" />
<path d="M72.4538 -18.4089
L72.3730 -18.3820
" />
<path d="M72.3730 -18.3820
L72.2383 -18.2473
" />
<path d="M72.2383 -18.2473
L72.2114 -18.1665
" />
<path d="M72.2114 -18.1665
L72.2114 -18.1126
" />
<path d="M72.2114 -18.1126
L72.2383 -18.0318
" />
<path d="M72.2383 -18.0318
L72.2922 -17.9779
" />
<path d="M72.2922 -17.9779
L72.3999 -17.9241
" />
<path d="M72.3999 -17.9241
L73.0464 -17.9241
" />
<path d="M73.0464 -17.9241
L72.6962 -17.5739
" />
<path d="M72.0497 -17.5739
L72.0767 -17.6547
" />
<path d="M72.0767 -17.6547
L72.0767 -17.7086
" />
<path d="M72.0767 -17.7086
L72.0497 -17.7894
" />
<path d="M72.0497 -17.7894
L72.0228 -17.8163
" />
<path d="M72.0228 -17.8163
L71.9420 -17.8433
" />
<path d="M71.9420 -17.8433
L71.8881 -17.8433
" />
<path d="M71.8881 -17.8433
L71.8073 -17.8163
" />
<path d="M71.8073 -17.8163
L71.6996 -17.7086
" />
<path d="M71.6996 -17.7086
L71.6726 -17.6278
" />
<path d="M71.6726 -17.6278
L71.6726 -17.5739
" />
<path d="M71.6726 -17.5739
L71.6996 -17.4931
" />
<path d="M71.6996 -17.4931
L71.7265 -17.4661
" />
<path d="M71.7265 -17.4661
L71.8073 -17.4392
" />
<path d="M71.8073 -17.4392
L71.8612 -17.4392
" />
<path d="M71.8612 -17.4392
L71.9420 -17.4661
" />
<path d="M71.9420 -17.4661
L72.0497 -17.5739
" />
<path d="M72.0497 -17.5739
L72.1306 -17.6008
" />
<path d="M72.1306 -17.6008
L72.1844 -17.6008
" />
<path d="M72.1844 -17.6008
L72.2652 -17.5739
" />
<path d="M72.2652 -17.5739
L72.3730 -17.4661
" />
<path d="M72.3730 -17.4661
L72.3999 -17.3853
" />
<path d="M72.3999 -17.3853
L72.3999 -17.3314
" />
<path d="M72.3999 -17.3314
L72.3730 -17.2506
" />
<path d="M72.3730 -17.2506
L72.2652 -17.1429
" />
<path d="M72.2652 -17.1429
L72.1844 -17.1159
" />
<path d="M72.1844 -17.1159
L72.1306 -17.1159
" />
<path d="M72.1306 -17.1159
L72.0497 -17.1429
" />
<path d="M72.0497 -17.1429
L71.9420 -17.2506
" />
<path d="M71.9420 -17.2506
L71.9151 -17.3314
" />
<path d="M71.9151 -17.3314
L71.9151 -17.3853
" />
<path d="M71.9151 -17.3853
L71.9420 -17.4661
" />
</g><g transform="rotate(-45.000000 47.2440 -18.2880)">
<text x="47.2440" y="-17.8880"
transform="scale(-1 1) translate(-94.488000 0)"
textLength="3.4138" font-size="1.0667" lengthAdjust="spacingAndGlyphs"
text-anchor="middle" opacity="0">GP18</text>
</g>
<g class="stroked-text"><desc>GP18</desc>
<path d="M47.6349 -19.2440
L47.6618 -19.3248
" />
<path d="M47.6618 -19.3248
L47.7426 -19.4056
" />
<path d="M47.7426 -19.4056
L47.8504 -19.4595
" />
<path d="M47.8504 -19.4595
L47.9581 -19.4595
" />
<path d="M47.9581 -19.4595
L48.0389 -19.4326
" />
<path d="M48.0389 -19.4326
L48.1736 -19.3518
" />
<path d="M48.1736 -19.3518
L48.2544 -19.2709
" />
<path d="M48.2544 -19.2709
L48.3352 -19.1363
" />
<path d="M48.3352 -19.1363
L48.3622 -19.0554
" />
<path d="M48.3622 -19.0554
L48.3622 -18.9477
" />
<path d="M48.3622 -18.9477
L48.3083 -18.8399
" />
<path d="M48.3083 -18.8399
L48.2544 -18.7861
" />
<path d="M48.2544 -18.7861
L48.1467 -18.7322
" />
<path d="M48.1467 -18.7322
L48.0928 -18.7322
" />
<path d="M48.0928 -18.7322
L47.9042 -18.9208
" />
<path d="M47.9042 -18.9208
L48.0120 -19.0285
" />
<path d="M47.9042 -18.4359
L47.3386 -19.0016
" />
<path d="M47.3386 -19.0016
L47.1231 -18.7861
" />
<path d="M47.1231 -18.7861
L47.0961 -18.7053
" />
<path d="M47.0961 -18.7053
L47.0961 -18.6514
" />
<path d="M47.0961 -18.6514
L47.1231 -18.5706
" />
<path d="M47.1231 -18.5706
L47.2039 -18.4898
" />
<path d="M47.2039 -18.4898
L47.2847 -18.4628
" />
<path d="M47.2847 -18.4628
L47.3386 -18.4628
" />
<path d="M47.3386 -18.4628
L47.4194 -18.4898
" />
<path d="M47.4194 -18.4898
L47.6349 -18.7053
" />
<path d="M47.0422 -17.5739
L47.3655 -17.8971
" />
<path d="M47.2039 -17.7355
L46.6382 -18.3012
" />
<path d="M46.6382 -18.3012
L46.7729 -18.2743
" />
<path d="M46.7729 -18.2743
L46.8806 -18.2743
" />
<path d="M46.8806 -18.2743
L46.9614 -18.3012
" />
<path d="M46.3957 -17.5739
L46.4227 -17.6547
" />
<path d="M46.4227 -17.6547
L46.4227 -17.7086
" />
<path d="M46.4227 -17.7086
L46.3957 -17.7894
" />
<path d="M46.3957 -17.7894
L46.3688 -17.8163
" />
<path d="M46.3688 -17.8163
L46.2880 -17.8433
" />
<path d="M46.2880 -17.8433
L46.2341 -17.8433
" />
<path d="M46.2341 -17.8433
L46.1533 -17.8163
" />
<path d="M46.1533 -17.8163
L46.0456 -17.7086
" />
<path d="M46.0456 -17.7086
L46.0186 -17.6278
" />
<path d="M46.0186 -17.6278
L46.0186 -17.5739
" />
<path d="M46.0186 -17.5739
L46.0456 -17.4931
" />
<path d="M46.0456 -17.4931
L46.0725 -17.4661
" />
<path d="M46.0725 -17.4661
L46.1533 -17.4392
" />
<path d="M46.1533 -17.4392
L46.2072 -17.4392
" />
<path d="M46.2072 -17.4392
L46.2880 -17.4661
" />
<path d="M46.2880 -17.4661
L46.3957 -17.5739
" />
<path d="M46.3957 -17.5739
L46.4766 -17.6008
" />
<path d="M46.4766 -17.6008
L46.5304 -17.6008
" />
<path d="M46.5304 -17.6008
L46.6112 -17.5739
" />
<path d="M46.6112 -17.5739
L46.7190 -17.4661
" />
<path d="M46.7190 -17.4661
L46.7459 -17.3853
" />
<path d="M46.7459 -17.3853
L46.7459 -17.3314
" />
<path d="M46.7459 -17.3314
L46.7190 -17.2506
" />
<path d="M46.7190 -17.2506
L46.6112 -17.1429
" />
<path d="M46.6112 -17.1429
L46.5304 -17.1159
" />
<path d="M46.5304 -17.1159
L46.4766 -17.1159
" />
<path d="M46.4766 -17.1159
L46.3957 -17.1429
" />
<path d="M46.3957 -17.1429
L46.2880 -17.2506
" />
<path d="M46.2880 -17.2506
L46.2611 -17.3314
" />
<path d="M46.2611 -17.3314
L46.2611 -17.3853
" />
<path d="M46.2611 -17.3853
L46.2880 -17.4661
" />
</g><g transform="rotate(-45.000000 87.8840 -5.8420)">
<text x="87.8840" y="-5.4420"
transform="scale(-1 1) translate(-175.768000 0)"
textLength="2.6519" font-size="1.0667" lengthAdjust="spacingAndGlyphs"
text-anchor="middle" opacity="0">GP0</text>
</g>
<g class="stroked-text"><desc>GP0</desc>
<path d="M88.0055 -6.5286
L88.0324 -6.6094
" />
<path d="M88.0324 -6.6094
L88.1132 -6.6903
" />
<path d="M88.1132 -6.6903
L88.2210 -6.7441
" />
<path d="M88.2210 -6.7441
L88.3287 -6.7441
" />
<path d="M88.3287 -6.7441
L88.4096 -6.7172
" />
<path d="M88.4096 -6.7172
L88.5442 -6.6364
" />
<path d="M88.5442 -6.6364
L88.6251 -6.5556
" />
<path d="M88.6251 -6.5556
L88.7059 -6.4209
" />
<path d="M88.7059 -6.4209
L88.7328 -6.3401
" />
<path d="M88.7328 -6.3401
L88.7328 -6.2323
" />
<path d="M88.7328 -6.2323
L88.6789 -6.1246
" />
<path d="M88.6789 -6.1246
L88.6251 -6.0707
" />
<path d="M88.6251 -6.0707
L88.5173 -6.0168
" />
<path d="M88.5173 -6.0168
L88.4634 -6.0168
" />
<path d="M88.4634 -6.0168
L88.2749 -6.2054
" />
<path d="M88.2749 -6.2054
L88.3826 -6.3131
" />
<path d="M88.2749 -5.7205
L87.7092 -6.2862
" />
<path d="M87.7092 -6.2862
L87.4937 -6.0707
" />
<path d="M87.4937 -6.0707
L87.4667 -5.9899
" />
<path d="M87.4667 -5.9899
L87.4667 -5.9360
" />
<path d="M87.4667 -5.9360
L87.4937 -5.8552
" />
<path d="M87.4937 -5.8552
L87.5745 -5.7744
" />
<path d="M87.5745 -5.7744
L87.6553 -5.7474
" />
<path d="M87.6553 -5.7474
L87.7092 -5.7474
" />
<path d="M87.7092 -5.7474
L87.7900 -5.7744
" />
<path d="M87.7900 -5.7744
L88.0055 -5.9899
" />
<path d="M87.0357 -5.6128
L86.9819 -5.5589
" />
<path d="M86.9819 -5.5589
L86.9549 -5.4781
" />
<path d="M86.9549 -5.4781
L86.9549 -5.4242
" />
<path d="M86.9549 -5.4242
L86.9819 -5.3434
" />
<path d="M86.9819 -5.3434
L87.0627 -5.2087
" />
<path d="M87.0627 -5.2087
L87.1974 -5.0740
" />
<path d="M87.1974 -5.0740
L87.3321 -4.9932
" />
<path d="M87.3321 -4.9932
L87.4129 -4.9663
" />
<path d="M87.4129 -4.9663
L87.4667 -4.9663
" />
<path d="M87.4667 -4.9663
L87.5476 -4.9932
" />
<path d="M87.5476 -4.9932
L87.6014 -5.0471
" />
<path d="M87.6014 -5.0471
L87.6284 -5.1279
" />
<path d="M87.6284 -5.1279
L87.6284 -5.1818
" />
<path d="M87.6284 -5.1818
L87.6014 -5.2626
" />
<path d="M87.6014 -5.2626
L87.5206 -5.3973
" />
<path d="M87.5206 -5.3973
L87.3859 -5.5319
" />
<path d="M87.3859 -5.5319
L87.2512 -5.6128
" />
<path d="M87.2512 -5.6128
L87.1704 -5.6397
" />
<path d="M87.1704 -5.6397
L87.1166 -5.6397
" />
<path d="M87.1166 -5.6397
L87.0357 -5.6128
" />
</g><g transform="rotate(-45.000000 65.0240 -18.2880)">
<text x="65.0240" y="-17.8880"
transform="scale(-1 1) translate(-130.048000 0)"
textLength="3.4138" font-size="1.0667" lengthAdjust="spacingAndGlyphs"
text-anchor="middle" opacity="0">GP26</text>
</g>
<g class="stroked-text"><desc>GP26</desc>
<path d="M65.4149 -19.2440
L65.4418 -19.3248
" />
<path d="M65.4418 -19.3248
L65.5226 -19.4056
" />
<path d="M65.5226 -19.4056
L65.6304 -19.4595
" />
<path d="M65.6304 -19.4595
L65.7381 -19.4595
" />
<path d="M65.7381 -19.4595
L65.8189 -19.4326
" />
<path d="M65.8189 -19.4326
L65.9536 -19.3518
" />
<path d="M65.9536 -19.3518
L66.0344 -19.2709
" />
<path d="M66.0344 -19.2709
L66.1152 -19.1363
" />
<path d="M66.1152 -19.1363
L66.1422 -19.0554
" />
<path d="M66.1422 -19.0554
L66.1422 -18.9477
" />
<path d="M66.1422 -18.9477
L66.0883 -18.8399
" />
<path d="M66.0883 -18.8399
L66.0344 -18.7861
" />
<path d="M66.0344 -18.7861
L65.9267 -18.7322
" />
<path d="M65.9267 -18.7322
L65.8728 -18.7322
" />
<path d="M65.8728 -18.7322
L65.6842 -18.9208
" />
<path d="M65.6842 -18.9208
L65.7920 -19.0285
" />
<path d="M65.6842 -18.4359
L65.1186 -19.0016
" />
<path d="M65.1186 -19.0016
L64.9031 -18.7861
" />
<path d="M64.9031 -18.7861
L64.8761 -18.7053
" />
<path d="M64.8761 -18.7053
L64.8761 -18.6514
" />
<path d="M64.8761 -18.6514
L64.9031 -18.5706
" />
<path d="M64.9031 -18.5706
L64.9839 -18.4898
" />
<path d="M64.9839 -18.4898
L65.0647 -18.4628
" />
<path d="M65.0647 -18.4628
L65.1186 -18.4628
" />
<path d="M65.1186 -18.4628
L65.1994 -18.4898
" />
<path d="M65.1994 -18.4898
L65.4149 -18.7053
" />
<path d="M64.6337 -18.4089
L64.5798 -18.4089
" />
<path d="M64.5798 -18.4089
L64.4990 -18.3820
" />
<path d="M64.4990 -18.3820
L64.3643 -18.2473
" />
<path d="M64.3643 -18.2473
L64.3374 -18.1665
" />
<path d="M64.3374 -18.1665
L64.3374 -18.1126
" />
<path d="M64.3374 -18.1126
L64.3643 -18.0318
" />
<path d="M64.3643 -18.0318
L64.4182 -17.9779
" />
<path d="M64.4182 -17.9779
L64.5259 -17.9241
" />
<path d="M64.5259 -17.9241
L65.1724 -17.9241
" />
<path d="M65.1724 -17.9241
L64.8222 -17.5739
" />
<path d="M63.7717 -17.6547
L63.8794 -17.7624
" />
<path d="M63.8794 -17.7624
L63.9602 -17.7894
" />
<path d="M63.9602 -17.7894
L64.0141 -17.7894
" />
<path d="M64.0141 -17.7894
L64.1488 -17.7624
" />
<path d="M64.1488 -17.7624
L64.2835 -17.6816
" />
<path d="M64.2835 -17.6816
L64.4990 -17.4661
" />
<path d="M64.4990 -17.4661
L64.5259 -17.3853
" />
<path d="M64.5259 -17.3853
L64.5259 -17.3314
" />
<path d="M64.5259 -17.3314
L64.4990 -17.2506
" />
<path d="M64.4990 -17.2506
L64.3912 -17.1429
" />
<path d="M64.3912 -17.1429
L64.3104 -17.1159
" />
<path d="M64.3104 -17.1159
L64.2566 -17.1159
" />
<path d="M64.2566 -17.1159
L64.1757 -17.1429
" />
<path d="M64.1757 -17.1429
L64.0411 -17.2776
" />
<path d="M64.0411 -17.2776
L64.0141 -17.3584
" />
<path d="M64.0141 -17.3584
L64.0141 -17.4123
" />
<path d="M64.0141 -17.4123
L64.0411 -17.4931
" />
<path d="M64.0411 -17.4931
L64.1488 -17.6008
" />
<path d="M64.1488 -17.6008
L64.2296 -17.6278
" />
<path d="M64.2296 -17.6278
L64.2835 -17.6278
" />
<path d="M64.2835 -17.6278
L64.3643 -17.6008
" />
</g><g transform="rotate(-45.000000 47.2440 -5.5880)">
<text x="47.2440" y="-5.1880"
transform="scale(-1 1) translate(-94.488000 0)"
textLength="3.4138" font-size="1.0667" lengthAdjust="spacingAndGlyphs"
text-anchor="middle" opacity="0">GP13</text>
</g>
<g class="stroked-text"><desc>GP13</desc>
<path d="M47.6349 -6.5440
L47.6618 -6.6248
" />
<path d="M47.6618 -6.6248
L47.7426 -6.7056
" />
<path d="M47.7426 -6.7056
L47.8504 -6.7595
" />
<path d="M47.8504 -6.7595
L47.9581 -6.7595
" />
<path d="M47.9581 -6.7595
L48.0389 -6.7326
" />
<path d="M48.0389 -6.7326
L48.1736 -6.6518
" />
<path d="M48.1736 -6.6518
L48.2544 -6.5709
" />
<path d="M48.2544 -6.5709
L48.3352 -6.4363
" />
<path d="M48.3352 -6.4363
L48.3622 -6.3554
" />
<path d="M48.3622 -6.3554
L48.3622 -6.2477
" />
<path d="M48.3622 -6.2477
L48.3083 -6.1399
" />
<path d="M48.3083 -6.1399
L48.2544 -6.0861
" />
<path d="M48.2544 -6.0861
L48.1467 -6.0322
" />
<path d="M48.1467 -6.0322
L48.0928 -6.0322
" />
<path d="M48.0928 -6.0322
L47.9042 -6.2208
" />
<path d="M47.9042 -6.2208
L48.0120 -6.3285
" />
<path d="M47.9042 -5.7359
L47.3386 -6.3016
" />
<path d="M47.3386 -6.3016
L47.1231 -6.0861
" />
<path d="M47.1231 -6.0861
L47.0961 -6.0053
" />
<path d="M47.0961 -6.0053
L47.0961 -5.9514
" />
<path d="M47.0961 -5.9514
L47.1231 -5.8706
" />
<path d="M47.1231 -5.8706
L47.2039 -5.7898
" />
<path d="M47.2039 -5.7898
L47.2847 -5.7628
" />
<path d="M47.2847 -5.7628
L47.3386 -5.7628
" />
<path d="M47.3386 -5.7628
L47.4194 -5.7898
" />
<path d="M47.4194 -5.7898
L47.6349 -6.0053
" />
<path d="M47.0422 -4.8739
L47.3655 -5.1971
" />
<path d="M47.2039 -5.0355
L46.6382 -5.6012
" />
<path d="M46.6382 -5.6012
L46.7729 -5.5743
" />
<path d="M46.7729 -5.5743
L46.8806 -5.5743
" />
<path d="M46.8806 -5.5743
L46.9614 -5.6012
" />
<path d="M46.2880 -5.2510
L45.9378 -4.9008
" />
<path d="M45.9378 -4.9008
L46.3419 -4.8739
" />
<path d="M46.3419 -4.8739
L46.2611 -4.7931
" />
<path d="M46.2611 -4.7931
L46.2341 -4.7123
" />
<path d="M46.2341 -4.7123
L46.2341 -4.6584
" />
<path d="M46.2341 -4.6584
L46.2611 -4.5776
" />
<path d="M46.2611 -4.5776
L46.3957 -4.4429
" />
<path d="M46.3957 -4.4429
L46.4766 -4.4159
" />
<path d="M46.4766 -4.4159
L46.5304 -4.4159
" />
<path d="M46.5304 -4.4159
L46.6112 -4.4429
" />
<path d="M46.6112 -4.4429
L46.7729 -4.6045
" />
<path d="M46.7729 -4.6045
L46.7998 -4.6853
" />
<path d="M46.7998 -4.6853
L46.7998 -4.7392
" />
</g><g transform="rotate(-45.000000 59.9440 -18.2880)">
<text x="59.9440" y="-17.8880"
transform="scale(-1 1) translate(-119.888000 0)"
textLength="3.4138" font-size="1.0667" lengthAdjust="spacingAndGlyphs"
text-anchor="middle" opacity="0">GP22</text>
</g>
<g class="stroked-text"><desc>GP22</desc>
<path d="M60.3349 -19.2440
L60.3618 -19.3248
" />
<path d="M60.3618 -19.3248
L60.4426 -19.4056
" />
<path d="M60.4426 -19.4056
L60.5504 -19.4595
" />
<path d="M60.5504 -19.4595
L60.6581 -19.4595
" />
<path d="M60.6581 -19.4595
L60.7389 -19.4326
" />
<path d="M60.7389 -19.4326
L60.8736 -19.3518
" />
<path d="M60.8736 -19.3518
L60.9544 -19.2709
" />
<path d="M60.9544 -19.2709
L61.0352 -19.1363
" />
<path d="M61.0352 -19.1363
L61.0622 -19.0554
" />
<path d="M61.0622 -19.0554
L61.0622 -18.9477
" />
<path d="M61.0622 -18.9477
L61.0083 -18.8399
" />
<path d="M61.0083 -18.8399
L60.9544 -18.7861
" />
<path d="M60.9544 -18.7861
L60.8467 -18.7322
" />
<path d="M60.8467 -18.7322
L60.7928 -18.7322
" />
<path d="M60.7928 -18.7322
L60.6042 -18.9208
" />
<path d="M60.6042 -18.9208
L60.7120 -19.0285
" />
<path d="M60.6042 -18.4359
L60.0386 -19.0016
" />
<path d="M60.0386 -19.0016
L59.8231 -18.7861
" />
<path d="M59.8231 -18.7861
L59.7961 -18.7053
" />
<path d="M59.7961 -18.7053
L59.7961 -18.6514
" />
<path d="M59.7961 -18.6514
L59.8231 -18.5706
" />
<path d="M59.8231 -18.5706
L59.9039 -18.4898
" />
<path d="M59.9039 -18.4898
L59.9847 -18.4628
" />
<path d="M59.9847 -18.4628
L60.0386 -18.4628
" />
<path d="M60.0386 -18.4628
L60.1194 -18.4898
" />
<path d="M60.1194 -18.4898
L60.3349 -18.7053
" />
<path d="M59.5537 -18.4089
L59.4998 -18.4089
" />
<path d="M59.4998 -18.4089
L59.4190 -18.3820
" />
<path d="M59.4190 -18.3820
L59.2843 -18.2473
" />
<path d="M59.2843 -18.2473
L59.2574 -18.1665
" />
<path d="M59.2574 -18.1665
L59.2574 -18.1126
" />
<path d="M59.2574 -18.1126
L59.2843 -18.0318
" />
<path d="M59.2843 -18.0318
L59.3382 -17.9779
" />
<path d="M59.3382 -17.9779
L59.4459 -17.9241
" />
<path d="M59.4459 -17.9241
L60.0924 -17.9241
" />
<path d="M60.0924 -17.9241
L59.7422 -17.5739
" />
<path d="M59.0149 -17.8702
L58.9611 -17.8702
" />
<path d="M58.9611 -17.8702
L58.8802 -17.8433
" />
<path d="M58.8802 -17.8433
L58.7456 -17.7086
" />
<path d="M58.7456 -17.7086
L58.7186 -17.6278
" />
<path d="M58.7186 -17.6278
L58.7186 -17.5739
" />
<path d="M58.7186 -17.5739
L58.7456 -17.4931
" />
<path d="M58.7456 -17.4931
L58.7994 -17.4392
" />
<path d="M58.7994 -17.4392
L58.9072 -17.3853
" />
<path d="M58.9072 -17.3853
L59.5537 -17.3853
" />
<path d="M59.5537 -17.3853
L59.2035 -17.0351
" />
</g><g transform="rotate(-45.000000 39.6240 -5.5880)">
<text x="39.6240" y="-5.1880"
transform="scale(-1 1) translate(-79.248000 0)"
textLength="3.4138" font-size="1.0667" lengthAdjust="spacingAndGlyphs"
text-anchor="middle" opacity="0">GP15</text>
</g>
<g class="stroked-text"><desc>GP15</desc>
<path d="M40.0149 -6.5440
L40.0418 -6.6248
" />
<path d="M40.0418 -6.6248
L40.1226 -6.7056
" />
<path d="M40.1226 -6.7056
L40.2304 -6.7595
" />
<path d="M40.2304 -6.7595
L40.3381 -6.7595
" />
<path d="M40.3381 -6.7595
L40.4189 -6.7326
" />
<path d="M40.4189 -6.7326
L40.5536 -6.6518
" />
<path d="M40.5536 -6.6518
L40.6344 -6.5709
" />
<path d="M40.6344 -6.5709
L40.7152 -6.4363
" />
<path d="M40.7152 -6.4363
L40.7422 -6.3554
" />
<path d="M40.7422 -6.3554
L40.7422 -6.2477
" />
<path d="M40.7422 -6.2477
L40.6883 -6.1399
" />
<path d="M40.6883 -6.1399
L40.6344 -6.0861
" />
<path d="M40.6344 -6.0861
L40.5267 -6.0322
" />
<path d="M40.5267 -6.0322
L40.4728 -6.0322
" />
<path d="M40.4728 -6.0322
L40.2842 -6.2208
" />
<path d="M40.2842 -6.2208
L40.3920 -6.3285
" />
<path d="M40.2842 -5.7359
L39.7186 -6.3016
" />
<path d="M39.7186 -6.3016
L39.5031 -6.0861
" />
<path d="M39.5031 -6.0861
L39.4761 -6.0053
" />
<path d="M39.4761 -6.0053
L39.4761 -5.9514
" />
<path d="M39.4761 -5.9514
L39.5031 -5.8706
" />
<path d="M39.5031 -5.8706
L39.5839 -5.7898
" />
<path d="M39.5839 -5.7898
L39.6647 -5.7628
" />
<path d="M39.6647 -5.7628
L39.7186 -5.7628
" />
<path d="M39.7186 -5.7628
L39.7994 -5.7898
" />
<path d="M39.7994 -5.7898
L40.0149 -6.0053
" />
<path d="M39.4222 -4.8739
L39.7455 -5.1971
" />
<path d="M39.5839 -5.0355
L39.0182 -5.6012
" />
<path d="M39.0182 -5.6012
L39.1529 -5.5743
" />
<path d="M39.1529 -5.5743
L39.2606 -5.5743
" />
<path d="M39.2606 -5.5743
L39.3414 -5.6012
" />
<path d="M38.3447 -4.9278
L38.6141 -5.1971
" />
<path d="M38.6141 -5.1971
L38.9104 -4.9547
" />
<path d="M38.9104 -4.9547
L38.8566 -4.9547
" />
<path d="M38.8566 -4.9547
L38.7757 -4.9278
" />
<path d="M38.7757 -4.9278
L38.6411 -4.7931
" />
<path d="M38.6411 -4.7931
L38.6141 -4.7123
" />
<path d="M38.6141 -4.7123
L38.6141 -4.6584
" />
<path d="M38.6141 -4.6584
L38.6411 -4.5776
" />
<path d="M38.6411 -4.5776
L38.7757 -4.4429
" />
<path d="M38.7757 -4.4429
L38.8566 -4.4159
" />
<path d="M38.8566 -4.4159
L38.9104 -4.4159
" />
<path d="M38.9104 -4.4159
L38.9912 -4.4429
" />
<path d="M38.9912 -4.4429
L39.1259 -4.5776
" />
<path d="M39.1259 -4.5776
L39.1529 -4.6584
" />
<path d="M39.1529 -4.6584
L39.1529 -4.7123
" />
</g><g transform="rotate(-45.000000 42.1640 -5.5420)">
<text x="42.1640" y="-5.1420"
transform="scale(-1 1) translate(-84.328000 0)"
textLength="3.4138" font-size="1.0667" lengthAdjust="spacingAndGlyphs"
text-anchor="middle" opacity="0">GP14</text>
</g>
<g class="stroked-text"><desc>GP14</desc>
<path d="M42.5549 -6.4980
L42.5818 -6.5788
" />
<path d="M42.5818 -6.5788
L42.6626 -6.6596
" />
<path d="M42.6626 -6.6596
L42.7704 -6.7135
" />
<path d="M42.7704 -6.7135
L42.8781 -6.7135
" />
<path d="M42.8781 -6.7135
L42.9589 -6.6866
" />
<path d="M42.9589 -6.6866
L43.0936 -6.6058
" />
<path d="M43.0936 -6.6058
L43.1744 -6.5249
" />
<path d="M43.1744 -6.5249
L43.2552 -6.3903
" />
<path d="M43.2552 -6.3903
L43.2822 -6.3094
" />
<path d="M43.2822 -6.3094
L43.2822 -6.2017
" />
<path d="M43.2822 -6.2017
L43.2283 -6.0939
" />
<path d="M43.2283 -6.0939
L43.1744 -6.0401
" />
<path d="M43.1744 -6.0401
L43.0667 -5.9862
" />
<path d="M43.0667 -5.9862
L43.0128 -5.9862
" />
<path d="M43.0128 -5.9862
L42.8242 -6.1748
" />
<path d="M42.8242 -6.1748
L42.9320 -6.2825
" />
<path d="M42.8242 -5.6899
L42.2586 -6.2556
" />
<path d="M42.2586 -6.2556
L42.0431 -6.0401
" />
<path d="M42.0431 -6.0401
L42.0161 -5.9593
" />
<path d="M42.0161 -5.9593
L42.0161 -5.9054
" />
<path d="M42.0161 -5.9054
L42.0431 -5.8246
" />
<path d="M42.0431 -5.8246
L42.1239 -5.7438
" />
<path d="M42.1239 -5.7438
L42.2047 -5.7168
" />
<path d="M42.2047 -5.7168
L42.2586 -5.7168
" />
<path d="M42.2586 -5.7168
L42.3394 -5.7438
" />
<path d="M42.3394 -5.7438
L42.5549 -5.9593
" />
<path d="M41.9622 -4.8279
L42.2855 -5.1511
" />
<path d="M42.1239 -4.9895
L41.5582 -5.5552
" />
<path d="M41.5582 -5.5552
L41.6929 -5.5283
" />
<path d="M41.6929 -5.5283
L41.8006 -5.5283
" />
<path d="M41.8006 -5.5283
L41.8814 -5.5552
" />
<path d="M41.1002 -4.7201
L41.4774 -4.3430
" />
<path d="M41.0194 -5.0703
L41.5582 -4.8009
" />
<path d="M41.5582 -4.8009
L41.2080 -4.4508
" />
</g><g transform="rotate(-45.000000 80.9540 -18.9340)">
<text x="80.9540" y="-18.5340"
transform="scale(-1 1) translate(-161.908000 0)"
textLength="4.6710" font-size="1.0667" lengthAdjust="spacingAndGlyphs"
text-anchor="middle" opacity="0">3V3_EN</text>
</g>
<g class="stroked-text"><desc>3V3_EN</desc>
<path d="M82.1126 -20.7116
L81.7624 -20.3614
" />
<path d="M81.7624 -20.3614
L82.1665 -20.3345
" />
<path d="M82.1665 -20.3345
L82.0856 -20.2537
" />
<path d="M82.0856 -20.2537
L82.0587 -20.1728
" />
<path d="M82.0587 -20.1728
L82.0587 -20.1190
" />
<path d="M82.0587 -20.1190
L82.0856 -20.0382
" />
<path d="M82.0856 -20.0382
L82.2203 -19.9035
" />
<path d="M82.2203 -19.9035
L82.3011 -19.8765
" />
<path d="M82.3011 -19.8765
L82.3550 -19.8765
" />
<path d="M82.3550 -19.8765
L82.4358 -19.9035
" />
<path d="M82.4358 -19.9035
L82.5975 -20.0651
" />
<path d="M82.5975 -20.0651
L82.6244 -20.1459
" />
<path d="M82.6244 -20.1459
L82.6244 -20.1998
" />
<path d="M81.6008 -20.1998
L81.9779 -19.4455
" />
<path d="M81.9779 -19.4455
L81.2236 -19.8227
" />
<path d="M81.0890 -19.6880
L80.7388 -19.3378
" />
<path d="M80.7388 -19.3378
L81.1428 -19.3108
" />
<path d="M81.1428 -19.3108
L81.0620 -19.2300
" />
<path d="M81.0620 -19.2300
L81.0351 -19.1492
" />
<path d="M81.0351 -19.1492
L81.0351 -19.0953
" />
<path d="M81.0351 -19.0953
L81.0620 -19.0145
" />
<path d="M81.0620 -19.0145
L81.1967 -18.8798
" />
<path d="M81.1967 -18.8798
L81.2775 -18.8529
" />
<path d="M81.2775 -18.8529
L81.3314 -18.8529
" />
<path d="M81.3314 -18.8529
L81.4122 -18.8798
" />
<path d="M81.4122 -18.8798
L81.5738 -19.0415
" />
<path d="M81.5738 -19.0415
L81.6008 -19.1223
" />
<path d="M81.6008 -19.1223
L81.6008 -19.1762
" />
<path d="M81.2506 -18.6105
L80.8196 -18.1795
" />
<path d="M80.3347 -18.3950
L80.1462 -18.2064
" />
<path d="M80.3617 -17.8293
L80.6310 -18.0987
" />
<path d="M80.6310 -18.0987
L80.0653 -18.6643
" />
<path d="M80.0653 -18.6643
L79.7960 -18.3950
" />
<path d="M80.1192 -17.5869
L79.5535 -18.1525
" />
<path d="M79.5535 -18.1525
L79.7960 -17.2636
" />
<path d="M79.7960 -17.2636
L79.2303 -17.8293
" />
</g><g transform="rotate(-270.000000 87.3760 -11.9380)">
<text x="87.3760" y="-11.9380"
transform="scale(-1 1) translate(-174.752000 0)"
textLength="3.2500" font-size="1.3333" lengthAdjust="spacingAndGlyphs"
text-anchor="middle" opacity="0">USB</text>
</g>
<g class="stroked-text"><desc>USB</desc>
<path d="M88.5062 -10.6761
L87.6967 -10.6761
" />
<path d="M87.6967 -10.6761
L87.6014 -10.7237
" />
<path d="M87.6014 -10.7237
L87.5538 -10.7713
" />
<path d="M87.5538 -10.7713
L87.5062 -10.8666
" />
<path d="M87.5062 -10.8666
L87.5062 -11.0570
" />
<path d="M87.5062 -11.0570
L87.5538 -11.1523
" />
<path d="M87.5538 -11.1523
L87.6014 -11.1999
" />
<path d="M87.6014 -11.1999
L87.6967 -11.2475
" />
<path d="M87.6967 -11.2475
L88.5062 -11.2475
" />
<path d="M87.5538 -11.6761
L87.5062 -11.8190
" />
<path d="M87.5062 -11.8190
L87.5062 -12.0570
" />
<path d="M87.5062 -12.0570
L87.5538 -12.1523
" />
<path d="M87.5538 -12.1523
L87.6014 -12.1999
" />
<path d="M87.6014 -12.1999
L87.6967 -12.2475
" />
<path d="M87.6967 -12.2475
L87.7919 -12.2475
" />
<path d="M87.7919 -12.2475
L87.8871 -12.1999
" />
<path d="M87.8871 -12.1999
L87.9348 -12.1523
" />
<path d="M87.9348 -12.1523
L87.9824 -12.0570
" />
<path d="M87.9824 -12.0570
L88.0300 -11.8666
" />
<path d="M88.0300 -11.8666
L88.0776 -11.7713
" />
<path d="M88.0776 -11.7713
L88.1252 -11.7237
" />
<path d="M88.1252 -11.7237
L88.2205 -11.6761
" />
<path d="M88.2205 -11.6761
L88.3157 -11.6761
" />
<path d="M88.3157 -11.6761
L88.4109 -11.7237
" />
<path d="M88.4109 -11.7237
L88.4586 -11.7713
" />
<path d="M88.4586 -11.7713
L88.5062 -11.8666
" />
<path d="M88.5062 -11.8666
L88.5062 -12.1047
" />
<path d="M88.5062 -12.1047
L88.4586 -12.2475
" />
<path d="M88.0300 -13.0094
L87.9824 -13.1523
" />
<path d="M87.9824 -13.1523
L87.9348 -13.1999
" />
<path d="M87.9348 -13.1999
L87.8395 -13.2475
" />
<path d="M87.8395 -13.2475
L87.6967 -13.2475
" />
<path d="M87.6967 -13.2475
L87.6014 -13.1999
" />
<path d="M87.6014 -13.1999
L87.5538 -13.1523
" />
<path d="M87.5538 -13.1523
L87.5062 -13.0570
" />
<path d="M87.5062 -13.0570
L87.5062 -12.6761
" />
<path d="M87.5062 -12.6761
L88.5062 -12.6761
" />
<path d="M88.5062 -12.6761
L88.5062 -13.0094
" />
<path d="M88.5062 -13.0094
L88.4586 -13.1047
" />
<path d="M88.4586 -13.1047
L88.4109 -13.1523
" />
<path d="M88.4109 -13.1523
L88.3157 -13.1999
" />
<path d="M88.3157 -13.1999
L88.2205 -13.1999
" />
<path d="M88.2205 -13.1999
L88.1252 -13.1523
" />
<path d="M88.1252 -13.1523
L88.0776 -13.1047
" />
<path d="M88.0776 -13.1047
L88.0300 -13.0094
" />
<path d="M88.0300 -13.0094
L88.0300 -12.6761
" />
</g><g transform="rotate(-45.000000 67.5540 -18.2880)">
<text x="67.5540" y="-17.8880"
transform="scale(-1 1) translate(-135.108000 0)"
textLength="3.4138" font-size="1.0667" lengthAdjust="spacingAndGlyphs"
text-anchor="middle" opacity="0">GP27</text>
</g>
<g class="stroked-text"><desc>GP27</desc>
<path d="M67.9449 -19.2440
L67.9718 -19.3248
" />
<path d="M67.9718 -19.3248
L68.0526 -19.4056
" />
<path d="M68.0526 -19.4056
L68.1604 -19.4595
" />
<path d="M68.1604 -19.4595
L68.2681 -19.4595
" />
<path d="M68.2681 -19.4595
L68.3489 -19.4326
" />
<path d="M68.3489 -19.4326
L68.4836 -19.3518
" />
<path d="M68.4836 -19.3518
L68.5644 -19.2709
" />
<path d="M68.5644 -19.2709
L68.6452 -19.1363
" />
<path d="M68.6452 -19.1363
L68.6722 -19.0554
" />
<path d="M68.6722 -19.0554
L68.6722 -18.9477
" />
<path d="M68.6722 -18.9477
L68.6183 -18.8399
" />
<path d="M68.6183 -18.8399
L68.5644 -18.7861
" />
<path d="M68.5644 -18.7861
L68.4567 -18.7322
" />
<path d="M68.4567 -18.7322
L68.4028 -18.7322
" />
<path d="M68.4028 -18.7322
L68.2142 -18.9208
" />
<path d="M68.2142 -18.9208
L68.3220 -19.0285
" />
<path d="M68.2142 -18.4359
L67.6486 -19.0016
" />
<path d="M67.6486 -19.0016
L67.4331 -18.7861
" />
<path d="M67.4331 -18.7861
L67.4061 -18.7053
" />
<path d="M67.4061 -18.7053
L67.4061 -18.6514
" />
<path d="M67.4061 -18.6514
L67.4331 -18.5706
" />
<path d="M67.4331 -18.5706
L67.5139 -18.4898
" />
<path d="M67.5139 -18.4898
L67.5947 -18.4628
" />
<path d="M67.5947 -18.4628
L67.6486 -18.4628
" />
<path d="M67.6486 -18.4628
L67.7294 -18.4898
" />
<path d="M67.7294 -18.4898
L67.9449 -18.7053
" />
<path d="M67.1637 -18.4089
L67.1098 -18.4089
" />
<path d="M67.1098 -18.4089
L67.0290 -18.3820
" />
<path d="M67.0290 -18.3820
L66.8943 -18.2473
" />
<path d="M66.8943 -18.2473
L66.8674 -18.1665
" />
<path d="M66.8674 -18.1665
L66.8674 -18.1126
" />
<path d="M66.8674 -18.1126
L66.8943 -18.0318
" />
<path d="M66.8943 -18.0318
L66.9482 -17.9779
" />
<path d="M66.9482 -17.9779
L67.0559 -17.9241
" />
<path d="M67.0559 -17.9241
L67.7024 -17.9241
" />
<path d="M67.7024 -17.9241
L67.3522 -17.5739
" />
<path d="M66.5980 -17.9510
L66.2209 -17.5739
" />
<path d="M66.2209 -17.5739
L67.0290 -17.2506
" />
</g><g transform="rotate(-45.000000 42.1640 -18.2880)">
<text x="42.1640" y="-17.8880"
transform="scale(-1 1) translate(-84.328000 0)"
textLength="3.4138" font-size="1.0667" lengthAdjust="spacingAndGlyphs"
text-anchor="middle" opacity="0">GP17</text>
</g>
<g class="stroked-text"><desc>GP17</desc>
<path d="M42.5549 -19.2440
L42.5818 -19.3248
" />
<path d="M42.5818 -19.3248
L42.6626 -19.4056
" />
<path d="M42.6626 -19.4056
L42.7704 -19.4595
" />
<path d="M42.7704 -19.4595
L42.8781 -19.4595
" />
<path d="M42.8781 -19.4595
L42.9589 -19.4326
" />
<path d="M42.9589 -19.4326
L43.0936 -19.3518
" />
<path d="M43.0936 -19.3518
L43.1744 -19.2709
" />
<path d="M43.1744 -19.2709
L43.2552 -19.1363
" />
<path d="M43.2552 -19.1363
L43.2822 -19.0554
" />
<path d="M43.2822 -19.0554
L43.2822 -18.9477
" />
<path d="M43.2822 -18.9477
L43.2283 -18.8399
" />
<path d="M43.2283 -18.8399
L43.1744 -18.7861
" />
<path d="M43.1744 -18.7861
L43.0667 -18.7322
" />
<path d="M43.0667 -18.7322
L43.0128 -18.7322
" />
<path d="M43.0128 -18.7322
L42.8242 -18.9208
" />
<path d="M42.8242 -18.9208
L42.9320 -19.0285
" />
<path d="M42.8242 -18.4359
L42.2586 -19.0016
" />
<path d="M42.2586 -19.0016
L42.0431 -18.7861
" />
<path d="M42.0431 -18.7861
L42.0161 -18.7053
" />
<path d="M42.0161 -18.7053
L42.0161 -18.6514
" />
<path d="M42.0161 -18.6514
L42.0431 -18.5706
" />
<path d="M42.0431 -18.5706
L42.1239 -18.4898
" />
<path d="M42.1239 -18.4898
L42.2047 -18.4628
" />
<path d="M42.2047 -18.4628
L42.2586 -18.4628
" />
<path d="M42.2586 -18.4628
L42.3394 -18.4898
" />
<path d="M42.3394 -18.4898
L42.5549 -18.7053
" />
<path d="M41.9622 -17.5739
L42.2855 -17.8971
" />
<path d="M42.1239 -17.7355
L41.5582 -18.3012
" />
<path d="M41.5582 -18.3012
L41.6929 -18.2743
" />
<path d="M41.6929 -18.2743
L41.8006 -18.2743
" />
<path d="M41.8006 -18.2743
L41.8814 -18.3012
" />
<path d="M41.2080 -17.9510
L40.8309 -17.5739
" />
<path d="M40.8309 -17.5739
L41.6390 -17.2506
" />
</g><g transform="rotate(-45.000000 62.4840 -18.2340)">
<text x="62.4840" y="-17.8340"
transform="scale(-1 1) translate(-124.968000 0)"
textLength="2.7662" font-size="1.0667" lengthAdjust="spacingAndGlyphs"
text-anchor="middle" opacity="0">RUN</text>
</g>
<g class="stroked-text"><desc>RUN</desc>
<path d="M63.1577 -18.3953
L63.0769 -18.8533
" />
<path d="M63.4810 -18.7186
L62.9153 -19.2843
" />
<path d="M62.9153 -19.2843
L62.6998 -19.0688
" />
<path d="M62.6998 -19.0688
L62.6728 -18.9880
" />
<path d="M62.6728 -18.9880
L62.6728 -18.9341
" />
<path d="M62.6728 -18.9341
L62.6998 -18.8533
" />
<path d="M62.6998 -18.8533
L62.7806 -18.7725
" />
<path d="M62.7806 -18.7725
L62.8614 -18.7455
" />
<path d="M62.8614 -18.7455
L62.9153 -18.7455
" />
<path d="M62.9153 -18.7455
L62.9961 -18.7725
" />
<path d="M62.9961 -18.7725
L63.2116 -18.9880
" />
<path d="M62.3496 -18.7186
L62.8075 -18.2607
" />
<path d="M62.8075 -18.2607
L62.8345 -18.1798
" />
<path d="M62.8345 -18.1798
L62.8345 -18.1260
" />
<path d="M62.8345 -18.1260
L62.8075 -18.0452
" />
<path d="M62.8075 -18.0452
L62.6998 -17.9374
" />
<path d="M62.6998 -17.9374
L62.6190 -17.9105
" />
<path d="M62.6190 -17.9105
L62.5651 -17.9105
" />
<path d="M62.5651 -17.9105
L62.4843 -17.9374
" />
<path d="M62.4843 -17.9374
L62.0263 -18.3953
" />
<path d="M62.3227 -17.5603
L61.7570 -18.1260
" />
<path d="M61.7570 -18.1260
L61.9994 -17.2370
" />
<path d="M61.9994 -17.2370
L61.4337 -17.8027
" />
</g><g transform="rotate(-45.000000 52.3240 -18.2880)">
<text x="52.3240" y="-17.8880"
transform="scale(-1 1) translate(-104.648000 0)"
textLength="3.4138" font-size="1.0667" lengthAdjust="spacingAndGlyphs"
text-anchor="middle" opacity="0">GP20</text>
</g>
<g class="stroked-text"><desc>GP20</desc>
<path d="M52.7149 -19.2440
L52.7418 -19.3248
" />
<path d="M52.7418 -19.3248
L52.8226 -19.4056
" />
<path d="M52.8226 -19.4056
L52.9304 -19.4595
" />
<path d="M52.9304 -19.4595
L53.0381 -19.4595
" />
<path d="M53.0381 -19.4595
L53.1189 -19.4326
" />
<path d="M53.1189 -19.4326
L53.2536 -19.3518
" />
<path d="M53.2536 -19.3518
L53.3344 -19.2709
" />
<path d="M53.3344 -19.2709
L53.4152 -19.1363
" />
<path d="M53.4152 -19.1363
L53.4422 -19.0554
" />
<path d="M53.4422 -19.0554
L53.4422 -18.9477
" />
<path d="M53.4422 -18.9477
L53.3883 -18.8399
" />
<path d="M53.3883 -18.8399
L53.3344 -18.7861
" />
<path d="M53.3344 -18.7861
L53.2267 -18.7322
" />
<path d="M53.2267 -18.7322
L53.1728 -18.7322
" />
<path d="M53.1728 -18.7322
L52.9842 -18.9208
" />
<path d="M52.9842 -18.9208
L53.0920 -19.0285
" />
<path d="M52.9842 -18.4359
L52.4186 -19.0016
" />
<path d="M52.4186 -19.0016
L52.2031 -18.7861
" />
<path d="M52.2031 -18.7861
L52.1761 -18.7053
" />
<path d="M52.1761 -18.7053
L52.1761 -18.6514
" />
<path d="M52.1761 -18.6514
L52.2031 -18.5706
" />
<path d="M52.2031 -18.5706
L52.2839 -18.4898
" />
<path d="M52.2839 -18.4898
L52.3647 -18.4628
" />
<path d="M52.3647 -18.4628
L52.4186 -18.4628
" />
<path d="M52.4186 -18.4628
L52.4994 -18.4898
" />
<path d="M52.4994 -18.4898
L52.7149 -18.7053
" />
<path d="M51.9337 -18.4089
L51.8798 -18.4089
" />
<path d="M51.8798 -18.4089
L51.7990 -18.3820
" />
<path d="M51.7990 -18.3820
L51.6643 -18.2473
" />
<path d="M51.6643 -18.2473
L51.6374 -18.1665
" />
<path d="M51.6374 -18.1665
L51.6374 -18.1126
" />
<path d="M51.6374 -18.1126
L51.6643 -18.0318
" />
<path d="M51.6643 -18.0318
L51.7182 -17.9779
" />
<path d="M51.7182 -17.9779
L51.8259 -17.9241
" />
<path d="M51.8259 -17.9241
L52.4724 -17.9241
" />
<path d="M52.4724 -17.9241
L52.1222 -17.5739
" />
<path d="M51.2064 -17.7894
L51.1525 -17.7355
" />
<path d="M51.1525 -17.7355
L51.1256 -17.6547
" />
<path d="M51.1256 -17.6547
L51.1256 -17.6008
" />
<path d="M51.1256 -17.6008
L51.1525 -17.5200
" />
<path d="M51.1525 -17.5200
L51.2333 -17.3853
" />
<path d="M51.2333 -17.3853
L51.3680 -17.2506
" />
<path d="M51.3680 -17.2506
L51.5027 -17.1698
" />
<path d="M51.5027 -17.1698
L51.5835 -17.1429
" />
<path d="M51.5835 -17.1429
L51.6374 -17.1429
" />
<path d="M51.6374 -17.1429
L51.7182 -17.1698
" />
<path d="M51.7182 -17.1698
L51.7721 -17.2237
" />
<path d="M51.7721 -17.2237
L51.7990 -17.3045
" />
<path d="M51.7990 -17.3045
L51.7990 -17.3584
" />
<path d="M51.7990 -17.3584
L51.7721 -17.4392
" />
<path d="M51.7721 -17.4392
L51.6912 -17.5739
" />
<path d="M51.6912 -17.5739
L51.5566 -17.7086
" />
<path d="M51.5566 -17.7086
L51.4219 -17.7894
" />
<path d="M51.4219 -17.7894
L51.3411 -17.8163
" />
<path d="M51.3411 -17.8163
L51.2872 -17.8163
" />
<path d="M51.2872 -17.8163
L51.2064 -17.7894
" />
</g><g transform="rotate(-45.000000 85.3540 -5.7420)">
<text x="85.3540" y="-5.3420"
transform="scale(-1 1) translate(-170.708000 0)"
textLength="2.6519" font-size="1.0667" lengthAdjust="spacingAndGlyphs"
text-anchor="middle" opacity="0">GP1</text>
</g>
<g class="stroked-text"><desc>GP1</desc>
<path d="M85.4755 -6.4286
L85.5024 -6.5094
" />
<path d="M85.5024 -6.5094
L85.5832 -6.5903
" />
<path d="M85.5832 -6.5903
L85.6910 -6.6441
" />
<path d="M85.6910 -6.6441
L85.7987 -6.6441
" />
<path d="M85.7987 -6.6441
L85.8796 -6.6172
" />
<path d="M85.8796 -6.6172
L86.0142 -6.5364
" />
<path d="M86.0142 -6.5364
L86.0951 -6.4556
" />
<path d="M86.0951 -6.4556
L86.1759 -6.3209
" />
<path d="M86.1759 -6.3209
L86.2028 -6.2401
" />
<path d="M86.2028 -6.2401
L86.2028 -6.1323
" />
<path d="M86.2028 -6.1323
L86.1489 -6.0246
" />
<path d="M86.1489 -6.0246
L86.0951 -5.9707
" />
<path d="M86.0951 -5.9707
L85.9873 -5.9168
" />
<path d="M85.9873 -5.9168
L85.9334 -5.9168
" />
<path d="M85.9334 -5.9168
L85.7449 -6.1054
" />
<path d="M85.7449 -6.1054
L85.8526 -6.2131
" />
<path d="M85.7449 -5.6205
L85.1792 -6.1862
" />
<path d="M85.1792 -6.1862
L84.9637 -5.9707
" />
<path d="M84.9637 -5.9707
L84.9367 -5.8899
" />
<path d="M84.9367 -5.8899
L84.9367 -5.8360
" />
<path d="M84.9367 -5.8360
L84.9637 -5.7552
" />
<path d="M84.9637 -5.7552
L85.0445 -5.6744
" />
<path d="M85.0445 -5.6744
L85.1253 -5.6474
" />
<path d="M85.1253 -5.6474
L85.1792 -5.6474
" />
<path d="M85.1792 -5.6474
L85.2600 -5.6744
" />
<path d="M85.2600 -5.6744
L85.4755 -5.8899
" />
<path d="M84.8829 -4.7585
L85.2061 -5.0818
" />
<path d="M85.0445 -4.9201
L84.4788 -5.4858
" />
<path d="M84.4788 -5.4858
L84.6135 -5.4589
" />
<path d="M84.6135 -5.4589
L84.7212 -5.4589
" />
<path d="M84.7212 -5.4589
L84.8021 -5.4858
" />
</g><g transform="rotate(-45.000000 49.7840 -5.4420)">
<text x="49.7840" y="-5.0420"
transform="scale(-1 1) translate(-99.568000 0)"
textLength="3.4138" font-size="1.0667" lengthAdjust="spacingAndGlyphs"
text-anchor="middle" opacity="0">GP12</text>
</g>
<g class="stroked-text"><desc>GP12</desc>
<path d="M50.1749 -6.3980
L50.2018 -6.4788
" />
<path d="M50.2018 -6.4788
L50.2826 -6.5596
" />
<path d="M50.2826 -6.5596
L50.3904 -6.6135
" />
<path d="M50.3904 -6.6135
L50.4981 -6.6135
" />
<path d="M50.4981 -6.6135
L50.5789 -6.5866
" />
<path d="M50.5789 -6.5866
L50.7136 -6.5058
" />
<path d="M50.7136 -6.5058
L50.7944 -6.4249
" />
<path d="M50.7944 -6.4249
L50.8752 -6.2903
" />
<path d="M50.8752 -6.2903
L50.9022 -6.2094
" />
<path d="M50.9022 -6.2094
L50.9022 -6.1017
" />
<path d="M50.9022 -6.1017
L50.8483 -5.9939
" />
<path d="M50.8483 -5.9939
L50.7944 -5.9401
" />
<path d="M50.7944 -5.9401
L50.6867 -5.8862
" />
<path d="M50.6867 -5.8862
L50.6328 -5.8862
" />
<path d="M50.6328 -5.8862
L50.4442 -6.0748
" />
<path d="M50.4442 -6.0748
L50.5520 -6.1825
" />
<path d="M50.4442 -5.5899
L49.8786 -6.1556
" />
<path d="M49.8786 -6.1556
L49.6631 -5.9401
" />
<path d="M49.6631 -5.9401
L49.6361 -5.8593
" />
<path d="M49.6361 -5.8593
L49.6361 -5.8054
" />
<path d="M49.6361 -5.8054
L49.6631 -5.7246
" />
<path d="M49.6631 -5.7246
L49.7439 -5.6438
" />
<path d="M49.7439 -5.6438
L49.8247 -5.6168
" />
<path d="M49.8247 -5.6168
L49.8786 -5.6168
" />
<path d="M49.8786 -5.6168
L49.9594 -5.6438
" />
<path d="M49.9594 -5.6438
L50.1749 -5.8593
" />
<path d="M49.5822 -4.7279
L49.9055 -5.0511
" />
<path d="M49.7439 -4.8895
L49.1782 -5.4552
" />
<path d="M49.1782 -5.4552
L49.3129 -5.4283
" />
<path d="M49.3129 -5.4283
L49.4206 -5.4283
" />
<path d="M49.4206 -5.4283
L49.5014 -5.4552
" />
<path d="M48.8549 -5.0242
L48.8011 -5.0242
" />
<path d="M48.8011 -5.0242
L48.7202 -4.9973
" />
<path d="M48.7202 -4.9973
L48.5856 -4.8626
" />
<path d="M48.5856 -4.8626
L48.5586 -4.7818
" />
<path d="M48.5586 -4.7818
L48.5586 -4.7279
" />
<path d="M48.5586 -4.7279
L48.5856 -4.6471
" />
<path d="M48.5856 -4.6471
L48.6394 -4.5932
" />
<path d="M48.6394 -4.5932
L48.7472 -4.5393
" />
<path d="M48.7472 -4.5393
L49.3937 -4.5393
" />
<path d="M49.3937 -4.5393
L49.0435 -4.1891
" />
</g><g transform="rotate(-45.000000 39.6240 -18.2880)">
<text x="39.6240" y="-17.8880"
transform="scale(-1 1) translate(-79.248000 0)"
textLength="3.4138" font-size="1.0667" lengthAdjust="spacingAndGlyphs"
text-anchor="middle" opacity="0">GP16</text>
</g>
<g class="stroked-text"><desc>GP16</desc>
<path d="M40.0149 -19.2440
L40.0418 -19.3248
" />
<path d="M40.0418 -19.3248
L40.1226 -19.4056
" />
<path d="M40.1226 -19.4056
L40.2304 -19.4595
" />
<path d="M40.2304 -19.4595
L40.3381 -19.4595
" />
<path d="M40.3381 -19.4595
L40.4189 -19.4326
" />
<path d="M40.4189 -19.4326
L40.5536 -19.3518
" />
<path d="M40.5536 -19.3518
L40.6344 -19.2709
" />
<path d="M40.6344 -19.2709
L40.7152 -19.1363
" />
<path d="M40.7152 -19.1363
L40.7422 -19.0554
" />
<path d="M40.7422 -19.0554
L40.7422 -18.9477
" />
<path d="M40.7422 -18.9477
L40.6883 -18.8399
" />
<path d="M40.6883 -18.8399
L40.6344 -18.7861
" />
<path d="M40.6344 -18.7861
L40.5267 -18.7322
" />
<path d="M40.5267 -18.7322
L40.4728 -18.7322
" />
<path d="M40.4728 -18.7322
L40.2842 -18.9208
" />
<path d="M40.2842 -18.9208
L40.3920 -19.0285
" />
<path d="M40.2842 -18.4359
L39.7186 -19.0016
" />
<path d="M39.7186 -19.0016
L39.5031 -18.7861
" />
<path d="M39.5031 -18.7861
L39.4761 -18.7053
" />
<path d="M39.4761 -18.7053
L39.4761 -18.6514
" />
<path d="M39.4761 -18.6514
L39.5031 -18.5706
" />
<path d="M39.5031 -18.5706
L39.5839 -18.4898
" />
<path d="M39.5839 -18.4898
L39.6647 -18.4628
" />
<path d="M39.6647 -18.4628
L39.7186 -18.4628
" />
<path d="M39.7186 -18.4628
L39.7994 -18.4898
" />
<path d="M39.7994 -18.4898
L40.0149 -18.7053
" />
<path d="M39.4222 -17.5739
L39.7455 -17.8971
" />
<path d="M39.5839 -17.7355
L39.0182 -18.3012
" />
<path d="M39.0182 -18.3012
L39.1529 -18.2743
" />
<path d="M39.1529 -18.2743
L39.2606 -18.2743
" />
<path d="M39.2606 -18.2743
L39.3414 -18.3012
" />
<path d="M38.3717 -17.6547
L38.4794 -17.7624
" />
<path d="M38.4794 -17.7624
L38.5602 -17.7894
" />
<path d="M38.5602 -17.7894
L38.6141 -17.7894
" />
<path d="M38.6141 -17.7894
L38.7488 -17.7624
" />
<path d="M38.7488 -17.7624
L38.8835 -17.6816
" />
<path d="M38.8835 -17.6816
L39.0990 -17.4661
" />
<path d="M39.0990 -17.4661
L39.1259 -17.3853
" />
<path d="M39.1259 -17.3853
L39.1259 -17.3314
" />
<path d="M39.1259 -17.3314
L39.0990 -17.2506
" />
<path d="M39.0990 -17.2506
L38.9912 -17.1429
" />
<path d="M38.9912 -17.1429
L38.9104 -17.1159
" />
<path d="M38.9104 -17.1159
L38.8566 -17.1159
" />
<path d="M38.8566 -17.1159
L38.7757 -17.1429
" />
<path d="M38.7757 -17.1429
L38.6411 -17.2776
" />
<path d="M38.6411 -17.2776
L38.6141 -17.3584
" />
<path d="M38.6141 -17.3584
L38.6141 -17.4123
" />
<path d="M38.6141 -17.4123
L38.6411 -17.4931
" />
<path d="M38.6411 -17.4931
L38.7488 -17.6008
" />
<path d="M38.7488 -17.6008
L38.8296 -17.6278
" />
<path d="M38.8296 -17.6278
L38.8835 -17.6278
" />
<path d="M38.8835 -17.6278
L38.9643 -17.6008
" />
</g><g transform="rotate(-45.000000 44.7040 -5.8420)">
<text x="44.7040" y="-5.4420"
transform="scale(-1 1) translate(-89.408000 0)"
textLength="2.7281" font-size="1.0667" lengthAdjust="spacingAndGlyphs"
text-anchor="middle" opacity="0">GND</text>
</g>
<g class="stroked-text"><desc>GND</desc>
<path d="M44.8524 -6.5556
L44.8794 -6.6364
" />
<path d="M44.8794 -6.6364
L44.9602 -6.7172
" />
<path d="M44.9602 -6.7172
L45.0679 -6.7711
" />
<path d="M45.0679 -6.7711
L45.1757 -6.7711
" />
<path d="M45.1757 -6.7711
L45.2565 -6.7441
" />
<path d="M45.2565 -6.7441
L45.3912 -6.6633
" />
<path d="M45.3912 -6.6633
L45.4720 -6.5825
" />
<path d="M45.4720 -6.5825
L45.5528 -6.4478
" />
<path d="M45.5528 -6.4478
L45.5797 -6.3670
" />
<path d="M45.5797 -6.3670
L45.5797 -6.2593
" />
<path d="M45.5797 -6.2593
L45.5259 -6.1515
" />
<path d="M45.5259 -6.1515
L45.4720 -6.0976
" />
<path d="M45.4720 -6.0976
L45.3642 -6.0438
" />
<path d="M45.3642 -6.0438
L45.3104 -6.0438
" />
<path d="M45.3104 -6.0438
L45.1218 -6.2323
" />
<path d="M45.1218 -6.2323
L45.2296 -6.3401
" />
<path d="M45.1218 -5.7474
L44.5561 -6.3131
" />
<path d="M44.5561 -6.3131
L44.7986 -5.4242
" />
<path d="M44.7986 -5.4242
L44.2329 -5.9899
" />
<path d="M44.5292 -5.1548
L43.9635 -5.7205
" />
<path d="M43.9635 -5.7205
L43.8288 -5.5858
" />
<path d="M43.8288 -5.5858
L43.7749 -5.4781
" />
<path d="M43.7749 -5.4781
L43.7749 -5.3703
" />
<path d="M43.7749 -5.3703
L43.8019 -5.2895
" />
<path d="M43.8019 -5.2895
L43.8827 -5.1548
" />
<path d="M43.8827 -5.1548
L43.9635 -5.0740
" />
<path d="M43.9635 -5.0740
L44.0982 -4.9932
" />
<path d="M44.0982 -4.9932
L44.1790 -4.9663
" />
<path d="M44.1790 -4.9663
L44.2867 -4.9663
" />
<path d="M44.2867 -4.9663
L44.3945 -5.0201
" />
<path d="M44.3945 -5.0201
L44.5292 -5.1548
" />
</g><g transform="rotate(-45.000000 76.2540 -19.2340)">
<text x="76.2540" y="-18.8340"
transform="scale(-1 1) translate(-152.508000 0)"
textLength="6.0805" font-size="1.0667" lengthAdjust="spacingAndGlyphs"
text-anchor="middle" opacity="0">ADC_VREF</text>
</g>
<g class="stroked-text"><desc>ADC_VREF</desc>
<path d="M78.2880 -21.0789
L78.0187 -20.8096
" />
<path d="M78.5035 -20.9712
L77.7493 -21.3483
" />
<path d="M77.7493 -21.3483
L78.1264 -20.5941
" />
<path d="M77.9379 -20.4055
L77.3722 -20.9712
" />
<path d="M77.3722 -20.9712
L77.2375 -20.8365
" />
<path d="M77.2375 -20.8365
L77.1836 -20.7287
" />
<path d="M77.1836 -20.7287
L77.1836 -20.6210
" />
<path d="M77.1836 -20.6210
L77.2106 -20.5402
" />
<path d="M77.2106 -20.5402
L77.2914 -20.4055
" />
<path d="M77.2914 -20.4055
L77.3722 -20.3247
" />
<path d="M77.3722 -20.3247
L77.5069 -20.2439
" />
<path d="M77.5069 -20.2439
L77.5877 -20.2169
" />
<path d="M77.5877 -20.2169
L77.6954 -20.2169
" />
<path d="M77.6954 -20.2169
L77.8032 -20.2708
" />
<path d="M77.8032 -20.2708
L77.9379 -20.4055
" />
<path d="M76.9951 -19.5704
L77.0489 -19.5704
" />
<path d="M77.0489 -19.5704
L77.1567 -19.6243
" />
<path d="M77.1567 -19.6243
L77.2106 -19.6782
" />
<path d="M77.2106 -19.6782
L77.2644 -19.7859
" />
<path d="M77.2644 -19.7859
L77.2644 -19.8937
" />
<path d="M77.2644 -19.8937
L77.2375 -19.9745
" />
<path d="M77.2375 -19.9745
L77.1567 -20.1092
" />
<path d="M77.1567 -20.1092
L77.0759 -20.1900
" />
<path d="M77.0759 -20.1900
L76.9412 -20.2708
" />
<path d="M76.9412 -20.2708
L76.8604 -20.2978
" />
<path d="M76.8604 -20.2978
L76.7526 -20.2978
" />
<path d="M76.7526 -20.2978
L76.6449 -20.2439
" />
<path d="M76.6449 -20.2439
L76.5910 -20.1900
" />
<path d="M76.5910 -20.1900
L76.5371 -20.0823
" />
<path d="M76.5371 -20.0823
L76.5371 -20.0284
" />
<path d="M76.9951 -19.3549
L76.5641 -18.9239
" />
<path d="M75.8906 -19.4896
L76.2677 -18.7354
" />
<path d="M76.2677 -18.7354
L75.5135 -19.1125
" />
<path d="M75.5674 -18.0350
L75.4866 -18.4929
" />
<path d="M75.8906 -18.3583
L75.3249 -18.9239
" />
<path d="M75.3249 -18.9239
L75.1094 -18.7084
" />
<path d="M75.1094 -18.7084
L75.0825 -18.6276
" />
<path d="M75.0825 -18.6276
L75.0825 -18.5738
" />
<path d="M75.0825 -18.5738
L75.1094 -18.4929
" />
<path d="M75.1094 -18.4929
L75.1902 -18.4121
" />
<path d="M75.1902 -18.4121
L75.2711 -18.3852
" />
<path d="M75.2711 -18.3852
L75.3249 -18.3852
" />
<path d="M75.3249 -18.3852
L75.4057 -18.4121
" />
<path d="M75.4057 -18.4121
L75.6212 -18.6276
" />
<path d="M75.0286 -18.0889
L74.8401 -17.9003
" />
<path d="M75.0556 -17.5232
L75.3249 -17.7926
" />
<path d="M75.3249 -17.7926
L74.7592 -18.3583
" />
<path d="M74.7592 -18.3583
L74.4899 -18.0889
" />
<path d="M74.3283 -17.3885
L74.5168 -17.5771
" />
<path d="M74.8131 -17.2808
L74.2474 -17.8464
" />
<path d="M74.2474 -17.8464
L73.9781 -17.5771
" />
</g><g transform="rotate(-45.000000 65.0540 -5.9420)">
<text x="65.0540" y="-5.5420"
transform="scale(-1 1) translate(-130.108000 0)"
textLength="2.6519" font-size="1.0667" lengthAdjust="spacingAndGlyphs"
text-anchor="middle" opacity="0">GP7</text>
</g>
<g class="stroked-text"><desc>GP7</desc>
<path d="M65.1755 -6.6286
L65.2024 -6.7094
" />
<path d="M65.2024 -6.7094
L65.2832 -6.7903
" />
<path d="M65.2832 -6.7903
L65.3910 -6.8441
" />
<path d="M65.3910 -6.8441
L65.4987 -6.8441
" />
<path d="M65.4987 -6.8441
L65.5796 -6.8172
" />
<path d="M65.5796 -6.8172
L65.7142 -6.7364
" />
<path d="M65.7142 -6.7364
L65.7951 -6.6556
" />
<path d="M65.7951 -6.6556
L65.8759 -6.5209
" />
<path d="M65.8759 -6.5209
L65.9028 -6.4401
" />
<path d="M65.9028 -6.4401
L65.9028 -6.3323
" />
<path d="M65.9028 -6.3323
L65.8489 -6.2246
" />
<path d="M65.8489 -6.2246
L65.7951 -6.1707
" />
<path d="M65.7951 -6.1707
L65.6873 -6.1168
" />
<path d="M65.6873 -6.1168
L65.6334 -6.1168
" />
<path d="M65.6334 -6.1168
L65.4449 -6.3054
" />
<path d="M65.4449 -6.3054
L65.5526 -6.4131
" />
<path d="M65.4449 -5.8205
L64.8792 -6.3862
" />
<path d="M64.8792 -6.3862
L64.6637 -6.1707
" />
<path d="M64.6637 -6.1707
L64.6367 -6.0899
" />
<path d="M64.6367 -6.0899
L64.6367 -6.0360
" />
<path d="M64.6367 -6.0360
L64.6637 -5.9552
" />
<path d="M64.6637 -5.9552
L64.7445 -5.8744
" />
<path d="M64.7445 -5.8744
L64.8253 -5.8474
" />
<path d="M64.8253 -5.8474
L64.8792 -5.8474
" />
<path d="M64.8792 -5.8474
L64.9600 -5.8744
" />
<path d="M64.9600 -5.8744
L65.1755 -6.0899
" />
<path d="M64.3674 -5.8744
L63.9902 -5.4973
" />
<path d="M63.9902 -5.4973
L64.7984 -5.1740
" />
</g><g transform="rotate(-45.000000 75.1840 -5.8420)">
<text x="75.1840" y="-5.4420"
transform="scale(-1 1) translate(-150.368000 0)"
textLength="2.6519" font-size="1.0667" lengthAdjust="spacingAndGlyphs"
text-anchor="middle" opacity="0">GP4</text>
</g>
<g class="stroked-text"><desc>GP4</desc>
<path d="M75.3055 -6.5286
L75.3324 -6.6094
" />
<path d="M75.3324 -6.6094
L75.4132 -6.6903
" />
<path d="M75.4132 -6.6903
L75.5210 -6.7441
" />
<path d="M75.5210 -6.7441
L75.6287 -6.7441
" />
<path d="M75.6287 -6.7441
L75.7096 -6.7172
" />
<path d="M75.7096 -6.7172
L75.8442 -6.6364
" />
<path d="M75.8442 -6.6364
L75.9251 -6.5556
" />
<path d="M75.9251 -6.5556
L76.0059 -6.4209
" />
<path d="M76.0059 -6.4209
L76.0328 -6.3401
" />
<path d="M76.0328 -6.3401
L76.0328 -6.2323
" />
<path d="M76.0328 -6.2323
L75.9789 -6.1246
" />
<path d="M75.9789 -6.1246
L75.9251 -6.0707
" />
<path d="M75.9251 -6.0707
L75.8173 -6.0168
" />
<path d="M75.8173 -6.0168
L75.7634 -6.0168
" />
<path d="M75.7634 -6.0168
L75.5749 -6.2054
" />
<path d="M75.5749 -6.2054
L75.6826 -6.3131
" />
<path d="M75.5749 -5.7205
L75.0092 -6.2862
" />
<path d="M75.0092 -6.2862
L74.7937 -6.0707
" />
<path d="M74.7937 -6.0707
L74.7667 -5.9899
" />
<path d="M74.7667 -5.9899
L74.7667 -5.9360
" />
<path d="M74.7667 -5.9360
L74.7937 -5.8552
" />
<path d="M74.7937 -5.8552
L74.8745 -5.7744
" />
<path d="M74.8745 -5.7744
L74.9553 -5.7474
" />
<path d="M74.9553 -5.7474
L75.0092 -5.7474
" />
<path d="M75.0092 -5.7474
L75.0900 -5.7744
" />
<path d="M75.0900 -5.7744
L75.3055 -5.9899
" />
<path d="M74.3896 -5.2895
L74.7667 -4.9124
" />
<path d="M74.3088 -5.6397
L74.8476 -5.3703
" />
<path d="M74.8476 -5.3703
L74.4974 -5.0201
" />
</g><g transform="rotate(-45.000000 87.9540 -18.5340)">
<text x="87.9540" y="-18.1340"
transform="scale(-1 1) translate(-175.908000 0)"
textLength="3.3757" font-size="1.0667" lengthAdjust="spacingAndGlyphs"
text-anchor="middle" opacity="0">VBUS</text>
</g>
<g class="stroked-text"><desc>VBUS</desc>
<path d="M88.6816 -19.8806
L89.0587 -19.1263
" />
<path d="M89.0587 -19.1263
L88.3045 -19.5035
" />
<path d="M88.1967 -18.8570
L88.1428 -18.7492
" />
<path d="M88.1428 -18.7492
L88.1428 -18.6953
" />
<path d="M88.1428 -18.6953
L88.1698 -18.6145
" />
<path d="M88.1698 -18.6145
L88.2506 -18.5337
" />
<path d="M88.2506 -18.5337
L88.3314 -18.5068
" />
<path d="M88.3314 -18.5068
L88.3853 -18.5068
" />
<path d="M88.3853 -18.5068
L88.4661 -18.5337
" />
<path d="M88.4661 -18.5337
L88.6816 -18.7492
" />
<path d="M88.6816 -18.7492
L88.1159 -19.3149
" />
<path d="M88.1159 -19.3149
L87.9273 -19.1263
" />
<path d="M87.9273 -19.1263
L87.9004 -19.0455
" />
<path d="M87.9004 -19.0455
L87.9004 -18.9917
" />
<path d="M87.9004 -18.9917
L87.9273 -18.9108
" />
<path d="M87.9273 -18.9108
L87.9812 -18.8570
" />
<path d="M87.9812 -18.8570
L88.0620 -18.8300
" />
<path d="M88.0620 -18.8300
L88.1159 -18.8300
" />
<path d="M88.1159 -18.8300
L88.1967 -18.8570
" />
<path d="M88.1967 -18.8570
L88.3853 -19.0455
" />
<path d="M87.5502 -18.7492
L88.0082 -18.2913
" />
<path d="M88.0082 -18.2913
L88.0351 -18.2105
" />
<path d="M88.0351 -18.2105
L88.0351 -18.1566
" />
<path d="M88.0351 -18.1566
L88.0082 -18.0758
" />
<path d="M88.0082 -18.0758
L87.9004 -17.9680
" />
<path d="M87.9004 -17.9680
L87.8196 -17.9411
" />
<path d="M87.8196 -17.9411
L87.7657 -17.9411
" />
<path d="M87.7657 -17.9411
L87.6849 -17.9680
" />
<path d="M87.6849 -17.9680
L87.2270 -18.4260
" />
<path d="M87.5233 -17.6448
L87.4694 -17.5370
" />
<path d="M87.4694 -17.5370
L87.3347 -17.4024
" />
<path d="M87.3347 -17.4024
L87.2539 -17.3754
" />
<path d="M87.2539 -17.3754
L87.2000 -17.3754
" />
<path d="M87.2000 -17.3754
L87.1192 -17.4024
" />
<path d="M87.1192 -17.4024
L87.0653 -17.4562
" />
<path d="M87.0653 -17.4562
L87.0384 -17.5370
" />
<path d="M87.0384 -17.5370
L87.0384 -17.5909
" />
<path d="M87.0384 -17.5909
L87.0653 -17.6717
" />
<path d="M87.0653 -17.6717
L87.1462 -17.8064
" />
<path d="M87.1462 -17.8064
L87.1731 -17.8872
" />
<path d="M87.1731 -17.8872
L87.1731 -17.9411
" />
<path d="M87.1731 -17.9411
L87.1462 -18.0219
" />
<path d="M87.1462 -18.0219
L87.0923 -18.0758
" />
<path d="M87.0923 -18.0758
L87.0115 -18.1027
" />
<path d="M87.0115 -18.1027
L86.9576 -18.1027
" />
<path d="M86.9576 -18.1027
L86.8768 -18.0758
" />
<path d="M86.8768 -18.0758
L86.7421 -17.9411
" />
<path d="M86.7421 -17.9411
L86.6882 -17.8334
" />
</g><g transform="rotate(-45.000000 80.2640 -5.7420)">
<text x="80.2640" y="-5.3420"
transform="scale(-1 1) translate(-160.528000 0)"
textLength="2.6519" font-size="1.0667" lengthAdjust="spacingAndGlyphs"
text-anchor="middle" opacity="0">GP2</text>
</g>
<g class="stroked-text"><desc>GP2</desc>
<path d="M80.3855 -6.4286
L80.4124 -6.5094
" />
<path d="M80.4124 -6.5094
L80.4932 -6.5903
" />
<path d="M80.4932 -6.5903
L80.6010 -6.6441
" />
<path d="M80.6010 -6.6441
L80.7087 -6.6441
" />
<path d="M80.7087 -6.6441
L80.7896 -6.6172
" />
<path d="M80.7896 -6.6172
L80.9242 -6.5364
" />
<path d="M80.9242 -6.5364
L81.0051 -6.4556
" />
<path d="M81.0051 -6.4556
L81.0859 -6.3209
" />
<path d="M81.0859 -6.3209
L81.1128 -6.2401
" />
<path d="M81.1128 -6.2401
L81.1128 -6.1323
" />
<path d="M81.1128 -6.1323
L81.0589 -6.0246
" />
<path d="M81.0589 -6.0246
L81.0051 -5.9707
" />
<path d="M81.0051 -5.9707
L80.8973 -5.9168
" />
<path d="M80.8973 -5.9168
L80.8434 -5.9168
" />
<path d="M80.8434 -5.9168
L80.6549 -6.1054
" />
<path d="M80.6549 -6.1054
L80.7626 -6.2131
" />
<path d="M80.6549 -5.6205
L80.0892 -6.1862
" />
<path d="M80.0892 -6.1862
L79.8737 -5.9707
" />
<path d="M79.8737 -5.9707
L79.8467 -5.8899
" />
<path d="M79.8467 -5.8899
L79.8467 -5.8360
" />
<path d="M79.8467 -5.8360
L79.8737 -5.7552
" />
<path d="M79.8737 -5.7552
L79.9545 -5.6744
" />
<path d="M79.9545 -5.6744
L80.0353 -5.6474
" />
<path d="M80.0353 -5.6474
L80.0892 -5.6474
" />
<path d="M80.0892 -5.6474
L80.1700 -5.6744
" />
<path d="M80.1700 -5.6744
L80.3855 -5.8899
" />
<path d="M79.6043 -5.5936
L79.5504 -5.5936
" />
<path d="M79.5504 -5.5936
L79.4696 -5.5666
" />
<path d="M79.4696 -5.5666
L79.3349 -5.4319
" />
<path d="M79.3349 -5.4319
L79.3080 -5.3511
" />
<path d="M79.3080 -5.3511
L79.3080 -5.2973
" />
<path d="M79.3080 -5.2973
L79.3349 -5.2164
" />
<path d="M79.3349 -5.2164
L79.3888 -5.1626
" />
<path d="M79.3888 -5.1626
L79.4966 -5.1087
" />
<path d="M79.4966 -5.1087
L80.1431 -5.1087
" />
<path d="M80.1431 -5.1087
L79.7929 -4.7585
" />
</g><g transform="rotate(-45.000000 82.8040 -18.0340)">
<text x="82.8040" y="-17.6340"
transform="scale(-1 1) translate(-165.608000 0)"
textLength="2.7281" font-size="1.0667" lengthAdjust="spacingAndGlyphs"
text-anchor="middle" opacity="0">GND</text>
</g>
<g class="stroked-text"><desc>GND</desc>
<path d="M82.9524 -18.7476
L82.9794 -18.8284
" />
<path d="M82.9794 -18.8284
L83.0602 -18.9092
" />
<path d="M83.0602 -18.9092
L83.1679 -18.9631
" />
<path d="M83.1679 -18.9631
L83.2757 -18.9631
" />
<path d="M83.2757 -18.9631
L83.3565 -18.9361
" />
<path d="M83.3565 -18.9361
L83.4912 -18.8553
" />
<path d="M83.4912 -18.8553
L83.5720 -18.7745
" />
<path d="M83.5720 -18.7745
L83.6528 -18.6398
" />
<path d="M83.6528 -18.6398
L83.6797 -18.5590
" />
<path d="M83.6797 -18.5590
L83.6797 -18.4513
" />
<path d="M83.6797 -18.4513
L83.6259 -18.3435
" />
<path d="M83.6259 -18.3435
L83.5720 -18.2896
" />
<path d="M83.5720 -18.2896
L83.4642 -18.2358
" />
<path d="M83.4642 -18.2358
L83.4104 -18.2358
" />
<path d="M83.4104 -18.2358
L83.2218 -18.4243
" />
<path d="M83.2218 -18.4243
L83.3296 -18.5321
" />
<path d="M83.2218 -17.9394
L82.6561 -18.5051
" />
<path d="M82.6561 -18.5051
L82.8986 -17.6162
" />
<path d="M82.8986 -17.6162
L82.3329 -18.1819
" />
<path d="M82.6292 -17.3468
L82.0635 -17.9125
" />
<path d="M82.0635 -17.9125
L81.9288 -17.7778
" />
<path d="M81.9288 -17.7778
L81.8749 -17.6701
" />
<path d="M81.8749 -17.6701
L81.8749 -17.5623
" />
<path d="M81.8749 -17.5623
L81.9019 -17.4815
" />
<path d="M81.9019 -17.4815
L81.9827 -17.3468
" />
<path d="M81.9827 -17.3468
L82.0635 -17.2660
" />
<path d="M82.0635 -17.2660
L82.1982 -17.1852
" />
<path d="M82.1982 -17.1852
L82.2790 -17.1583
" />
<path d="M82.2790 -17.1583
L82.3867 -17.1583
" />
<path d="M82.3867 -17.1583
L82.4945 -17.2121
" />
<path d="M82.4945 -17.2121
L82.6292 -17.3468
" />
</g><g transform="rotate(-45.000000 70.1040 -5.8420)">
<text x="70.1040" y="-5.4420"
transform="scale(-1 1) translate(-140.208000 0)"
textLength="2.7281" font-size="1.0667" lengthAdjust="spacingAndGlyphs"
text-anchor="middle" opacity="0">GND</text>
</g>
<g class="stroked-text"><desc>GND</desc>
<path d="M70.2524 -6.5556
L70.2794 -6.6364
" />
<path d="M70.2794 -6.6364
L70.3602 -6.7172
" />
<path d="M70.3602 -6.7172
L70.4679 -6.7711
" />
<path d="M70.4679 -6.7711
L70.5757 -6.7711
" />
<path d="M70.5757 -6.7711
L70.6565 -6.7441
" />
<path d="M70.6565 -6.7441
L70.7912 -6.6633
" />
<path d="M70.7912 -6.6633
L70.8720 -6.5825
" />
<path d="M70.8720 -6.5825
L70.9528 -6.4478
" />
<path d="M70.9528 -6.4478
L70.9797 -6.3670
" />
<path d="M70.9797 -6.3670
L70.9797 -6.2593
" />
<path d="M70.9797 -6.2593
L70.9259 -6.1515
" />
<path d="M70.9259 -6.1515
L70.8720 -6.0976
" />
<path d="M70.8720 -6.0976
L70.7642 -6.0438
" />
<path d="M70.7642 -6.0438
L70.7104 -6.0438
" />
<path d="M70.7104 -6.0438
L70.5218 -6.2323
" />
<path d="M70.5218 -6.2323
L70.6296 -6.3401
" />
<path d="M70.5218 -5.7474
L69.9561 -6.3131
" />
<path d="M69.9561 -6.3131
L70.1986 -5.4242
" />
<path d="M70.1986 -5.4242
L69.6329 -5.9899
" />
<path d="M69.9292 -5.1548
L69.3635 -5.7205
" />
<path d="M69.3635 -5.7205
L69.2288 -5.5858
" />
<path d="M69.2288 -5.5858
L69.1749 -5.4781
" />
<path d="M69.1749 -5.4781
L69.1749 -5.3703
" />
<path d="M69.1749 -5.3703
L69.2019 -5.2895
" />
<path d="M69.2019 -5.2895
L69.2827 -5.1548
" />
<path d="M69.2827 -5.1548
L69.3635 -5.0740
" />
<path d="M69.3635 -5.0740
L69.4982 -4.9932
" />
<path d="M69.4982 -4.9932
L69.5790 -4.9663
" />
<path d="M69.5790 -4.9663
L69.6867 -4.9663
" />
<path d="M69.6867 -4.9663
L69.7945 -5.0201
" />
<path d="M69.7945 -5.0201
L69.9292 -5.1548
" />
</g><g transform="rotate(-45.000000 57.4040 -5.8420)">
<text x="57.4040" y="-5.4420"
transform="scale(-1 1) translate(-114.808000 0)"
textLength="2.7281" font-size="1.0667" lengthAdjust="spacingAndGlyphs"
text-anchor="middle" opacity="0">GND</text>
</g>
<g class="stroked-text"><desc>GND</desc>
<path d="M57.5524 -6.5556
L57.5794 -6.6364
" />
<path d="M57.5794 -6.6364
L57.6602 -6.7172
" />
<path d="M57.6602 -6.7172
L57.7679 -6.7711
" />
<path d="M57.7679 -6.7711
L57.8757 -6.7711
" />
<path d="M57.8757 -6.7711
L57.9565 -6.7441
" />
<path d="M57.9565 -6.7441
L58.0912 -6.6633
" />
<path d="M58.0912 -6.6633
L58.1720 -6.5825
" />
<path d="M58.1720 -6.5825
L58.2528 -6.4478
" />
<path d="M58.2528 -6.4478
L58.2797 -6.3670
" />
<path d="M58.2797 -6.3670
L58.2797 -6.2593
" />
<path d="M58.2797 -6.2593
L58.2259 -6.1515
" />
<path d="M58.2259 -6.1515
L58.1720 -6.0976
" />
<path d="M58.1720 -6.0976
L58.0642 -6.0438
" />
<path d="M58.0642 -6.0438
L58.0104 -6.0438
" />
<path d="M58.0104 -6.0438
L57.8218 -6.2323
" />
<path d="M57.8218 -6.2323
L57.9296 -6.3401
" />
<path d="M57.8218 -5.7474
L57.2561 -6.3131
" />
<path d="M57.2561 -6.3131
L57.4986 -5.4242
" />
<path d="M57.4986 -5.4242
L56.9329 -5.9899
" />
<path d="M57.2292 -5.1548
L56.6635 -5.7205
" />
<path d="M56.6635 -5.7205
L56.5288 -5.5858
" />
<path d="M56.5288 -5.5858
L56.4749 -5.4781
" />
<path d="M56.4749 -5.4781
L56.4749 -5.3703
" />
<path d="M56.4749 -5.3703
L56.5019 -5.2895
" />
<path d="M56.5019 -5.2895
L56.5827 -5.1548
" />
<path d="M56.5827 -5.1548
L56.6635 -5.0740
" />
<path d="M56.6635 -5.0740
L56.7982 -4.9932
" />
<path d="M56.7982 -4.9932
L56.8790 -4.9663
" />
<path d="M56.8790 -4.9663
L56.9867 -4.9663
" />
<path d="M56.9867 -4.9663
L57.0945 -5.0201
" />
<path d="M57.0945 -5.0201
L57.2292 -5.1548
" />
</g></g>
<g style="fill:#000000; fill-opacity:0.0; 
stroke:#000000; stroke-width:0.1200; stroke-opacity:1; 
stroke-linecap:round; stroke-linejoin:round;">
<path d="M41.0540 -1.4380
L40.6540 -1.4380
" />
<path d="M43.6540 -1.4380
L43.2540 -1.4380
" />
<path d="M46.1540 -1.4380
L45.7540 -1.4380
" />
<path d="M48.6540 -1.4380
L48.2540 -1.4380
" />
<path d="M51.2540 -1.4380
L50.8540 -1.4380
" />
<path d="M53.7540 -1.4380
L53.3540 -1.4380
" />
<path d="M56.3540 -1.4380
L55.9540 -1.4380
" />
<path d="M58.8540 -1.4380
L58.4540 -1.4380
" />
<path d="M61.4540 -1.4380
L61.0540 -1.4380
" />
<path d="M63.9540 -1.4380
L63.5540 -1.4380
" />
<path d="M66.4540 -1.4380
L66.0540 -1.4380
" />
<path d="M69.0540 -1.4380
L68.6540 -1.4380
" />
<path d="M71.5540 -1.4380
L71.1540 -1.4380
" />
<path d="M74.1540 -1.4380
L73.7540 -1.4380
" />
<path d="M76.6540 -1.4380
L76.2540 -1.4380
" />
<path d="M79.1540 -1.4380
L78.7540 -1.4380
" />
<path d="M81.7540 -1.4380
L81.3540 -1.4380
" />
<path d="M84.2540 -1.4380
L83.8540 -1.4380
" />
<path d="M86.5870 -1.4380
L86.5870 -4.4450
" />
<path d="M86.8540 -1.4380
L86.4540 -1.4380
" />
<path d="M89.2540 -1.4380
L88.9540 -1.4380
" />
<path d="M89.2540 -1.4380
L89.2540 -22.4380
" />
<path d="M86.5870 -4.4450
L89.2540 -4.4450
" />
<path d="M38.2540 -15.6380
L38.2540 -1.4380
" />
<path d="M38.2540 -22.4380
L38.2540 -15.6380
" />
<path d="M41.0540 -22.4380
L40.6540 -22.4380
" />
<path d="M43.6540 -22.4380
L43.2540 -22.4380
" />
<path d="M46.1540 -22.4380
L45.7540 -22.4380
" />
<path d="M48.6540 -22.4380
L48.2540 -22.4380
" />
<path d="M51.2540 -22.4380
L50.8540 -22.4380
" />
<path d="M53.7540 -22.4380
L53.3540 -22.4380
" />
<path d="M56.3540 -22.4380
L55.9540 -22.4380
" />
<path d="M58.8540 -22.4380
L58.4540 -22.4380
" />
<path d="M61.4540 -22.4380
L61.0540 -22.4380
" />
<path d="M63.9540 -22.4380
L63.5540 -22.4380
" />
<path d="M66.4540 -22.4380
L66.0540 -22.4380
" />
<path d="M69.0540 -22.4380
L68.6540 -22.4380
" />
<path d="M71.5540 -22.4380
L71.1540 -22.4380
" />
<path d="M74.1540 -22.4380
L73.7540 -22.4380
" />
<path d="M76.6540 -22.4380
L76.2540 -22.4380
" />
<path d="M79.1540 -22.4380
L78.7540 -22.4380
" />
<path d="M81.7540 -22.4380
L81.3540 -22.4380
" />
<path d="M84.2540 -22.4380
L83.8540 -22.4380
" />
<path d="M86.8540 -22.4380
L86.4540 -22.4380
" />
<path d="M89.2540 -22.4380
L88.9540 -22.4380
" />
<path d="M90.4240 -8.1280
L86.6140 -8.1280
" />
<path d="M86.6140 -8.1280
L86.6140 -15.7480
" />
<path d="M86.6140 -15.7480
L90.4240 -15.7480
" />
<path d="M90.4240 -15.7480
L90.4240 -8.1280
" />
<g >
</g>
<g >
</g>
<g >
</g>
<g >
</g>
<g >
</g>
<g >
</g>
<g >
</g>
<g >
</g>
<g >
</g>
<g >
</g>
<g >
</g>
<g >
</g>
<g >
</g>
<g >
</g>
<g >
</g>
<g >
</g>
<g >
</g>
<g >
</g>
<g >
</g>
<g >
</g>
<g >
</g>
<g >
</g>
<g >
</g>
<g >
</g>
<g >
</g>
<g >
</g>
<g >
</g>
</g> 
</svg>
