<?xml version="1.0" encoding="UTF-8" standalone="no"?>
<svg
   xmlns:dc="http://purl.org/dc/elements/1.1/"
   xmlns:cc="http://creativecommons.org/ns#"
   xmlns:rdf="http://www.w3.org/1999/02/22-rdf-syntax-ns#"
   xmlns:svg="http://www.w3.org/2000/svg"
   xmlns="http://www.w3.org/2000/svg"
   xmlns:sodipodi="http://sodipodi.sourceforge.net/DTD/sodipodi-0.dtd"
   xmlns:inkscape="http://www.inkscape.org/namespaces/inkscape"
   version="1.1"
   width="297.0022mm"
   height="210.0072mm"
   viewBox="0.0000 0.0000 297.0022 210.0072"
   id="svg130"
   sodipodi:docname="bouilloire_pcb-Edge_Cuts.svg"
   inkscape:version="0.92.5 (2060ec1f9f, 2020-04-08)">
  <metadata
     id="metadata136">
    <rdf:RDF>
      <cc:Work
         rdf:about="">
        <dc:format>image/svg+xml</dc:format>
        <dc:type
           rdf:resource="http://purl.org/dc/dcmitype/StillImage" />
      </cc:Work>
    </rdf:RDF>
  </metadata>
  <defs
     id="defs134" />
  <sodipodi:namedview
     pagecolor="#ffffff"
     bordercolor="#666666"
     borderopacity="1"
     objecttolerance="10"
     gridtolerance="10"
     guidetolerance="10"
     inkscape:pageopacity="0"
     inkscape:pageshadow="2"
     inkscape:window-width="1600"
     inkscape:window-height="836"
     id="namedview132"
     showgrid="false"
     inkscape:zoom="0.59466214"
     inkscape:cx="46.125551"
     inkscape:cy="680.64598"
     inkscape:window-x="0"
     inkscape:window-y="33"
     inkscape:window-maximized="1"
     inkscape:current-layer="svg130" />
  <title
     id="title2">SVG Image created as bouilloire_pcb-Edge_Cuts.svg date 2023/11/26 16:44:29 </title>
  <desc
     id="desc4">Image generated by PCBNEW </desc>
  <path
     style="fill:#000000;fill-opacity:0;stroke:#000000;stroke-width:0.15000001;stroke-linecap:round;stroke-linejoin:round;stroke-opacity:1"
     inkscape:connector-curvature="0"
     id="path10"
     d="M 16.5524,-8.347 10.8,-16.5" />
  <path
     style="fill:#000000;fill-opacity:0;stroke:#000000;stroke-width:0.15000001;stroke-linecap:round;stroke-linejoin:round;stroke-opacity:1"
     d="m 115.65,-43.75 a 1.75,1.75 0 0 1 -1.75,1.75 1.75,1.75 0 0 1 -1.75,-1.75 1.75,1.75 0 0 1 1.75,-1.75 1.75,1.75 0 0 1 1.75,1.75 z"
     id="circle12" />
  <path
     style="fill:#000000;fill-opacity:0;stroke:#000000;stroke-width:0.15000001;stroke-linecap:round;stroke-linejoin:round;stroke-opacity:1"
     inkscape:connector-curvature="0"
     id="path14"
     d="m 2,-59.5 a 2,2 0 0 0 -2,2" />
  <path
     style="fill:#000000;fill-opacity:0;stroke:#000000;stroke-width:0.15000001;stroke-linecap:round;stroke-linejoin:round;stroke-opacity:1"
     d="m 26.4,-6.4499998 a 1.75,1.75 0 0 1 -1.75,1.75 1.75,1.75 0 0 1 -1.75,-1.75 1.75,1.75 0 0 1 1.75,-1.75 1.75,1.75 0 0 1 1.75,1.75 z"
     id="circle16" />
  <path
     style="fill:#000000;fill-opacity:0;stroke:#000000;stroke-width:0.15000001;stroke-linecap:round;stroke-linejoin:round;stroke-opacity:1"
     d="m 104.6,-6.4499998 a 1.75,1.75 0 0 1 -1.75,1.75 1.75,1.75 0 0 1 -1.75,-1.75 1.75,1.75 0 0 1 1.75,-1.75 1.75,1.75 0 0 1 1.75,1.75 z"
     id="circle18" />
  <path
     style="fill:#000000;fill-opacity:0;stroke:#000000;stroke-width:0.15000001;stroke-linecap:round;stroke-linejoin:round;stroke-opacity:1"
     d="m 25.700001,-37.75 a 1.75,1.75 0 0 1 -1.75,1.75 1.75,1.75 0 0 1 -1.75,-1.75 1.75,1.75 0 0 1 1.75,-1.75 1.75,1.75 0 0 1 1.75,1.75 z"
     id="circle20" />
  <path
     style="fill:#000000;fill-opacity:0;stroke:#000000;stroke-width:0.15000001;stroke-linecap:round;stroke-linejoin:round;stroke-opacity:1"
     inkscape:connector-curvature="0"
     id="path22"
     d="m 0,-57.5 v 27.5607" />
  <path
     style="fill:#000000;fill-opacity:0;stroke:#000000;stroke-width:0.15000001;stroke-linecap:round;stroke-linejoin:round;stroke-opacity:1"
     inkscape:connector-curvature="0"
     id="path24"
     d="M 125.5,-59.5 H 2" />
  <path
     style="fill:#000000;fill-opacity:0;stroke:#000000;stroke-width:0.15000001;stroke-linecap:round;stroke-linejoin:round;stroke-opacity:1"
     inkscape:connector-curvature="0"
     id="path26"
     d="M 20.75,-2 V -7.5" />
  <path
     style="fill:#000000;fill-opacity:0;stroke:#000000;stroke-width:0.15000001;stroke-linecap:round;stroke-linejoin:round;stroke-opacity:1"
     inkscape:connector-curvature="0"
     id="path28"
     d="M 5.4637,-17.6619 A 2,2 0 0 0 7.2797,-16.5" />
  <path
     style="fill:#000000;fill-opacity:0;stroke:#000000;stroke-width:0.15000001;stroke-linecap:round;stroke-linejoin:round;stroke-opacity:1"
     d="m 18.75,-19.5 a 0.5,0.5 0 0 1 -0.5,0.5 0.5,0.5 0 0 1 -0.5,-0.5 0.5,0.5 0 0 1 0.5,-0.5 0.5,0.5 0 0 1 0.5,0.5 z"
     id="circle30" />
  <path
     style="fill:#000000;fill-opacity:0;stroke:#000000;stroke-width:0.15000001;stroke-linecap:round;stroke-linejoin:round;stroke-opacity:1"
     d="m 39.650002,-8.5 a 0.5,0.5 0 0 1 -0.5,0.5 0.5,0.5 0 0 1 -0.5,-0.5 0.5,0.5 0 0 1 0.5,-0.5 0.5,0.5 0 0 1 0.5,0.5 z"
     id="circle32" />
  <path
     style="fill:#000000;fill-opacity:0;stroke:#000000;stroke-width:0.15000001;stroke-linecap:round;stroke-linejoin:round;stroke-opacity:1"
     inkscape:connector-curvature="0"
     id="path34"
     d="M 127.3159,-29.1012 A 2.0003,2.0003 0 0 0 127.5,-29.9393" />
  <path
     style="fill:#000000;fill-opacity:0;stroke:#000000;stroke-width:0.15000001;stroke-linecap:round;stroke-linejoin:round;stroke-opacity:1"
     inkscape:connector-curvature="0"
     id="path36"
     d="m 116.7,-16.5 -5.7524,8.153" />
  <path
     style="fill:#000000;fill-opacity:0;stroke:#000000;stroke-width:0.15000001;stroke-linecap:round;stroke-linejoin:round;stroke-opacity:1"
     inkscape:connector-curvature="0"
     id="path38"
     d="M 16.5524,-8.347 A 2,2 0 0 0 18.1866,-7.5" />
  <path
     style="fill:#000000;fill-opacity:0;stroke:#000000;stroke-width:0.15000001;stroke-linecap:round;stroke-linejoin:round;stroke-opacity:1"
     inkscape:connector-curvature="0"
     id="path40"
     d="m 120.2203,-16.5 a 1.9999,1.9999 0 0 0 1.816,-1.1619" />
  <path
     style="fill:#000000;fill-opacity:0;stroke:#000000;stroke-width:0.15000001;stroke-linecap:round;stroke-linejoin:round;stroke-opacity:1"
     inkscape:connector-curvature="0"
     id="path42"
     d="m 127.5,-57.5 a 2,2 0 0 0 -2,-2" />
  <path
     style="fill:#000000;fill-opacity:0;stroke:#000000;stroke-width:0.15000001;stroke-linecap:round;stroke-linejoin:round;stroke-opacity:1"
     inkscape:connector-curvature="0"
     id="path44"
     d="m 104.75,0 a 2,2 0 0 0 2,-2" />
  <path
     style="fill:#000000;fill-opacity:0;stroke:#000000;stroke-width:0.15000001;stroke-linecap:round;stroke-linejoin:round;stroke-opacity:1"
     inkscape:connector-curvature="0"
     id="path46"
     d="m 0,-29.9393 a 2,2 0 0 0 0.1841,0.8381" />
  <path
     style="fill:#000000;fill-opacity:0;stroke:#000000;stroke-width:0.15000001;stroke-linecap:round;stroke-linejoin:round;stroke-opacity:1"
     inkscape:connector-curvature="0"
     id="path48"
     d="M 10.8,-16.5 H 7.2797" />
  <path
     style="fill:#000000;fill-opacity:0;stroke:#000000;stroke-width:0.15000001;stroke-linecap:round;stroke-linejoin:round;stroke-opacity:1"
     inkscape:connector-curvature="0"
     id="path50"
     d="M 109.3134,-7.5 H 106.75" />
  <path
     style="fill:#000000;fill-opacity:0;stroke:#000000;stroke-width:0.15000001;stroke-linecap:round;stroke-linejoin:round;stroke-opacity:1"
     inkscape:connector-curvature="0"
     id="path52"
     d="m 22.75,0 h 82" />
  <path
     style="fill:#000000;fill-opacity:0;stroke:#000000;stroke-width:0.15000001;stroke-linecap:round;stroke-linejoin:round;stroke-opacity:1"
     inkscape:connector-curvature="0"
     id="path54"
     d="m 127.3159,-29.1012 -5.2796,11.4393" />
  <path
     style="fill:#000000;fill-opacity:0;stroke:#000000;stroke-width:0.15000001;stroke-linecap:round;stroke-linejoin:round;stroke-opacity:1"
     inkscape:connector-curvature="0"
     id="path56"
     d="M 127.5,-29.9393 V -57.5" />
  <path
     style="fill:#000000;fill-opacity:0;stroke:#000000;stroke-width:0.15000001;stroke-linecap:round;stroke-linejoin:round;stroke-opacity:1"
     d="m 88.849998,-8.5 a 0.5,0.5 0 0 1 -0.5,0.5 0.5,0.5 0 0 1 -0.5,-0.5 0.5,0.5 0 0 1 0.5,-0.5 0.5,0.5 0 0 1 0.5,0.5 z"
     id="circle58" />
  <path
     style="fill:#000000;fill-opacity:0;stroke:#000000;stroke-width:0.15000001;stroke-linecap:round;stroke-linejoin:round;stroke-opacity:1"
     inkscape:connector-curvature="0"
     id="path60"
     d="M 5.4637,-17.6619 0.1841,-29.1012" />
  <path
     style="fill:#000000;fill-opacity:0;stroke:#000000;stroke-width:0.15000001;stroke-linecap:round;stroke-linejoin:round;stroke-opacity:1"
     inkscape:connector-curvature="0"
     id="path62"
     d="M 120.2203,-16.5 H 116.7" />
  <path
     style="fill:#000000;fill-opacity:0;stroke:#000000;stroke-width:0.15000001;stroke-linecap:round;stroke-linejoin:round;stroke-opacity:1"
     inkscape:connector-curvature="0"
     id="path64"
     d="M 106.75,-7.5 V -2" />
  <path
     style="fill:#000000;fill-opacity:0;stroke:#000000;stroke-width:0.15000001;stroke-linecap:round;stroke-linejoin:round;stroke-opacity:1"
     d="m 109.75,-19.5 a 0.5,0.5 0 0 1 -0.5,0.5 0.5,0.5 0 0 1 -0.5,-0.5 0.5,0.5 0 0 1 0.5,-0.5 0.5,0.5 0 0 1 0.5,0.5 z"
     id="circle66" />
  <path
     style="fill:#000000;fill-opacity:0;stroke:#000000;stroke-width:0.15000001;stroke-linecap:round;stroke-linejoin:round;stroke-opacity:1"
     inkscape:connector-curvature="0"
     id="path68"
     d="M 20.75,-7.5 H 18.1866" />
  <path
     style="fill:#000000;fill-opacity:0;stroke:#000000;stroke-width:0.15000001;stroke-linecap:round;stroke-linejoin:round;stroke-opacity:1"
     inkscape:connector-curvature="0"
     id="path70"
     d="m 20.75,-2 a 2,2 0 0 0 2,2" />
  <path
     style="fill:#000000;fill-opacity:0;stroke:#000000;stroke-width:0.15000001;stroke-linecap:round;stroke-linejoin:round;stroke-opacity:1"
     inkscape:connector-curvature="0"
     id="path72"
     d="m 109.3134,-7.5 a 2,2 0 0 0 1.6342,-0.847" />
</svg>
