<svg xmlns="http://www.w3.org/2000/svg" width="482.457" height="225.449" viewBox="0 0 127.65 59.65"><path fill="none" d="m16.627 51.228-5.752-8.153m104.85-27.25a1.75 1.75 0 0 1-1.75 1.75 1.75 1.75 0 0 1-1.75-1.75 1.75 1.75 0 0 1 1.75-1.75 1.75 1.75 0 0 1 1.75 1.75zM2.075.075a2 2 0 0 0-2 2m26.4 51.05a1.75 1.75 0 0 1-1.75 1.75 1.75 1.75 0 0 1-1.75-1.75 1.75 1.75 0 0 1 1.75-1.75 1.75 1.75 0 0 1 1.75 1.75zm78.2 0a1.75 1.75 0 0 1-1.75 1.75 1.75 1.75 0 0 1-1.75-1.75 1.75 1.75 0 0 1 1.75-1.75 1.75 1.75 0 0 1 1.75 1.75zm-78.9-31.3a1.75 1.75 0 0 1-1.75 1.75 1.75 1.75 0 0 1-1.75-1.75 1.75 1.75 0 0 1 1.75-1.75 1.75 1.75 0 0 1 1.75 1.75zM.075 2.075v27.56m125.5-29.56H2.075m18.75 57.5v-5.5M5.539 41.913a2 2 0 0 0 1.816 1.162m11.47-3a.5.5 0 0 1-.5.5.5.5 0 0 1-.5-.5.5.5 0 0 1 .5-.5.5.5 0 0 1 .5.5zm20.9 11a.5.5 0 0 1-.5.5.5.5 0 0 1-.5-.5.5.5 0 0 1 .5-.5.5.5 0 0 1 .5.5zm87.666-20.601a2 2 0 0 0 .184-.838m-10.8 13.439-5.752 8.153m-94.396 0a2 2 0 0 0 1.635.847m102.033-9a2 2 0 0 0 1.816-1.162m5.464-39.838a2 2 0 0 0-2-2m-20.75 59.5a2 2 0 0 0 2-2M.075 29.635a2 2 0 0 0 .184.839m10.616 12.601h-3.52m102.033 9h-2.563m-84 7.5h82m22.566-29.101-5.28 11.44m5.464-12.279V2.075m-38.65 49a.5.5 0 0 1-.5.5.5.5 0 0 1-.5-.5.5.5 0 0 1 .5-.5.5.5 0 0 1 .5.5zM5.539 41.913l-5.28-11.44m120.036 12.602h-3.52m-9.95 9v5.5m3-17.5a.5.5 0 0 1-.5.5.5.5 0 0 1-.5-.5.5.5 0 0 1 .5-.5.5.5 0 0 1 .5.5zm-89 12h-2.563m2.563 5.5a2 2 0 0 0 2 2m86.563-7.5a2 2 0 0 0 1.635-.847" style="fill:#000;fill-opacity:0;stroke:#000;stroke-width:.15000001;stroke-linecap:round;stroke-linejoin:round;stroke-opacity:1"/></svg>